<?xml version="1.0" encoding="UTF-8"?>
<!DOCTYPE svg PUBLIC "-//W3C//DTD SVG 1.1//EN" "http://www.w3.org/Graphics/SVG/1.1/DTD/svg11.dtd">
<!-- Creator: CorelDRAW 2019 (64-Bit) -->
<svg xmlns="http://www.w3.org/2000/svg" xml:space="preserve" width="134.408mm" height="134.408mm" version="1.1" style="shape-rendering:geometricPrecision; text-rendering:geometricPrecision; image-rendering:optimizeQuality; fill-rule:evenodd; clip-rule:evenodd"
viewBox="0 0 3515.65 3515.65"
 xmlns:xlink="http://www.w3.org/1999/xlink">
 <defs>
  <style type="text/css">
   <![CDATA[
    .fil0 {fill:none}
    .fil33 {fill:#1B1B30}
    .fil35 {fill:#1F2246}
    .fil7 {fill:#262729}
    .fil29 {fill:#272727}
    .fil19 {fill:#429197}
    .fil24 {fill:#566AB8}
    .fil15 {fill:#6A7A3B}
    .fil18 {fill:#73E286}
    .fil9 {fill:#763B1C}
    .fil8 {fill:#78291C}
    .fil36 {fill:#792A1B}
    .fil23 {fill:#935116}
    .fil22 {fill:#935119}
    .fil16 {fill:#A8F0B3}
    .fil30 {fill:#AD7564}
    .fil21 {fill:#B02E90}
    .fil25 {fill:#B84833}
    .fil4 {fill:#BC2A41}
    .fil5 {fill:#C48268}
    .fil27 {fill:#CB512D}
    .fil34 {fill:#CD9349}
    .fil14 {fill:#CE9A32}
    .fil31 {fill:#D39884}
    .fil12 {fill:#D7DCE0}
    .fil20 {fill:#DA5627}
    .fil37 {fill:#DBE8B7}
    .fil11 {fill:#E15161}
    .fil3 {fill:#E35060}
    .fil32 {fill:#E4E9EB}
    .fil10 {fill:#EDAF34}
    .fil6 {fill:#F0AE8E}
    .fil13 {fill:#F4FCFF}
    .fil17 {fill:#F5FAFD}
    .fil28 {fill:#F6F898}
    .fil26 {fill:#FAFBFB}
    .fil2 {fill:#FEFEFC}
    .fil1 {fill:#E31E24;fill-opacity:0.200000}
   ]]>
  </style>
 </defs>
 <g id="Layer_x0020_1">
  <metadata id="CorelCorpID_0Corel-Layer"/>
  <g id="_2415824413584">
   <rect class="fil0" width="3515.65" height="3515.65"/>
   <g>
    <path class="fil1" d="M2305.43 1542.16c-14.23,-3.76 -37.28,-16.49 -51.63,-23.12 -10.22,-4.72 -41.16,-20.33 -48.59,-22.46 -20.95,-6.02 -136.15,63.87 -267.24,-11.44 -29.65,-17.03 -32.02,-15 -62.05,-44.3 -5.5,-5.36 -6.54,-4.72 -10.9,-9.05 -43.27,-42.92 -77.16,-124.34 -78.52,-187.58 -0.92,-42.95 7.35,-86.47 21.41,-121.9 1.38,-3.47 9.77,-19.08 12.85,-24.33 3.74,-6.36 8.44,-16.41 12.79,-22.47 88.36,-123.22 246.68,-166.36 376.16,-94.32l20.97 14.32c4.75,4.06 4.99,2.78 10.93,6.21 33.32,19.21 71.8,69.92 89.95,106.81 50.98,103.63 31.79,241.81 -49.52,322.16 0.76,26.88 21.06,86.6 23.39,111.47zm-1048.2 -334.44c-13.16,-7.92 -28.93,-22.7 -39.7,-33.08l-32.81 -40.05c-17.46,-28.33 -36.09,-68.61 -42.05,-100.73 -15.04,-81.01 3.7,-168.14 51.42,-230.02 73.06,-94.75 190.01,-135.82 308.64,-103.9 100.65,27.08 167.39,103.11 198.25,200.56 49.25,155.52 -68.69,341.37 -238.06,359.03 -97.24,10.14 -78.36,-16.82 -123.26,14.94 -13.33,9.43 -73.46,56.01 -85.73,58.14 0.34,-38.81 7.14,-86.96 3.29,-124.89zm-633.28 1080.02l22.15 -113.7c4.79,-21.18 14.01,-52.49 5.1,-66.44 -8.22,-5.1 -25.18,-15.83 -20.84,-30.03 0.01,-0.04 8.7,-18.7 9.03,-19.3 4.98,-9.04 7.12,-7.77 8.67,-19.94 -9.93,-7.77 -18.56,-21.24 -25.56,-31.5 -11,-16.12 -15.03,-16.64 -10.51,-38.69 -11.04,4.85 -2.15,13.04 -9.92,3.84 -2.76,-3.27 -2.67,-8.56 -2.44,-14.24 0.61,-14.82 6.29,-13.93 4.98,-32.98 -6.57,-12.31 -20.42,-28.1 -30.03,-41.44 -24.61,-34.14 -60.83,-92.63 -82.11,-129.4 -11.95,-20.65 -28.77,-56.56 -42.86,-63.39 -43.02,-20.87 -26.35,-39.24 -46.23,-59.3 -9.15,-9.23 -28.56,-23.43 -29.67,-42.66 20.32,-0.7 18.24,5.81 37.78,7.77 -2.68,-13.76 -9.55,-14.01 -17.47,-28.43 -4.36,-7.95 -19.11,-34.05 0.42,-28.47 9.82,2.8 22.57,16.2 29.33,23.42l12.22 9.69c-1.28,-23.49 -11.89,-38.34 -2.69,-60.34 20.67,1.23 29.14,39.74 36.98,56.02 7.76,-11.57 1.41,-44.74 9.46,-52.24 0.02,-0.01 6.42,-11.11 13.97,7.13 2.73,6.6 3.91,11.7 5.27,18.18 2.58,12.33 2.79,27.57 7.34,37.14 8.27,-9.51 17.66,-34.99 34.6,-27.15 6.71,6.27 5.54,10.49 5.37,23.04 -0.46,33.4 -12.91,55.19 -3.44,68.58 14.91,21.07 84.9,97.74 101.4,115.3 16.37,17.41 37.58,37.44 52.22,54.53 12.29,-3.85 3.21,0.14 7.3,-5.06 -6.64,-2.33 -3.22,0.26 -5.97,-9.55 -1.05,-3.74 -2.03,-8.88 -2.9,-12.79 -1.92,-8.61 -3.73,-16.55 -4.9,-24.5 -5.65,-7.77 -2.48,-10.19 -6.87,-18.6 -4.47,-8.56 -15.48,-14.52 -27.13,-43.86 -22.4,-56.38 8.58,-65.51 10.6,-71.08 -0.35,-12.58 -3.79,-22.14 -1.14,-34 5.6,-42.95 -4.55,-71.99 13.9,-132.36 19.14,-62.62 54.15,-68.08 62.46,-78.12 -17.44,-9.94 -40.98,-14.28 -64.73,-14.08l14.9 -33.22c13.79,-0.54 29.58,18.03 43.7,23.36 -7.68,-30.37 -17.88,-49.02 -20.21,-85.98l43.19 5.54c-4.61,30.39 -17.68,70.53 3.24,96.53 6.23,-53.21 32.45,-64.69 87.44,-68.82 77.06,-5.79 193.42,12.52 257.05,52.72 35.12,22.19 58.85,38.78 61.27,94.75 10.48,15.67 4.68,85.42 3.46,108.33 -1.44,27.01 -0.99,18.84 9.93,39.98 5.7,11.04 12.23,27.27 15.57,39.09 8.36,29.6 10.43,69.54 0.01,97.67 -23.12,62.4 -39.78,48.29 -40.79,67.34 8.79,-1.65 5.38,-1.6 8.77,-3.5 8.85,-4.98 -5.7,0.47 6.98,-4.44 5.07,4.83 9.69,7.04 14.77,12.05 1.93,-5.98 6.49,-10.22 10.78,-15.2 5.07,-5.89 7.94,-9.71 12.3,-15.52l69.64 -91.54c7.9,-9.89 14.92,-20.95 22.75,-32.92 5.05,-7.73 17.74,-22.33 21.52,-31.65 7.9,-19.46 -21.56,-61.33 -7.72,-90.43 12.68,-2.53 18.06,2.06 24.31,8.39 4.89,4.96 10.48,14.85 13.22,16.9 2.76,-17.87 -2.9,-57.89 16.57,-67.86 16.2,11.78 8.33,38.53 17.64,53.11 10.05,-12.54 9.19,-55.88 32.16,-58.83 12.3,17.51 1.5,41.32 1.35,63.81 15.11,-8.83 25.05,-44.3 50.84,-40.48 2.57,22.99 -21.68,44.79 -28.48,63.84 15.01,-4.99 21.96,-15.88 43.1,-16.19 -0.42,21.08 -16.8,34.9 -26.4,46.17 -19.71,23.13 0.9,24.18 -21.44,49.1 -19.06,21.26 -15.78,-1.27 -34.35,36.14 -41.11,82.81 -53.66,122.14 -105,207.28 -4.93,8.18 -6.57,14.75 -14.52,18.34 6.61,6.32 23.81,58.13 2.29,47.68 7.66,20.84 -22.22,60.05 -34.82,76.21 -15.56,19.97 -36.32,41.68 -59.91,53.27 3.06,42.87 6.67,72.91 5.01,118.52 7.98,11.57 29.31,178.23 29.09,203.44 -7.47,4.22 -13.95,8.31 -22.25,12.64 -12.46,6.5 -18.39,3.74 -18.69,17.06l39.34 208.32c2.61,13.92 9.5,61.96 14.61,69.49l1.92 -9.46c18.02,2.84 20.18,7.82 33.01,10.6l94.13 29.51c40.72,13.7 92.66,20.37 137.49,29.89 109.87,23.32 300.86,33.53 425.41,20.41 12.18,-1.28 17.71,-4.38 32.97,-5.21 51.59,-2.81 97.94,-16.03 144.05,-22.28 22.24,-3.01 45.75,-11.44 67.7,-15.77 34.15,-6.73 40.33,-10.91 65.9,-17.45l123.44 -40.62c7.02,51.87 -5.78,116.72 0.34,167.35l3.32 0 1.29 -365.64c-4.93,-8.42 -26.26,-13.51 -36.44,-17.89 -11.04,-4.75 -26.08,-12.01 -33.64,-18.57 -1.9,-17.26 12.07,-112.84 18.49,-119.32l6.33 -43.42c-94.29,-58.39 -157.26,-163.64 -48.34,-261.23l-10.63 -12.07 102.96 -122.01c4.96,-6.05 15.42,-18.58 20.34,-22.4 22.12,-17.17 45.43,-8.72 76.6,-12.64l5.76 -0.59c8.11,-7.04 45.49,-6.01 59.12,-8.67l1.47 -33.09c-56.04,-16.2 -81.19,-22.11 -123.03,-51.71 -58.35,-41.29 -59.22,-124.26 -29.75,-190.23 15.24,-34.13 22.04,-33.51 33.73,-52.17 11.07,-17.67 31.04,-117.7 29.14,-143.65 -35.83,9.17 -70.14,-29.84 -10.52,-104.91 11.24,-14.16 30.88,-29.7 51.76,-38.93 35.82,-15.83 38.95,-7.52 73.34,-4.64 16.09,-34.81 67.8,-42.79 110.25,-23.59 32.53,14.72 32.62,28.04 48.44,21.23 44.55,-19.18 75.84,-5.11 96.73,40.45 16.74,36.51 2.72,18.95 38.77,36.61 16.15,7.91 33.9,18.02 45.55,30.21 22.32,23.33 5.66,33.19 -7.54,48.1 5.54,11.89 40.45,39.66 42.78,63.38 1.12,11.38 -2.02,12.57 -8.86,18.62 -2.97,2.62 -1.79,0.98 -3.81,3.7 12.05,15.55 35.38,53.07 27.18,82.53 -2.29,8.22 -6.14,12.2 -11.07,16.9 -17.07,16.28 -4.28,14.47 -23.5,56.35 -6.01,18.06 -4.56,29.25 -14.39,49.33 -12.22,24.96 -36.52,52.71 -63.73,62.06 -26.52,9.11 -34.54,-1.84 -54.26,-5.81 -8.68,20.58 -35.2,44.86 -56.61,59.04 -28.14,18.62 -47.01,21.13 -82.48,30.95l-1.27 20.95c11.61,2.25 60.27,-0.1 81,0.37 3.61,0.08 9.23,0.11 12.66,0.54 3.5,0.44 3.66,0.63 6.66,1.37l3.86 1.48c58.93,-8.41 79.29,39.11 108.03,89.95 12.92,22.86 64.29,114.52 67.14,130.4l1.94 4.18c8.35,24.19 18.28,47.79 16.98,74.99 -1.49,31.28 -23.59,59.38 -21.15,77.43 5.22,32.76 17.97,85.37 17.2,118.39 11.25,-8.3 18.7,-19.91 28.2,-30.01l24.3 -31.14c18.5,-21.97 31.51,-41.65 46.02,-64.68 34.07,-54.08 70.67,-121.32 95.08,-184.74 38.34,-99.61 70.02,-196.19 84.57,-302.88 18.54,-135.98 19.07,-288.15 -21.62,-404.72l-22.9 -61.32c-4.68,-14.48 -20.5,-38.58 -29.83,-53.07 -19.76,-30.71 -45.61,-57.81 -73.87,-79.64 -4.9,-3.78 -3.17,-2.86 -6.91,-5.72 -106.06,-81.12 -291.31,-111.66 -426.4,-130.78 -75.34,-10.66 -239.58,-44.3 -315.55,-75.24 -9.23,-3.76 -29.38,-11.84 -39.09,-16.2l-75.99 -37.3c-57.85,-32.13 -110.24,-76.6 -168.3,-108.39 -35.14,-19.24 -73.75,-40.48 -110.82,-55.39 -26.98,-10.85 -50.66,-23.55 -78.06,-33.07 -69.2,-24.06 -138.37,-51.85 -209.28,-70.42 -16.31,-4.27 -30.62,-7.53 -44.3,-11.3 -91.75,-25.34 -182.3,-44.31 -279.68,-52.76 -73.35,-6.37 -137.44,-10.07 -214.02,-10.42 -30.3,-0.14 -74.49,2.75 -104.77,6.19l-96.31 14.32c-16.44,4.68 -32.38,4.38 -48.19,9.82 -36.75,12.66 -67.82,17.49 -106.29,32.38 -6.4,2.47 -12.97,5.42 -19.24,8.37 -7.9,3.72 -11.77,4.15 -20.11,7.62 -11.46,4.77 -6.57,5.77 -18.54,9.08 -24.07,6.64 -34.81,18.14 -54.63,28.71l-67.03 43.8c-5.82,5.58 -8.56,6.83 -15.33,12.53l-43.49 39.67c-5.23,6.04 -8.78,8.48 -13.94,13.71l-61.9 76.58c-2.79,3.84 -7.78,13.7 -10.24,17.67 -0.48,0.76 -2.72,4.6 -2.81,4.76l-8.03 12.02c-9.87,12.05 -12.94,22.33 -19.43,36.07 -2.79,5.9 -6.75,11.23 -10.04,17.58 -6.41,12.4 -11.12,28.73 -16.49,41.81l-13.21 34.47c-6.77,14.43 -10.06,30.16 -15.51,47.84 -22.61,73.24 -36.57,160.42 -37.28,238.69 -0.71,78.26 -2.02,189.57 11.42,265.61 2.91,16.49 3.93,34.17 6.67,49.45l10.21 43.62c3.04,14.49 5.67,31.93 10.83,44.85 10.13,25.35 12.94,63.2 24.36,88.96 4.1,9.25 2.17,12.68 5.46,22.59l15.37 39.6c5.81,22.41 28.58,83.02 38.85,100.23l12.13 28.6c0.25,0.51 0.57,1.17 0.82,1.67 1.96,3.99 1.98,4.38 4.3,7.82 10.8,16.01 19,38.18 27.67,55.88 6.09,12.42 18.76,26.05 24.25,37.92l18.56 29.55c3.94,6.29 6.32,11.28 10.04,17.7l21.7 33.87c7.74,10.65 13.52,21.33 22.25,33.21l47.11 64.16c6.43,9.12 21.04,16.9 19.71,35.45z"/>
    <path class="fil2" d="M1257.22 1207.71c3.85,37.93 -2.95,86.08 -3.29,124.89 12.27,-2.13 72.4,-48.71 85.73,-58.14 44.9,-31.75 26.02,-4.79 123.26,-14.94 169.37,-17.67 287.31,-203.51 238.06,-359.03 -30.86,-97.45 -97.61,-173.47 -198.25,-200.56 -118.63,-31.92 -235.58,9.14 -308.64,103.9 -47.71,61.88 -66.45,149.01 -51.42,230.02 5.96,32.11 24.59,72.4 42.05,100.73l32.81 40.05c10.76,10.38 26.53,25.16 39.7,33.08z"/>
    <path class="fil2" d="M2305.43 1542.16c-2.33,-24.88 -22.64,-84.59 -23.39,-111.47 81.31,-80.36 100.51,-218.53 49.52,-322.16 -18.15,-36.89 -56.64,-87.6 -89.95,-106.81 -5.94,-3.43 -6.18,-2.15 -10.93,-6.21l-20.97 -14.32c-129.48,-72.04 -287.81,-28.91 -376.16,94.32 -4.34,6.06 -9.05,16.12 -12.79,22.47 -3.08,5.25 -11.48,20.87 -12.85,24.33 -14.06,35.43 -22.34,78.95 -21.41,121.9 1.36,63.24 35.25,144.66 78.52,187.58 4.37,4.33 5.41,3.69 10.9,9.05 30.03,29.3 32.4,27.27 62.05,44.3 131.09,75.32 246.29,5.42 267.24,11.44 7.42,2.13 38.37,17.74 48.59,22.46 14.35,6.63 37.4,19.36 51.63,23.12z"/>
    <path class="fil3" d="M714.54 2287.67c-0.43,3.74 -25.66,98.66 -31.62,106.11l-3.89 25.27c9.38,2.33 19.57,2.42 20.88,12.24 0.73,-0.64 2.04,-2.56 2.31,-1.76 0.2,0.61 1.56,-1.14 1.79,-1.28 0.26,-0.16 1.02,-0.09 1.55,-0.74 17.39,3.06 35.77,10.06 53.48,14.63 19.81,5.11 36.65,8.81 56.07,12.64 38.76,7.66 79.88,13.81 121.21,16.07 92.92,5.07 167.12,-5 241.92,-34.71 0.51,0.29 1.45,-0.25 1.68,0.53l5.42 4.7c0.3,-13.32 6.24,-10.57 18.69,-17.06 8.3,-4.33 14.78,-8.41 22.25,-12.64 0.22,-25.21 -21.11,-191.87 -29.09,-203.44 -9.64,-17.48 -4.82,-29.06 -10.22,-47.69 -15.41,-53.19 -92.24,-274.19 -144.28,-261.7 -0.2,29.06 3.01,51.14 -12.36,71.93 -10.55,14.28 -29.6,26.61 -56.19,26.47 -24.44,-0.14 -45.99,-14.38 -54.83,-27.66 -12.77,-19.17 -12.85,-45.13 -11.3,-72.01l-2.87 -0.58c-1.65,94.78 -25.1,277.8 -86.18,351.51 -38.51,46.47 -67.92,35.86 -104.43,39.19z"/>
    <path class="fil4" d="M699.91 2431.29c-15,44.51 -27.11,93.19 -40.15,139.36 -8.03,28.43 -37.84,117.88 -38.44,140.85 13.46,8.01 29.99,17.98 44.17,27.13 26.29,10.97 46.39,21.61 74.15,30.46 14,4.46 28.28,8.15 41.25,11.46 11.06,2.83 35.05,3.65 43.99,9.68 20.44,-0.89 54.13,5.3 78.67,5.8 28.42,0.57 57.38,-3.05 83.7,-2.35 7.71,-3.26 75.46,-10.92 92.89,-14.64 30.56,-6.52 59.68,-16.41 87.68,-22.09l71.15 -25.28 0.35 -12.48c-5.11,-7.53 -12.01,-55.57 -14.61,-69.49l-39.34 -208.32 -5.42 -4.7c-0.23,-0.78 -1.17,-0.24 -1.68,-0.53 -74.79,29.71 -149,39.78 -241.92,34.71 -41.33,-2.26 -82.45,-8.41 -121.21,-16.07 -19.42,-3.84 -36.26,-7.54 -56.07,-12.64 -17.71,-4.57 -36.09,-11.57 -53.48,-14.63 -0.53,0.65 -1.29,0.58 -1.55,0.74 -0.22,0.14 -1.59,1.88 -1.79,1.28 -0.27,-0.8 -1.58,1.12 -2.31,1.76z"/>
    <path class="fil5" d="M2599.21 1696.1c0.78,0.53 1.74,0.95 2.52,1.27l15.59 2.99 -32.03 29.08c-13.14,8.54 -31.64,14.26 -51.66,13.86 -36.35,-0.72 -72.61,-26.16 -79.25,-54.53 13.68,0.88 29.3,4.49 42.22,2.37 -3.89,-2.57 2.87,-0.05 -6.13,-2.58l-39.9 -3.53 -6.15 -26.15 191.03 7.73c-0.36,6.38 -5.85,15.19 -9.23,20.59 -7.57,12.06 -10.33,9.26 -27.01,8.92zm234.29 22.26c-9.62,-14.55 4.55,-19.02 -15.69,-32.74 -6.28,-4.26 -32.43,-14.4 -14.14,-22.34 0.88,-0.38 16.58,-3.67 20.23,-4.74 26.26,-7.71 25.75,-24.23 44.12,-23.03 3.23,15.53 -10.27,22.41 -26.86,32.21 -1.38,0.81 -5.15,3.04 -6.3,3.89 -3.62,2.65 -1.33,0.32 -3.85,3.55 4.2,7.54 11.79,11.43 13.66,20.92 2.3,11.64 1,21.83 -11.16,22.27zm-320.22 -136.91c-4.51,28.54 26.15,39.67 28.91,52.22 3.43,15.61 -13.2,6.74 -20.07,0.07 -5.24,-5.1 -13.57,-15.42 -18.1,-22.1 -13.16,-19.4 -8.84,-44.7 17.09,-47.2 24.02,-2.32 42.02,17.8 39.87,37.19 -23.93,2.02 -9.53,-29.14 -47.7,-20.18zm135.85 -58.39c27.22,-14.62 41.53,27.17 18.96,37.11 -25.81,11.37 -42.98,-24.21 -18.96,-37.11zm-189.14 -15.48c27.5,-10.19 39.42,28.51 17.1,38.22 -28.22,12.28 -42.68,-28.75 -17.1,-38.22zm246.41 -2.16c-15.03,4.83 -9.81,-2.58 -21.69,-8.94 -10.26,-5.49 -15.39,-2.05 -24.13,-6 -1.03,-9.84 -1.28,-11.78 8.94,-12.76 11.38,-1.09 40.19,7.24 36.89,27.7zm-264.11 -8.3c-4.56,-7.82 -1.56,-10.07 -1.55,-10.08 3.81,-11.99 50.54,-28.16 46.81,-1.42 -10.91,2.99 -17.34,-0.58 -26.43,3.66 -11.23,5.24 -6.65,11.26 -18.83,7.85zm0.09 -106.25c1.9,25.96 -18.07,125.99 -29.14,143.65 -11.7,18.66 -18.49,18.04 -33.73,52.17 -29.47,65.97 -28.6,148.94 29.75,190.23 41.84,29.6 66.99,35.52 123.03,51.71 2.59,-0.53 39.43,5.17 49.26,5.8 21.15,1.35 41.19,-2.68 58.9,-1.99 35.47,-9.82 54.33,-12.33 82.48,-30.95 21.41,-14.17 47.93,-38.46 56.61,-59.04 19.71,3.96 27.74,14.92 54.26,5.81 27.21,-9.35 51.52,-37.1 63.73,-62.06 9.83,-20.08 8.38,-31.26 14.39,-49.33 -9.12,-11.14 -5.89,-19.82 -19.41,-28.25 -47.44,-29.57 -92.01,19.84 -101.82,22.88 -17.35,-27.93 -4.76,-49.24 -0.96,-74.79 -51.16,-43.28 -28.59,-66.29 -26.01,-93.26 -31.67,-24.31 -69.99,-35.22 -62.81,-96.12 -40.1,8.96 -105.77,42.23 -175.26,49.72 -30.47,3.28 -48.06,2.83 -36.35,-30 -16.12,2.02 -30.23,6.64 -46.92,3.83z"/>
    <path class="fil6" d="M945.02 1697.85c2.77,-2.05 1.81,-1.51 6.44,-3.21l181.53 -22.2c-1.57,20.08 -18.6,46.49 -28.3,57.78 -62.12,72.35 -153.56,15.75 -159.68,-32.36zm-231.73 23.41c2.37,-14.24 11.55,-15.08 14.16,-25.93 -14.04,-7.75 -40.89,-19.08 -39.14,-36.6 11.94,-3.48 11.85,-0.66 19.18,6.05 25.36,23.2 34.21,14.57 52.55,22.4 0.22,12.52 2.69,8.07 -7.24,13.73 -37.87,21.57 -16.14,18.79 -25.2,35.99 -6.68,12.69 -16.89,-0.14 -14.32,-15.64zm335.27 -115.31c-29.22,-25.01 -35.85,34.01 -47.6,14.81 -7.49,-12.24 16.87,-37.95 38.48,-35.95 27.74,2.56 31.22,26.6 18.96,46.34 -4.64,7.48 -11.44,14.88 -18,22.13 -11.84,13.05 -6.63,11.39 -22.01,8.23 3.54,-21.54 38.47,-33.51 30.18,-55.56zm-165.3 -59.2c-4.25,5.78 -5.25,8.37 -6.73,17.91 -4.54,29.14 -24.67,-0.89 -5.77,-23.08 20.54,-24.12 55.58,5.75 45.46,25.35 -21.72,0.95 -1.82,-24.05 -32.96,-20.18zm181.61 17.9c-13.29,-17.44 7.51,-39.32 22.87,-39.94 18.27,-0.74 32.98,20.65 26.36,38.27 -22.07,1.87 0.19,-27.46 -32.39,-24.11 -4.7,7.14 -4.66,6.45 -7.13,15.37 -2.63,9.52 0.57,8.69 -9.71,10.41zm-211.62 -38.35c-3.35,-24.32 36.92,-35.53 45.67,-25.26 10.99,12.89 -12.93,11.26 -19.76,13.41 -11.97,3.77 -10.25,14.17 -25.91,11.85zm268.04 -9.02c-12.52,2.17 -12.05,-4.96 -20.9,-8.45 -11.43,-4.51 -14.27,1.48 -26.28,-4.26 -3.68,-25.21 57.32,-12.47 47.18,12.71zm-455.82 76c-2.65,11.85 0.79,21.42 1.14,34 -2.02,5.56 -33,14.7 -10.6,71.08 11.65,29.33 22.66,35.3 27.13,43.86 4.4,8.41 1.22,10.83 6.87,18.6l-1.59 -10.95c13.9,7.45 21.14,17.51 40.04,22.53 25.5,6.78 31.73,-2.96 50.57,-7.59 15.47,33.99 71.1,79.31 122.84,86.83l14.38 3.85c31.33,-0.85 65.81,9.19 114.29,-4.14 35.24,-2.48 101,-32.81 121.66,-49.36l-0.03 10.95 3.7 -6.94c1.01,-19.05 17.67,-4.94 40.79,-67.34 10.42,-28.13 8.35,-68.07 -0.01,-97.67 -3.34,-11.82 -9.86,-28.05 -15.57,-39.09 -10.92,-21.14 -11.37,-12.97 -9.93,-39.98 1.22,-22.91 7.02,-92.66 -3.46,-108.33 2.39,42.25 0.64,78.05 0.66,119.61 -29.26,-12.27 -37.72,-86.16 -41.81,-111.16 -14.22,-0.71 -47.57,13.61 -69.6,14.85 -1.86,-17.77 -4.77,-46.15 -12.65,-59.53l-5.96 63.61 -38.95 3.35c-5.63,-8.98 -6.33,-20.56 -11.27,-29.52l-6.01 31.34c-33.46,0.92 -26.73,5.84 -31.29,-32.28 -0.66,-5.54 -1.06,-11.69 -1.93,-17.35 -0.28,-1.83 -1.48,-6.94 -2.1,-8.51 -2.12,-5.34 -0.84,-2.88 -3.31,-6.22l-14.63 63.83c-15.51,0.49 -61.19,-3.11 -73.89,-8.58 -0.96,-9.15 -4.73,-54.67 -10.09,-61.97l-15.65 58.46 -41.25 -9.64c-2.5,58.17 21.95,105.84 -43.04,170.54 -11.29,-1.85 -19.7,-9.48 -33.04,-12.18 -20.39,-4.14 -25.4,0.95 -42.52,3.19 -0.57,-9.4 0.37,-26.44 -3.88,-32.13z"/>
    <path class="fil7" d="M2370.27 2500.52l-1.29 365.64c2.25,12.81 -1.77,5.56 5.99,9l134.94 0.47c1.78,-2.09 1.26,-1.75 2.77,-4.15l3.49 -5.68c-2.33,-13.99 40.44,-234.46 46.88,-266.78l78.01 1.34 53.95 257c1.74,3.22 1.51,4.62 2.08,5.65 2.95,5.35 -0.55,6.94 22.91,7.38 13.05,0.25 26.22,0.19 39.19,1.02 26.28,1.68 50.54,1.87 77.15,3.34l-0.88 -27.07 -12.11 -365.51c-8.73,-0.05 -35.56,13.47 -50.77,19.25 -16.43,6.25 -33.01,11.79 -51.36,16.66 -37.35,9.9 -75.79,16.63 -116.9,18.3 -43.43,1.77 -85.62,-1.12 -127.09,-8.46 -27.42,-4.86 -103.7,-27.49 -106.97,-27.39z"/>
    <path class="fil8" d="M2442.38 1390.87c16.69,2.81 30.79,-1.81 46.92,-3.83 -11.72,32.83 5.87,33.29 36.35,30 69.49,-7.49 135.16,-40.75 175.26,-49.72 -7.18,60.9 31.14,71.81 62.81,96.12 -2.58,26.97 -25.15,49.97 26.01,93.26 -3.8,25.55 -16.39,46.87 0.96,74.79 9.8,-3.04 54.38,-52.45 101.82,-22.88 13.53,8.43 10.3,17.11 19.41,28.25 19.21,-41.88 6.43,-40.07 23.5,-56.35 4.93,-4.7 8.78,-8.68 11.07,-16.9 8.2,-29.47 -15.13,-66.98 -27.18,-82.53 2.01,-2.72 0.84,-1.08 3.81,-3.7 6.84,-6.05 9.98,-7.24 8.86,-18.62 -2.33,-23.73 -37.24,-51.49 -42.78,-63.38 13.2,-14.91 29.86,-24.77 7.54,-48.1 -11.66,-12.19 -29.41,-22.3 -45.55,-30.21 -36.05,-17.66 -22.03,-0.09 -38.77,-36.61 -20.88,-45.56 -52.17,-59.63 -96.73,-40.45 -15.81,6.81 -15.9,-6.52 -48.44,-21.23 -42.45,-19.2 -94.17,-11.22 -110.25,23.59 -34.39,-2.88 -37.53,-11.19 -73.34,4.64 -20.88,9.23 -40.52,24.78 -51.76,38.93 -59.62,75.07 -25.31,114.08 10.52,104.91z"/>
    <path class="fil5" d="M2325.01 2301.33l8.7 4.96c7.69,5.22 26.52,14.99 34.42,15.96 4.9,15.74 16.37,29.99 30.5,35.2 9.12,3.36 6.23,1.37 9.1,6.68 12.06,0.98 12.41,0.93 20.39,6.43l12.37 10.34c22.47,4.14 10.38,11.55 31.46,13.88 -1.82,-23.89 -10.52,-16.21 -11.72,-37.01 32.21,-0.03 33.49,23.51 59.35,24.31 1.33,-19.69 -1.46,-6.99 -7.57,-20.56l-2.67 -2.22c-8.04,-6.18 -18.62,-14.09 -20.83,-23.75 12.01,-6.99 35.29,12.37 58.07,0 0.05,-28.64 -44.92,-26.39 -51.07,-35.29 8.51,-11.61 22.63,-1.41 38.65,-7.52 14.53,-5.54 11.44,-5.3 39.95,-4.1 12.39,0.52 27.93,2.04 43.2,2.94l30.09 5.39c7.73,2.72 4.97,-1.01 8.53,5.81 -6.45,8.95 1.52,0.48 -25.2,11.66 -14.81,6.2 -19.38,2.16 -17.42,21.1l11.01 3.49c4,0.54 11.22,0.41 15.29,-0.11 12.64,-1.61 13.42,-6.42 21.56,-7 9.67,20.18 -4.7,10.2 -22.2,36.18 -11.16,16.58 -0.65,21.85 13.06,13.07l16.29 -9.14c5.86,-3.85 18.23,-21.11 30.48,-11.29 -3.68,9.13 0.44,-4.53 -8.05,8.11 -6.42,9.56 -7.45,18.64 -6.92,30.44 9.1,-2.46 23.28,-11.02 29.92,-17.22 2.54,-2.38 1.46,-1.66 3.74,-3.75 2.12,-1.94 3.18,-2.64 5.52,-4.69 8.41,-7.36 17.53,-13.3 29.93,-15.12 38.13,-5.59 7.96,-19.7 64.61,-48.98 7.17,-3.7 15.78,-9.41 24.33,-8.19 1.78,-11.07 20.32,-22.03 35.73,-35.09 13.36,-11.32 13.23,-14.69 25.3,-27.69 3.1,-3.34 5.69,-7.29 8.7,-10.94l4.68 6.49c-2.44,-18.06 19.66,-46.16 21.15,-77.43 1.3,-27.2 -8.63,-50.8 -16.98,-74.99l-1.94 -4.18 -0.6 7c-8.34,-17.17 -26.19,-33.81 -38.82,-44.38 -16.68,3.4 -32.81,19.36 -49,27.24 -9.55,4.65 -15.43,8.94 -23.6,14.23 -6,3.89 -16.95,11.19 -23.39,13.55 5.29,8.9 5.64,15.69 6.12,26.03 0.44,9.75 1.43,17.94 -1.44,27.18 -2.4,7.74 -19.02,28.57 -22.8,31.73l-7.31 14.77 -8.59 0.48 0.56 5.62 -7.95 1.33 0.24 14.45c-3.44,2.04 -1.01,1.17 -5.93,1.09 -1.57,15.43 2.28,6.91 -6.44,9.28l1.69 6.13c-8.89,1.05 -25.46,-2.7 -33.82,-6.11l0.75 -32.69c-4.35,7.47 -1.98,22.26 -3.73,32.71 -6.57,-1.28 -11.8,-2.31 -19.68,-2.62 -31.93,-1.27 -22.18,19.28 -17.32,25 5.16,6.07 18.17,12.01 18.46,12.1 -5.08,4.82 -1.16,5.33 -21.2,6.63 -7.99,0.52 -12.46,1.3 -19.71,2.82 -5.32,1.11 -12.8,2.17 -17.34,5.07l-7.06 7.69c-0.35,0.46 -0.95,1.3 -1.24,1.69 -0.3,0.41 -1.08,2.21 -1.29,1.78 -0.23,-0.44 -0.83,1.26 -1.32,2.02l-59.47 -5.36c-0.41,-0.38 -0.94,-0.92 -1.37,-1.28 -16.04,-13.57 -45.97,-15.75 -66.05,-17.03 2.63,-3.42 1.14,-1.61 4.14,-4.81 1.93,-2.06 1.8,-1.86 4.04,-3.97 7.43,-6.98 22.65,-15.44 13.5,-27.8 -11.8,-12.3 -59.4,3.81 -77.11,3.87 -10.42,-18.31 -31.22,-43.54 -36.93,-58.9l-16.67 -23.87c-23.98,-34.66 6.47,-28.41 31.85,-28.45 69.57,-0.09 233.44,-2.91 281.98,1.11 -11.76,-8.18 -55.51,-3.75 -72.86,-3.75 -24.35,0 -48.71,0 -73.06,0 -42.77,0 -110.39,3.97 -150.2,-1.32 -10.1,2.24 -19.82,4.43 -20.31,-5.86 -0.05,-1.18 1.34,-16.18 1.1,-24.18 -13.97,6.45 -71.15,-45.61 -92.67,-47.65 -108.91,97.59 -45.94,202.84 48.34,261.23z"/>
    <path class="fil9" d="M665.47 1593.28c4.26,5.69 3.31,22.74 3.88,32.13 17.11,-2.24 22.13,-7.32 42.52,-3.19 13.33,2.7 21.74,10.33 33.04,12.18 64.99,-64.69 40.54,-112.37 43.04,-170.54l41.25 9.64 15.65 -58.46c5.36,7.3 9.14,52.82 10.09,61.97 12.7,5.47 58.38,9.08 73.89,8.58l14.63 -63.83c2.47,3.34 1.2,0.88 3.31,6.22 0.62,1.57 1.82,6.68 2.1,8.51 0.87,5.66 1.26,11.81 1.93,17.35 4.56,38.11 -2.17,33.2 31.29,32.28l6.01 -31.34c4.94,8.96 5.64,20.54 11.27,29.52l38.95 -3.35 5.96 -63.61c7.88,13.38 10.79,41.76 12.65,59.53 22.03,-1.24 55.38,-15.56 69.6,-14.85 4.09,24.99 12.56,98.89 41.81,111.16 -0.02,-41.56 1.73,-77.36 -0.66,-119.61 -2.42,-55.97 -26.15,-72.57 -61.27,-94.75 -63.63,-40.2 -179.98,-58.51 -257.05,-52.72 -55,4.14 -81.22,15.61 -87.44,68.82 -20.93,-26 -7.85,-66.14 -3.24,-96.53l-43.19 -5.54c2.33,36.96 12.53,55.62 20.21,85.98 -14.12,-5.32 -29.9,-23.89 -43.7,-23.36l-14.9 33.22c23.75,-0.2 47.29,4.14 64.73,14.08 -8.31,10.05 -43.32,15.5 -62.46,78.12 -18.45,60.37 -8.3,89.41 -13.9,132.36z"/>
    <path class="fil10" d="M2318.68 2344.75c-6.42,6.48 -20.39,102.06 -18.49,119.32 7.56,6.56 22.6,13.82 33.64,18.57 10.17,4.38 31.51,9.46 36.44,17.89 3.27,-0.11 79.55,22.53 106.97,27.39 41.47,7.34 83.67,10.23 127.09,8.46 41.11,-1.67 79.55,-8.39 116.9,-18.3 18.34,-4.87 34.93,-10.4 51.36,-16.66 15.2,-5.79 42.04,-19.31 50.77,-19.25 4.37,-7.71 18.27,-12.2 26.51,-16.69 10.25,-5.59 18.88,-9.98 28.73,-15.26l-5.16 -29.71c-5.75,-6.86 -9.17,-27.41 -8.23,-31.05 -2.06,-7.41 -18.19,-64.88 -18.42,-65.24l-50.76 39.45c-34.41,25.92 -82.94,56.47 -130.54,49.33 -28.52,-4.28 -39.48,-16.83 -49.56,-41.87l-68.63 -0.97c-10,17.79 -14.22,36.81 -39.1,45.39 -20.87,7.2 -50.98,6.1 -71.73,-0.75l-120.83 -49.04c-1.11,-11.74 1.31,-10.42 3.04,-21.02z"/>
    <path class="fil11" d="M612 1968.13c-4.53,22.04 -0.49,22.56 10.51,38.69 7,10.26 15.63,23.73 25.56,31.5 4.24,13.03 36.11,35 48.89,43.18 20.23,12.95 38.66,20.52 67.58,25.88l-1.42 15.08 -35.52 124.73c1.82,5.33 -1.94,-0.76 2.19,2.87 55.63,-15.48 94.81,-83.13 111.34,-138.38 14.88,-49.7 37.01,-157.83 29.56,-217.23 -19.33,-8.84 -34.2,-10.14 -63.83,-24.39 -4.4,-2.12 -11.86,-4.97 -12.47,-10.68 -0.07,-0.64 -0.25,-0.96 -0.17,-1.44 18.82,-7.71 96.42,-2.52 123.05,-2.33l-1.03 -0.12 -14.38 -3.85c-8.18,6.58 -84.96,4.1 -105.88,5.13 -25.05,1.24 -42.65,-26.2 -64.24,-39.91 -2.1,3.96 -30.85,25.42 -36.48,30.44 -14.02,12.51 -21.79,19.77 -34,34.05 -23.66,27.68 -32.98,48.54 -49.26,86.78z"/>
    <path class="fil12" d="M805.34 2895.08c6.59,13.44 36.25,38.68 22.06,52.22 -10.84,10.35 -139.35,-28.56 -169.58,-35.32 -15.12,-3.39 -17.46,-1.6 -16.47,-14.38l-12.55 7.15c-3.45,0.51 -10.96,0.52 -14.94,0.76 -10.09,0.61 -19.32,1.52 -29.36,2.51 -27.23,2.68 -147.52,7.21 -157.42,32.42 43.34,55.75 963.43,56.03 1008.06,0 -5.05,-14.9 -34.89,-17.75 -51.2,-20.6 -66.94,-11.71 -139.52,-11.55 -202.8,-18.58 9.28,11.96 49.25,25.07 38.6,43.12 -17.23,13.47 -63.07,9.82 -89.38,10.29 -20.38,0.37 -87.77,5.18 -101.92,-0.43 -4.19,-7.37 -2.22,-22.2 -2.43,-31.45 -0.32,-14.15 0.84,-25.67 -6.5,-32.92l-0.01 6.51c-35.72,0.83 -72.44,-0.03 -108.34,-0.04 -22.61,-0.01 -89.75,5.16 -105.85,-1.27z"/>
    <path class="fil6" d="M1186.36 1810.1c9.47,6.86 19.64,15.69 26.7,21.9 9.42,8.3 18.24,14.66 26.92,23.35 18.03,18.07 32.42,36.33 44.65,57.2 7.95,-3.59 9.59,-10.17 14.52,-18.34 51.33,-85.15 63.89,-124.47 105,-207.28 18.57,-37.4 15.29,-14.87 34.35,-36.14 22.34,-24.92 1.73,-25.97 21.44,-49.1 9.6,-11.27 25.98,-25.08 26.4,-46.17 -21.13,0.32 -28.09,11.21 -43.1,16.19 6.8,-19.05 31.05,-40.85 28.48,-63.84 -25.79,-3.82 -35.74,31.65 -50.84,40.48 0.15,-22.49 10.95,-46.3 -1.35,-63.81 -22.97,2.95 -22.11,46.29 -32.16,58.83 -9.31,-14.57 -1.43,-41.32 -17.64,-53.11 -19.47,9.97 -13.82,49.99 -16.57,67.86 -2.73,-2.04 -8.33,-11.94 -13.22,-16.9 -6.24,-6.33 -11.63,-10.92 -24.31,-8.39 -13.84,29.1 15.62,70.98 7.72,90.43 -3.78,9.32 -16.47,23.93 -21.52,31.65 -7.83,11.97 -14.84,23.03 -22.75,32.92l-69.64 91.54c-4.36,5.81 -7.23,9.63 -12.3,15.52 -4.29,4.98 -8.85,9.22 -10.78,15.2z"/>
    <path class="fil6" d="M604.62 1924.74c8.25,-2.06 10.26,-12.97 20.31,-29.28 6.48,-10.52 14.25,-20.38 21.67,-28.81l49.87 -53.95c-14.64,-17.09 -35.85,-37.12 -52.22,-54.53 -16.5,-17.56 -86.49,-94.23 -101.4,-115.3 -9.47,-13.39 2.98,-35.18 3.44,-68.58 0.17,-12.55 1.34,-16.77 -5.37,-23.04 -16.94,-7.84 -26.33,17.63 -34.6,27.15 -4.55,-9.57 -4.76,-24.81 -7.34,-37.14 -1.35,-6.48 -2.53,-11.57 -5.27,-18.18 -7.54,-18.24 -13.95,-7.14 -13.97,-7.13 -8.06,7.5 -1.7,40.67 -9.46,52.24 -7.84,-16.28 -16.31,-54.78 -36.98,-56.02 -9.2,21.99 1.41,36.85 2.69,60.34l-12.22 -9.69c-6.77,-7.22 -19.51,-20.61 -29.33,-23.42 -19.53,-5.57 -4.78,20.52 -0.42,28.47 7.92,14.42 14.79,14.67 17.47,28.43 -19.55,-1.96 -17.46,-8.46 -37.78,-7.77 1.12,19.24 20.53,33.44 29.67,42.66 19.88,20.05 3.21,38.42 46.23,59.3 14.09,6.84 30.92,42.75 42.86,63.39 21.28,36.77 57.5,95.26 82.11,129.4 9.61,13.34 23.47,29.13 30.03,41.44z"/>
    <path class="fil12" d="M2836.35 2874.75l-2.35 58.45c-31.39,0.69 -174.37,1.72 -189.45,-9.97 -8.55,-16.9 5.57,-23.2 15.41,-30.34 9.29,-6.75 22.07,-14.07 27.17,-21.87 -24.16,5.61 -139.45,3.75 -169.07,3.21l-1.88 -8.43 -3.49 5.68c-1.51,2.4 -0.99,2.06 -2.77,4.15l-2.22 56.66c-22.71,3.44 -76.6,0.99 -101.15,-0.41 -24.85,-1.42 -76.38,3.3 -90.77,-10.15 -9.41,-17.91 27.59,-32.48 37.1,-45.34 -46.02,9.57 -233.16,10.98 -252.48,38.85 8.01,27.98 205.14,37.02 236.84,38.17 87.84,3.18 177.42,6.8 267,6.74 74.02,-0.05 478.04,-4.1 504.21,-42.39 -6.42,-15.61 -36.25,-17.85 -57.7,-21.33 -51.39,-8.32 -200.53,-16.07 -208.84,-18.63 -1.09,-4.9 -0.54,-9.4 -1.56,-15.43l-4.88 -14.69 0.88 27.07z"/>
    <path class="fil10" d="M2388.54 2117.79c39.81,5.29 107.42,1.32 150.2,1.32 24.35,0 48.71,0 73.06,0 17.36,0 61.1,-4.43 72.86,3.75 8.77,2.76 3.74,2.12 10.73,10.5 4.54,5.44 7.3,7.88 12.08,11.87l-6.24 -28.09c-14.85,-32.15 -28.35,-135.74 -32.54,-179.36 -1.51,-15.72 -1.88,-51.62 -5.91,-63.61 -7.39,10.8 -2.24,25.08 -6.32,33.96 -6.01,82.14 -117.62,82 -137.52,19.1 -9.09,-13.34 -5.09,-35.75 -4.67,-53.76l-7.93 1.38c10.79,18.31 -4.31,-10.21 -40.91,44.72 -13.1,19.66 -21.19,37.65 -30.55,59.92 -16.87,40.13 -36.55,92.7 -46.35,138.29z"/>
    <path class="fil13" d="M2516.17 2865.79l1.88 8.43c29.62,0.54 144.91,2.4 169.07,-3.21 3.21,-0.9 4.37,-1.09 8.73,-2.98l-0.83 -10.68 -53.95 -257 -78.01 -1.34c-6.45,32.32 -49.22,252.79 -46.88,266.78z"/>
    <path class="fil10" d="M2702.83 1972.05l25.85 156.39 5.74 -1.79 24.35 -14.41c8.33,-5.05 17.97,-8.92 24.34,-17.09 6.44,-2.36 17.39,-9.66 23.39,-13.55 8.17,-5.3 14.05,-9.58 23.6,-14.23 16.19,-7.88 32.32,-23.84 49,-27.24 3.77,-5.96 6.87,-5.76 12.24,-12.1 -27.1,-34.1 -55.29,-68.91 -80.35,-98.43 -36.11,-42.54 -46.21,-63.1 -122.74,-49.29l14.58 91.74z"/>
    <path class="fil11" d="M1084.71 1871.73c-3.94,7.53 -3.22,3.8 -9.38,10.11 5.92,7.25 14.35,11.88 21.87,18.13 52.04,43.28 85.38,123.37 95,189.74 23.59,-11.6 44.35,-33.31 59.91,-53.27 12.59,-16.16 42.47,-55.38 34.82,-76.21 -18.03,-48.98 -56.92,-89.3 -95.44,-116.79 -6.79,-4.84 -12.89,-9.36 -21,-14.31 -22,-13.42 -15.58,-5.38 -18.33,-16.19 -9.09,15.46 -51.32,55.96 -67.45,58.8z"/>
    <path class="fil14" d="M2512.01 2361.5c12.25,3.67 15.33,7.76 13.22,23.36 -25.75,13.13 -34.76,-15.05 -55.89,-17.85 1.58,15.06 13.57,10.8 8.19,33.93 -18.78,2.2 -15.76,0.29 -30.96,-11.62 -1.63,-1.28 -3.37,4.3 -6.07,-8.44l-12.37 -10.34c-7.98,-5.5 -8.33,-5.45 -20.39,-6.43 -2.87,-5.31 0.02,-3.32 -9.1,-6.68 -14.13,-5.21 -25.6,-19.46 -30.5,-35.2 -7.89,-0.97 -26.73,-10.74 -34.42,-15.96l-8.7 -4.96 -6.33 43.42c-1.73,10.6 -4.16,9.28 -3.04,21.02l120.83 49.04c20.75,6.86 50.86,7.95 71.73,0.75 24.89,-8.59 29.1,-27.61 39.1,-45.39l68.63 0.97c10.08,25.04 21.04,37.59 49.56,41.87 47.6,7.14 96.13,-23.41 130.54,-49.33l50.76 -39.45 -4.9 -22.88c-8.55,-1.22 -17.16,4.49 -24.33,8.19 -56.66,29.27 -26.49,43.39 -64.61,48.98 -12.4,1.82 -21.52,7.76 -29.93,15.12 -2.35,2.05 -3.41,2.75 -5.52,4.69 -2.28,2.09 -1.2,1.38 -3.74,3.75 -6.64,6.2 -20.81,14.76 -29.92,17.22 -0.53,-11.8 0.5,-20.88 6.92,-30.44 8.49,-12.64 4.37,1.01 8.05,-8.11 -12.25,-9.82 -24.61,7.44 -30.48,11.29l-16.29 9.14c-13.71,8.79 -24.22,3.51 -13.06,-13.07 17.49,-25.99 31.86,-16.01 22.2,-36.18 -8.14,0.58 -8.92,5.39 -21.56,7 -4.08,0.52 -11.29,0.65 -15.29,0.11l-11.01 -3.49c-1.96,-18.94 2.61,-14.91 17.42,-21.1 26.72,-11.18 18.75,-2.71 25.2,-11.66 -3.56,-6.83 -0.8,-3.09 -8.53,-5.81l-30.09 -5.39c-15.27,-0.9 -30.81,-2.42 -43.2,-2.94 -28.52,-1.2 -25.43,-1.44 -39.95,4.1 -16.02,6.11 -30.13,-4.09 -38.65,7.52 6.15,8.89 51.12,6.64 51.07,35.29 -22.79,12.37 -46.07,-6.99 -58.07,0 2.21,9.67 12.79,17.57 20.83,23.75l2.67 2.22z"/>
    <path class="fil15" d="M2698.18 2194.46c5.45,2.83 26.98,27.66 31.39,32.67 8.73,-2.37 4.88,6.15 6.44,-9.28 -7.62,-7.5 -14.63,-16.28 -22.08,-24.79 -12.83,-14.67 -5.33,-16.1 -31.38,-16.64 -38.75,0.3 -279.66,3.47 -295.05,-2.34 5.72,15.36 26.51,40.59 36.93,58.9 17.72,-0.06 65.31,-16.18 77.11,-3.87 9.15,12.36 -6.08,20.82 -13.5,27.8 -2.24,2.1 -2.11,1.91 -4.04,3.97 -3.01,3.2 -1.52,1.38 -4.14,4.81 20.08,1.28 50.01,3.46 66.05,17.03 0.43,0.37 0.97,0.9 1.37,1.28l59.47 5.36c0.48,-0.77 1.09,-2.47 1.32,-2.02 0.22,0.43 0.99,-1.37 1.29,-1.78 0.29,-0.39 0.89,-1.23 1.24,-1.69l7.06 -7.69c4.54,-2.9 12.02,-3.95 17.34,-5.07 7.25,-1.52 11.72,-2.3 19.71,-2.82 20.04,-1.31 16.12,-1.82 21.2,-6.63 -0.29,-0.09 -13.31,-6.03 -18.46,-12.1 -4.85,-5.72 -14.61,-26.26 17.32,-25 7.88,0.31 13.11,1.34 19.68,2.62 1.75,-10.45 -0.62,-25.24 3.73,-32.71z"/>
    <path class="fil16" d="M623.95 2287.73c-1.34,21.18 -13.9,61.54 -1.21,76.93 11.84,14.36 39.14,21.71 59.53,24.38l0.66 4.74c5.95,-7.45 31.18,-102.37 31.62,-106.11 -7.43,-13.47 -4.17,5.56 -8.34,-10.64 -1.56,-6.06 0.67,-10.83 2.9,-14.63 8.13,-13.81 8.86,-3.26 18.48,-15.21l35.52 -124.73c-18.91,7.85 -24.74,16.54 -61.87,7.41 -28.67,-7.05 -38.7,-17.78 -50.04,-22.27 8.91,13.95 -0.31,45.27 -5.1,66.44l-22.15 113.7z"/>
    <path class="fil17" d="M786.14 2872.49c4.58,6.22 11.92,19.71 19.2,22.58 16.1,6.43 83.24,1.26 105.85,1.27 35.89,0.01 72.61,0.87 108.34,0.04l0.01 -6.51c1.64,-9.13 -12.39,-82.87 -15.15,-96.35l-17.13 0.15c-26.32,-0.7 -55.28,2.92 -83.7,2.35 -24.54,-0.49 -58.23,-6.69 -78.67,-5.8 -9.71,5.85 -16.02,28.02 -21.3,40.28 -4.73,10.97 -15.34,32.8 -17.44,42z"/>
    <path class="fil18" d="M727.59 2247.19c-9.62,11.95 -10.36,1.39 -18.48,15.21 -2.24,3.8 -4.46,8.57 -2.9,14.63 4.17,16.2 0.91,-2.82 8.34,10.64 36.51,-3.33 65.92,7.28 104.43,-39.19 61.08,-73.71 84.54,-256.73 86.18,-351.51l2.87 0.58c2.98,-7.03 -0.77,-5.22 10.84,-5.79 1.8,-13.4 2.41,-23.2 -1.59,-36.16 -26.63,-0.19 -104.23,-5.38 -123.05,2.33 -0.08,0.48 0.1,0.8 0.17,1.44 0.61,5.71 8.06,8.57 12.47,10.68 29.64,14.25 44.5,15.54 63.83,24.39 7.45,59.4 -14.69,167.54 -29.56,217.23 -16.54,55.25 -55.71,122.9 -111.34,138.38 -4.14,-3.63 -0.38,2.45 -2.19,-2.87z"/>
    <path class="fil6" d="M987.25 2793.67l17.13 -0.15c2.77,13.48 16.79,87.22 15.15,96.35 7.34,7.25 6.18,18.77 6.5,32.92 0.21,9.24 -1.77,24.07 2.43,31.45l-2.34 -56.33 145.32 -0.58c-10.78,-12.47 -5.07,-49.11 -5.07,-67.79 -0,-19.35 -3.07,-55.59 1.45,-72.59 -28,5.69 -57.12,15.57 -87.68,22.09 -17.43,3.72 -85.19,11.38 -92.89,14.64z"/>
    <path class="fil19" d="M2387.5 2174.07c15.39,5.81 256.3,2.63 295.05,2.34l-0.71 -37.6c8.3,3.88 51.96,54.64 59.86,63.49l7.95 -1.33 -0.56 -5.62c-7.86,-8.49 -37.38,-41.05 -41.62,-50.12 -4.78,-4 -7.53,-6.43 -12.08,-11.87 -6.99,-8.38 -1.96,-7.73 -10.73,-10.5 -48.53,-4.02 -212.41,-1.2 -281.98,-1.11 -25.38,0.03 -55.84,-6.21 -31.85,28.45l16.67 23.87z"/>
    <path class="fil10" d="M2276.67 2040.1c21.52,2.05 78.69,54.1 92.67,47.65 7.48,-41.4 22.1,-85.66 38.21,-120.46 8.65,-18.69 15.95,-32.78 27.24,-50.85 8.75,-13.99 26.67,-34.56 31.14,-45.46 -31.17,3.92 -54.48,-4.53 -76.6,12.64 -4.91,3.81 -15.37,16.35 -20.34,22.4l-102.96 122.01 10.63 12.07z"/>
    <path class="fil6" d="M651.7 2853.16c20.43,-3.81 105.9,16.61 134.44,19.33 2.1,-9.19 12.71,-31.02 17.44,-42 5.28,-12.25 11.58,-34.43 21.3,-40.28 -8.94,-6.03 -32.93,-6.85 -43.99,-9.68 -12.97,-3.31 -27.26,-6.99 -41.25,-11.46 -27.76,-8.86 -47.86,-19.49 -74.15,-30.46 3.84,30.41 -17.51,79.45 -13.79,114.54z"/>
    <path class="fil20" d="M2640.21 1871.78l17.29 1.02 -1.04 35.34c4.08,-8.89 -1.08,-23.16 6.32,-33.96 4.03,11.99 4.4,47.89 5.91,63.61 4.19,43.62 17.68,147.21 32.54,179.36 4.45,-25.16 -2.35,-46.23 -2.07,-71.46l-0.25 -65.47c2.42,-9.49 -0.27,-3.2 3.92,-8.16l-14.58 -91.74c76.53,-13.81 86.64,6.76 122.74,49.29 25.06,29.52 53.26,64.33 80.35,98.43 -5.38,6.34 -8.48,6.13 -12.24,12.1 12.63,10.56 30.49,27.21 38.82,44.38l0.6 -7c-2.85,-15.87 -54.22,-107.53 -67.14,-130.4 -28.74,-50.84 -49.1,-98.36 -108.03,-89.95 -14.93,1.74 -37.14,-0.5 -53.45,-0.39 -17.51,0.12 -33.39,0.94 -50.69,2.16l1 12.86z"/>
    <path class="fil21" d="M641.35 2897.6c-0.99,12.78 1.35,10.99 16.47,14.38 30.22,6.77 158.74,45.67 169.58,35.32 14.19,-13.54 -15.47,-38.78 -22.06,-52.22 -7.28,-2.88 -14.62,-16.37 -19.2,-22.58 -28.54,-2.72 -114.01,-23.14 -134.44,-19.33l-10.35 44.43z"/>
    <path class="fil2" d="M945.02 1697.85c6.12,48.12 97.56,104.71 159.68,32.36 9.69,-11.29 26.73,-37.7 28.3,-57.78l-181.53 22.2c-4.63,1.71 -3.68,1.17 -6.44,3.21z"/>
    <path class="fil22" d="M2687.13 2871.01c-5.1,7.8 -17.88,15.12 -27.17,21.87 -9.84,7.15 -23.95,13.44 -15.41,30.34 15.08,11.69 158.06,10.66 189.45,9.97l2.35 -58.45c-26.6,-1.47 -50.86,-1.66 -77.15,-3.34 -12.97,-0.83 -26.14,-0.77 -39.19,-1.02 -23.45,-0.44 -19.96,-2.03 -22.91,-7.38 -0.57,-1.03 -0.34,-2.43 -2.08,-5.65l0.83 10.68c-4.36,1.89 -5.52,2.08 -8.73,2.98z"/>
    <path class="fil18" d="M1028.19 1886.23l1.87 10.44 12.65 2.16c52.04,-12.49 128.87,208.52 144.28,261.7 5.4,18.64 0.58,30.21 10.22,47.69 1.66,-45.61 -1.95,-75.65 -5.01,-118.52 -9.62,-66.37 -42.96,-146.47 -95,-189.74 -7.52,-6.25 -15.94,-10.88 -21.87,-18.13 6.17,-6.31 5.44,-2.58 9.38,-10.11 -10.14,-5.82 -41.66,-8.23 -54.76,-7.02l-1.76 21.51z"/>
    <path class="fil23" d="M2352.87 2876.38c-9.51,12.86 -46.51,27.43 -37.1,45.34 14.38,13.45 65.92,8.73 90.77,10.15 24.55,1.4 78.44,3.85 101.15,0.41l2.22 -56.66 -134.94 -0.47c-7.76,-3.43 -3.74,3.82 -5.99,-9l-3.32 0c-1.59,3.93 1.84,1.52 -5.08,7.06 -9.39,7.52 -1.04,2.06 -7.71,3.16z"/>
    <path class="fil21" d="M1028.46 2954.24c14.15,5.62 81.54,0.8 101.92,0.43 26.31,-0.47 72.15,3.18 89.38,-10.29 10.65,-18.06 -29.32,-31.16 -38.6,-43.12l-9.72 -3.93 -145.32 0.58 2.34 56.33z"/>
    <path class="fil24" d="M2841.89 2301.34l4.9 22.88c0.23,0.36 16.36,57.83 18.42,65.24l40.71 -10.01c14.55,-7.28 23.01,-11.43 27.58,-26.95 0.77,-33.02 -11.98,-85.63 -17.2,-118.39l-4.68 -6.49c-3.01,3.65 -5.6,7.6 -8.7,10.94 -12.06,13 -11.94,16.37 -25.3,27.69 -15.4,13.05 -33.95,24.02 -35.73,35.09z"/>
    <path class="fil9" d="M690.01 1760.81c1.17,7.94 2.98,15.88 4.9,24.5 0.87,3.91 1.85,9.06 2.9,12.79 2.75,9.81 -0.67,7.22 5.97,9.55l10.6 -9.11 17.36 18.32c21.59,13.72 39.19,41.15 64.24,39.91 20.93,-1.03 97.7,1.45 105.88,-5.13 -51.73,-7.52 -107.37,-52.84 -122.84,-86.83 -18.84,4.62 -25.07,14.37 -50.57,7.59 -18.89,-5.02 -26.13,-15.08 -40.04,-22.53l1.59 10.95z"/>
    <path class="fil5" d="M2534.62 1914.67c-2.2,26.4 36.14,50.9 68.93,39.46 12.53,-4.37 24.77,-15.08 30.49,-27.31 7.49,-16.03 4.97,-36.06 6.17,-55.04l-1 -12.86c17.29,-1.21 33.17,-2.03 50.69,-2.16 16.31,-0.11 38.52,2.13 53.45,0.39l-3.86 -1.48c-3,-0.74 -3.16,-0.94 -6.66,-1.37 -3.44,-0.43 -9.05,-0.46 -12.66,-0.54 -20.73,-0.47 -69.4,1.88 -81,-0.37l-0.07 7.17c-30.15,13.03 -74.16,9.01 -107.9,1.45 1.83,13.08 7.58,35.06 3.43,52.65z"/>
    <path class="fil6" d="M921.34 1891.71c-0.05,28.99 -3.75,87.52 52.82,88.27 62.39,0.82 54.44,-67.55 55.9,-83.31l-1.87 -10.44c-16.68,0.1 -35.41,3.88 -54.02,4.36 -13.2,0.34 -44.21,-4.28 -52.83,1.12z"/>
    <path class="fil20" d="M2471.69 1870.39l-5.76 0.59c-4.47,10.9 -22.4,31.47 -31.14,45.46 -11.3,18.07 -18.59,32.16 -27.24,50.85 -16.11,34.8 -30.73,79.05 -38.21,120.46 0.24,8 -1.16,23 -1.1,24.18 0.49,10.28 10.2,8.1 20.31,5.86 9.81,-45.6 29.48,-98.17 46.35,-138.29 9.36,-22.26 17.45,-40.26 30.55,-59.92 36.61,-54.93 51.7,-26.41 40.91,-44.72l7.93 -1.38c0.09,-7.81 1.5,-2.87 -3.27,-7.27l-39.32 4.18z"/>
    <path class="fil25" d="M2599.21 1696.1c-24.17,-0.62 -83.92,-9.68 -102.61,-4.97 -12.92,2.13 -28.54,-1.49 -42.22,-2.37 6.64,28.37 42.9,53.81 79.25,54.53 20.02,0.4 38.52,-5.32 51.66,-13.86l32.03 -29.08 -15.59 -2.99c-0.78,-0.32 -1.74,-0.74 -2.52,-1.27z"/>
    <path class="fil18" d="M651.2 2107.59c11.34,4.5 21.37,15.23 50.04,22.27 37.13,9.13 42.95,0.45 61.87,-7.41l1.42 -15.08c-28.91,-5.36 -47.34,-12.93 -67.58,-25.88 -12.78,-8.18 -44.65,-30.14 -48.89,-43.18 -1.55,12.17 -3.69,10.9 -8.67,19.94 -0.33,0.6 -9.02,19.27 -9.03,19.3 -4.34,14.2 12.62,24.93 20.84,30.03z"/>
    <path class="fil26" d="M2496.6 1691.13c18.69,-4.7 78.44,4.35 102.61,4.97 16.68,0.35 19.44,3.14 27.01,-8.92 3.38,-5.39 8.87,-14.2 9.23,-20.59l-191.03 -7.73 6.15 26.15 39.9 3.53c9,2.53 2.23,0.01 6.13,2.58z"/>
    <path class="fil27" d="M2701.23 2117.14l6.24 28.09c4.24,9.07 33.75,41.63 41.62,50.12l8.59 -0.48 7.31 -14.77c0.35,-8.97 -9.56,-18.12 -14.19,-26.35 -5.15,-9.15 -5.93,-22.87 -16.38,-27.09l-5.74 1.79 -25.85 -156.39c-4.2,4.96 -1.5,-1.34 -3.92,8.16l0.25 65.47c-0.28,25.24 6.53,46.3 2.07,71.46z"/>
    <path class="fil28" d="M1155.85 1805.99l-3.7 6.94c2.75,10.81 -3.66,2.77 18.33,16.19 8.11,4.95 14.21,9.47 21,14.31 38.52,27.49 77.41,67.81 95.44,116.79 21.52,10.45 4.32,-41.36 -2.29,-47.68 -12.23,-20.87 -26.61,-39.13 -44.65,-57.2 -8.68,-8.69 -17.5,-15.05 -26.92,-23.35 -7.06,-6.22 -17.23,-15.04 -26.7,-21.9 -5.08,-5.01 -9.7,-7.22 -14.77,-12.05 -12.68,4.91 1.88,-0.54 -6.98,4.44 -3.38,1.9 0.03,1.86 -8.77,3.5z"/>
    <path class="fil28" d="M703.78 1807.64c-4.09,5.2 5,1.21 -7.3,5.06l-49.87 53.95c-7.42,8.43 -15.19,18.29 -21.67,28.81 -10.05,16.31 -12.07,27.21 -20.31,29.28 1.31,19.05 -4.37,18.17 -4.98,32.98 -0.23,5.68 -0.33,10.97 2.44,14.24 7.77,9.2 -1.12,1.01 9.92,-3.84 16.28,-38.24 25.6,-59.1 49.26,-86.78 12.21,-14.28 19.98,-21.55 34,-34.05 5.63,-5.02 34.39,-26.48 36.48,-30.44l-17.36 -18.32 -10.6 9.11z"/>
    <path class="fil29" d="M2518.95 1927.24c19.9,62.9 131.51,63.04 137.52,-19.1l1.04 -35.34 -17.29 -1.02c-1.2,18.98 1.32,39.02 -6.17,55.04 -5.72,12.23 -17.96,22.94 -30.49,27.31 -32.79,11.44 -71.13,-13.06 -68.93,-39.46l-4.38 -42.83 -12.37 2.45c-3.81,14.68 -2.31,37.72 1.08,52.95z"/>
    <path class="fil30" d="M2471.69 1870.39l39.32 -4.18c4.77,4.39 3.36,-0.55 3.27,7.27 -0.42,18 -4.42,40.41 4.67,53.76 -3.39,-15.24 -4.9,-38.27 -1.08,-52.95l12.37 -2.45 4.38 42.83c4.15,-17.59 -1.6,-39.58 -3.43,-52.65 33.74,7.56 77.76,11.58 107.9,-1.45l0.07 -7.17 1.27 -20.95c-17.71,-0.69 -37.75,3.34 -58.9,1.99 -9.83,-0.63 -46.67,-6.33 -49.26,-5.8l-1.47 33.09c-13.63,2.66 -51.01,1.62 -59.12,8.67z"/>
    <path class="fil28" d="M908.02 1897.55c-1.55,26.88 -1.46,52.84 11.3,72.01 8.85,13.28 30.4,27.52 54.83,27.66 26.59,0.15 45.64,-12.19 56.19,-26.47 15.36,-20.79 12.15,-42.87 12.36,-71.93l-12.65 -2.16c-1.46,15.76 6.49,84.13 -55.9,83.31 -56.56,-0.74 -52.86,-59.27 -52.82,-88.27l-2.48 0.05c-11.61,0.57 -7.86,-1.25 -10.84,5.79z"/>
    <path class="fil31" d="M916.24 1855.48l1.03 0.12c4,12.97 3.39,22.76 1.59,36.16l2.48 -0.05c8.62,-5.41 39.63,-0.78 52.83,-1.12 18.61,-0.48 37.34,-4.25 54.02,-4.36l1.76 -21.51 0.58 -13.38c-48.47,13.34 -82.96,3.29 -114.29,4.14z"/>
    <path class="fil9" d="M1030.52 1851.34l-0.58 13.38c13.1,-1.21 44.62,1.2 54.76,7.02 16.13,-2.84 58.35,-43.34 67.45,-58.8l0.03 -10.95c-20.66,16.55 -86.41,46.88 -121.66,49.36z"/>
    <path class="fil14" d="M2734.41 2126.65c10.45,4.23 11.23,17.95 16.38,27.09 4.63,8.23 14.54,17.38 14.19,26.35 3.77,-3.16 20.4,-23.99 22.8,-31.73 2.87,-9.25 1.89,-17.44 1.44,-27.18 -0.47,-10.34 -0.83,-17.14 -6.12,-26.03 -6.37,8.17 -16.01,12.04 -24.34,17.09l-24.35 14.41z"/>
    <path class="fil30" d="M2513.29 1581.46c38.16,-8.96 23.77,22.2 47.7,20.18 2.15,-19.39 -15.85,-39.51 -39.87,-37.19 -25.93,2.5 -30.25,27.81 -17.09,47.2 4.53,6.68 12.86,17.01 18.1,22.1 6.86,6.67 23.5,15.53 20.07,-0.07 -2.76,-12.55 -33.41,-23.68 -28.91,-52.22z"/>
    <path class="fil31" d="M1048.56 1605.95c8.29,22.06 -26.65,34.02 -30.18,55.56 15.37,3.16 10.16,4.82 22.01,-8.23 6.57,-7.24 13.36,-14.65 18,-22.13 12.26,-19.75 8.78,-43.78 -18.96,-46.34 -21.61,-1.99 -45.97,23.72 -38.48,35.95 11.76,19.2 18.39,-39.82 47.6,-14.81z"/>
    <path class="fil31" d="M727.44 1695.33c-2.6,10.85 -11.79,11.68 -14.16,25.93 -2.58,15.5 7.64,28.33 14.32,15.64 9.05,-17.2 -12.68,-14.42 25.2,-35.99 9.93,-5.66 7.46,-1.21 7.24,-13.73 -18.34,-7.83 -27.18,0.8 -52.55,-22.4 -7.33,-6.7 -7.24,-9.53 -19.18,-6.05 -1.75,17.52 25.1,28.85 39.14,36.6z"/>
    <path class="fil30" d="M2833.51 1718.36c12.17,-0.44 13.46,-10.64 11.16,-22.27 -1.87,-9.49 -9.46,-13.38 -13.66,-20.92 2.52,-3.23 0.23,-0.91 3.85,-3.55 1.15,-0.84 4.93,-3.08 6.3,-3.89 16.59,-9.8 30.08,-16.68 26.86,-32.21 -18.36,-1.21 -17.86,15.32 -44.12,23.03 -3.65,1.07 -19.35,4.36 -20.23,4.74 -18.29,7.94 7.86,18.08 14.14,22.34 20.24,13.72 6.08,18.2 15.69,32.74z"/>
    <path class="fil32" d="M2682.55 2176.41c26.05,0.55 18.55,1.97 31.38,16.64 7.44,8.51 14.46,17.29 22.08,24.79 4.92,0.08 2.48,0.95 5.93,-1.09l-0.24 -14.45c-7.9,-8.85 -51.55,-59.62 -59.86,-63.49l0.71 37.6z"/>
    <path class="fil33" d="M2460 1507.58c-25.58,9.48 -11.11,50.5 17.1,38.22 22.32,-9.71 10.4,-48.41 -17.1,-38.22z"/>
    <path class="fil33" d="M2649.14 1523.07c-24.02,12.9 -6.86,48.48 18.96,37.11 22.58,-9.94 8.26,-51.73 -18.96,-37.11z"/>
    <path class="fil34" d="M2440.49 2380.88c2.71,12.75 4.44,7.17 6.07,8.44 15.2,11.91 12.18,13.82 30.96,11.62 5.38,-23.13 -6.6,-18.87 -8.19,-33.93 21.13,2.8 30.14,30.98 55.89,17.85 2.11,-15.6 -0.97,-19.69 -13.22,-23.36 6.11,13.57 8.9,0.88 7.57,20.56 -25.86,-0.81 -27.13,-24.34 -59.35,-24.31 1.2,20.79 9.9,13.12 11.72,37.01 -21.08,-2.33 -8.99,-9.74 -31.46,-13.88z"/>
    <path class="fil33" d="M883.26 1546.75c31.14,-3.87 11.24,21.13 32.96,20.18 10.12,-19.6 -24.92,-49.47 -45.46,-25.35 -18.9,22.19 1.23,52.22 5.77,23.08 1.48,-9.54 2.48,-12.14 6.73,-17.91z"/>
    <path class="fil33" d="M1064.87 1564.65c10.28,-1.71 7.08,-0.89 9.71,-10.41 2.47,-8.92 2.43,-8.24 7.13,-15.37 32.58,-3.34 10.32,25.98 32.39,24.11 6.61,-17.63 -8.1,-39.02 -26.36,-38.27 -15.36,0.63 -36.16,22.5 -22.87,39.94z"/>
    <path class="fil35" d="M1074.11 1504.57c12.01,5.74 14.85,-0.25 26.28,4.26 8.85,3.49 8.37,10.62 20.9,8.45 10.14,-25.19 -50.86,-37.92 -47.18,-12.71z"/>
    <path class="fil35" d="M853.25 1526.3c15.65,2.32 13.94,-8.08 25.91,-11.85 6.84,-2.15 30.75,-0.53 19.76,-13.41 -8.75,-10.26 -49.02,0.94 -45.67,25.26z"/>
    <path class="fil36" d="M2660.58 1490.48c8.75,3.95 13.88,0.51 24.13,6 11.88,6.36 6.66,13.77 21.69,8.94 3.3,-20.46 -25.51,-28.79 -36.89,-27.7 -10.22,0.98 -9.96,2.91 -8.94,12.76z"/>
    <path class="fil36" d="M2442.29 1497.12c12.17,3.41 7.6,-2.61 18.83,-7.85 9.08,-4.24 15.52,-0.66 26.43,-3.66 3.73,-26.73 -43,-10.57 -46.81,1.42 -0,0.01 -3.01,2.27 1.55,10.08z"/>
    <path class="fil32" d="M2729.57 2227.12c-4.41,-5.01 -25.93,-29.84 -31.39,-32.67l-0.75 32.69c8.37,3.41 24.94,7.16 33.82,6.11l-1.69 -6.13z"/>
    <path class="fil37" d="M2865.2 2389.46c-0.95,3.64 2.47,24.19 8.23,31.05 1.71,-21.16 4.63,-8.85 15.63,-21.95 9.98,-11.89 10.97,-5.27 16.86,-19.12l-40.71 10.01z"/>
   </g>
  </g>
 </g>
</svg>
