<?xml version="1.0"?>
<svg xmlns="http://www.w3.org/2000/svg" enable-background="new 0 0 66 66" viewBox="0 0 66 66" fill="#ffffff">
  <path d="M6.5 34.9h9.1c.6 0 1-.4 1-1V21.7c0-.6-.4-1-1-1H6.5c-.6 0-1 .4-1 1v12.3C5.5 34.5 5.9 34.9 6.5 34.9zM7.5 22.7h7.1v10.3H7.5V22.7zM20.1 34.9h8.3c.6 0 1-.4 1-1V21.7c0-.6-.4-1-1-1h-8.3c-.6 0-1 .4-1 1v12.3C19.1 34.5 19.5 34.9 20.1 34.9zM21.1 22.7h6.3v10.3h-6.3V22.7zM32.8 34.9H41c.6 0 1-.4 1-1V21.7c0-.6-.4-1-1-1h-8.3c-.6 0-1 .4-1 1v12.3C31.8 34.5 32.2 34.9 32.8 34.9zM33.8 22.7H40v10.3h-6.3V22.7zM45.5 34.9h9.1c.6 0 1-.4 1-1v-8c0-2.9-2.4-5.3-5.3-5.3h-4.8c-.6 0-1 .4-1 1v12.3C44.5 34.5 44.9 34.9 45.5 34.9zM46.5 22.7h3.8c1.8 0 3.3 1.5 3.3 3.3v7h-7.1V22.7z"/>
  <path d="M61.2,16.2c-7,0-49,0-56.8,0c-1.9,0-3.5,1.6-3.5,3.5v24.2c0,0.6,0.4,1,1,1h4.4c0.5,2.8,2.9,4.9,5.8,4.9s5.4-2.1,5.8-4.9H43   c0.5,2.8,2.9,4.9,5.8,4.9s5.4-2.1,5.8-4.9h4.4c0.6,0,1-0.4,1-1V26c0-3.2-1.5-6-3.9-7.8h5c1,0,1.8,0.8,1.8,1.8v8.5c0,0.6,0.4,1,1,1   s1-0.4,1-1V20C65,17.9,63.3,16.2,61.2,16.2z M12.3,47.8c-2.2,0-3.9-1.8-3.9-3.9s1.8-3.9,3.9-3.9s3.9,1.8,3.9,3.9   S14.4,47.8,12.3,47.8z M48.8,47.8c-2.2,0-3.9-1.8-3.9-3.9s1.8-3.9,3.9-3.9s3.9,1.8,3.9,3.9S51,47.8,48.8,47.8z M58.1,26v16.9h-3.4   c-0.5-2.8-2.9-4.9-5.8-4.9s-5.4,2.1-5.8,4.9H18.1c-0.5-2.8-2.9-4.9-5.8-4.9s-5.4,2.1-5.8,4.9H3V19.7c0-0.8,0.7-1.5,1.5-1.5h45.9   C54.6,18.2,58.1,21.7,58.1,26z"/>
</svg>
