<?xml version="1.0"?>
<svg xmlns="http://www.w3.org/2000/svg" enable-background="new 0 0 512 512" viewBox="0 0 512 512" fill="#ffffff">
  <path d="M51.6,435.8c-10.4,0-20.7,0-31.1,0c2,2,4,4,6,6c0-39.3,0-78.6,0-117.9c-2,2-4,4-6,6c11.2,0,22.7-0.7,33.8,0.1     c9.9,0.8,17.4,10.6,17.4,20.1c0,3.7,0,7.4,0,11.2c0,14.9,0,29.8,0,44.7c0,3.2,0,6.5,0,9.7C71.8,426.8,62.6,435.5,51.6,435.8     c-7.7,0.2-7.7,12.2,0,12c11.7-0.3,22-6.2,28-16.3c3.5-5.8,4.2-12.4,4.2-19c0-14.3,0-28.5,0-42.8c0-12.7,1.8-26.7-5.6-37.8     c-5.9-8.8-16.2-14.1-26.8-14.1c-6.3,0-12.5,0-18.8,0c-4,0-8.1,0-12.1,0c-3.3,0-6,2.7-6,6c0,39.3,0,78.6,0,117.9c0,3.3,2.7,6,6,6     c10.4,0,20.7,0,31.1,0C59.3,447.8,59.3,435.8,51.6,435.8z"/>
  <path d="M77.8,388.8c40.1,0,80.2,0,120.2,0c7.7,0,7.7-12,0-12c-40.1,0-80.2,0-120.2,0C70,376.8,70,388.8,77.8,388.8L77.8,388.8z"/>
  <path d="M253.8,382.8c-0.3,13.8-11.1,24.6-24.9,24.9c-13.8,0.3-24.6-11.5-24.9-24.9c-0.3-13.8,11.5-24.6,24.9-24.9     C242.7,357.6,253.5,369.5,253.8,382.8c0.2,7.7,12.2,7.7,12,0c-0.4-20.4-16.5-36.5-36.9-36.9c-20.4-0.4-36.5,17.2-36.9,36.9     c-0.4,20.4,17.2,36.5,36.9,36.9c20.4,0.4,36.5-17.2,36.9-36.9C266,375.1,254,375.1,253.8,382.8z"/>
  <path d="M234.9,351.9c0-12,0-24,0-36c0-7.7-12-7.7-12,0c0,12,0,24,0,36C222.9,359.6,234.9,359.6,234.9,351.9L234.9,351.9z"/>
  <path d="M182.9,261.6c0,18.1,0,36.2,0,54.3c0,3.3,2.7,6,6,6c26.7,0,53.3,0,80,0c3.3,0,6-2.7,6-6c0-10.9,0-21.7,0-32.6     c0-7.7-12-7.7-12,0c0,10.9,0,21.7,0,32.6c2-2,4-4,6-6c-26.7,0-53.3,0-80,0c2,2,4,4,6,6c0-18.1,0-36.2,0-54.3     C194.9,253.9,182.9,253.9,182.9,261.6L182.9,261.6z"/>
  <path d="M353.1,300.1c-42.1-11.5-84.3-22.9-126.4-34.4c-46-12.5-92.1-25-138.1-37.6c-11.1-3-14.8-13.1-12-23.4      c2.9-10.7,5.8-21.3,8.7-32c7.3-26.8,14.6-53.7,21.9-80.5c1-3.7,1.9-7.2,4.5-10.2c4.4-5.1,11.3-6.7,17.6-5      c4.9,1.3,9.8,2.7,14.7,4c24.5,6.7,49,13.3,73.4,20c54.9,14.9,109.8,29.9,164.7,44.8c4,1.1,8,2.2,12,3.3      c-1.4-2.5-2.8-4.9-4.2-7.4c-13.1,48.1-26.2,96.2-39.2,144.2c-1.7,6.1-3.3,12.3-5,18.4c-2,7.5,9.5,10.6,11.6,3.2      c13.1-48.1,26.2-96.2,39.2-144.2c1.7-6.1,3.3-12.3,5-18.4c0.9-3.1-1-6.5-4.2-7.4c-42.1-11.5-84.3-22.9-126.4-34.4      c-46-12.5-92.1-25-138.1-37.6c-15.6-4.2-32,4.4-36.3,20.2c-2.2,8.1-4.4,16.2-6.6,24.2c-7.7,28.4-15.5,56.8-23.2,85.2      c-3.2,11.6-5.7,22.8,2.2,33.6c5.4,7.4,13.1,10.1,21.3,12.3c20.6,5.6,41.1,11.2,61.7,16.8c57.9,15.7,115.8,31.5,173.7,47.2      c8.1,2.2,16.2,4.4,24.2,6.6C357.4,313.7,360.6,302.1,353.1,300.1z"/>
  <path d="M76.7,181.8c-5.4-1.5-10.9-3-16.3-4.4c-3.4-0.9-6.9-1.9-10.3-2.8c-2-0.6-4.5-0.9-6.1-2.3c-2.7-2.5,0.2-8.9,1-11.7      c1.9-7.1,3.9-14.2,5.8-21.3c3-11.2,6.1-22.4,9.1-33.6c1.7-6.1,11.3-1.5,15.1-0.5c6.7,1.8,13.3,3.6,20,5.4      c0.3,0.1,0.6,0.2,0.9,0.3c-1.4-2.5-2.8-4.9-4.2-7.4C84.2,131,76.8,158.5,69.3,186c-2,7.5,9.5,10.6,11.6,3.2      c7.5-27.5,14.9-54.9,22.4-82.4c0.9-3.1-1-6.5-4.2-7.4c-5.4-1.5-10.9-3-16.3-4.4c-5.5-1.5-11.6-4-17.3-4.4      c-16.7-1.1-18.7,17.6-21.9,29.6c-3.8,13.9-7.6,27.8-11.3,41.7c-1.9,6.9-1.7,13.1,3.3,18.9c4,4.6,12.3,5.7,17.9,7.2      c6.7,1.8,13.4,3.6,20,5.5C81,195.4,84.1,183.8,76.7,181.8z"/>
  <path d="M301.5 198.7c-46.2-12.6-92.4-25.1-138.6-37.7-25-6.8-50-13.6-75-20.4-7.5-2-10.6 9.5-3.2 11.6 46.2 12.6 92.4 25.1 138.6 37.7 25 6.8 50 13.6 75 20.4C305.8 212.3 309 200.7 301.5 198.7L301.5 198.7zM394 278c-10.8-2.9-21.7-5.9-32.5-8.8 1.4 2.5 2.8 4.9 4.2 7.4 9.1-33.6 18.3-67.2 27.4-100.8-2.5 1.4-4.9 2.8-7.4 4.2 10.8 2.9 21.7 5.9 32.5 8.8-1.4-2.5-2.8-4.9-4.2-7.4-9.1 33.6-18.3 67.2-27.4 100.8-2 7.5 9.5 10.6 11.6 3.2 9.1-33.6 18.3-67.2 27.4-100.8.9-3.1-1-6.5-4.2-7.4-10.8-2.9-21.7-5.9-32.5-8.8-3.1-.9-6.5 1-7.4 4.2-9.1 33.6-18.3 67.2-27.4 100.8-.9 3.1 1 6.5 4.2 7.4 10.8 2.9 21.7 5.9 32.5 8.8C398.3 291.6 401.5 280 394 278z"/>
  <path d="M454.7,316.1c-11.9-3.2-23.8-6.5-35.7-9.7c-4.2-1.1-8.3-2.3-12.5-3.4c-7.4-2-10.6-9.4-8.7-16.4      c6.9-25.5,13.9-51,20.8-76.6c2.1-7.9,4.3-15.7,6.4-23.6c0.4-1.3,0.7-2.6,1.1-3.9c1.8-6.7,8.9-10.7,15.6-8.9      c16,4.4,32,8.7,48.1,13.1c-1.4-2.5-2.8-4.9-4.2-7.4c-12.5,45.9-25,91.8-37.5,137.7c-0.3,1.1-0.6,2.2-0.9,3.3      c-2,7.5,9.5,10.6,11.6,3.2c12.5-45.9,25-91.8,37.5-137.7c0.3-1.1,0.6-2.2,0.9-3.3c0.9-3.1-1-6.5-4.2-7.4      c-11.9-3.2-23.8-6.5-35.7-9.7c-4.2-1.1-8.3-2.3-12.5-3.4c-11.5-3.1-23.6,2.6-28.7,13.2c-3.7,7.6-5,16.9-7.2,25      c-4.2,15.3-8.3,30.5-12.5,45.8c-2.9,10.6-5.7,21.1-8.6,31.7c-0.6,2.1-1.2,4.3-1.7,6.4c-2.3,8.5,0.1,16.7,5.6,23.3      c6.7,8,21,9.6,30.5,12.2c9.8,2.7,19.6,5.3,29.3,8C459,329.7,462.2,318.1,454.7,316.1z"/>
</svg>
