<?xml version="1.0"?>
<svg xmlns="http://www.w3.org/2000/svg" viewBox="0 0 32 32" fill="#ffffff">
  <path d="M4.974 32a.5.5 0 0 0 .5-.5v-4.28c0-1.216.616-2.327 1.649-2.97l3.131-1.951A7.523 7.523 0 0 0 16.001 25a7.52 7.52 0 0 0 5.745-2.699l3.13 1.949a3.48 3.48 0 0 1 1.65 2.971V31.5a.5.5 0 0 0 1 0v-4.279a4.475 4.475 0 0 0-2.121-3.82l-5.908-3.679v-2.529a5.493 5.493 0 0 0 2.003-4.242v-1.003l.174-.285c.369-.802.556-1.66.556-2.549a6.117 6.117 0 0 0-3.541-5.539c.196-.335.311-.7.311-1.075C19 1.122 17.654 0 16 0s-3 1.122-3 2.5c0 .411.134.805.362 1.162a6.118 6.118 0 0 0-2.871 7.86c.002.005.007.008.009.013v1.417c0 1.703.778 3.227 1.997 4.236v2.534l-5.903 3.679a4.476 4.476 0 0 0-2.12 3.819v4.28a.5.5 0 0 0 .5.5zm11.027-8a6.522 6.522 0 0 1-4.892-2.234l.859-.536A5.458 5.458 0 0 0 16.001 23a5.539 5.539 0 0 0 4.029-1.768l.86.535A6.514 6.514 0 0 1 16.001 24zM14 2.5c0-.827.897-1.5 2-1.5s2 .673 2 1.5c0 .294-.12.537-.262.723-.018-.006-.038-.007-.056-.012a5.983 5.983 0 0 0-.712-.144c-.044-.006-.087-.015-.13-.02A6.219 6.219 0 0 0 16.114 3l-.06.003c-.045 0-.09.005-.135.007a5.915 5.915 0 0 0-.826.083c-.27.046-.536.102-.793.182A1.224 1.224 0 0 1 14 2.5zm.722 1.717c.144-.041.286-.091.431-.12.298-.057.604-.09.918-.093.092-.001.183.015.274.019.226.01.45.029.668.068.135.024.269.063.403.098 2.188.58 3.813 2.558 3.813 4.926 0 .375-.04.743-.115 1.094l-.01-.002a2.922 2.922 0 0 0-2.486-1.391 8.194 8.194 0 0 1-4.845-1.569.5.5 0 0 0-.698.111.494.494 0 0 0 .018.598 4.393 4.393 0 0 0-2.024 1.847c-.031-.228-.069-.455-.069-.688 0-2.335 1.581-4.287 3.722-4.898zM11.5 12.952v-.967a3.416 3.416 0 0 1 2.626-3.336 9.197 9.197 0 0 0 4.492 1.168c.926 0 1.7.658 1.882 1.53v1.605a4.501 4.501 0 0 1-2.676 4.106 4.84 4.84 0 0 1-.199.079c-.144.056-.294.097-.444.138-.15.038-.299.08-.452.103-.038.006-.077.006-.115.012a4.812 4.812 0 0 1-1.211.002c-.047-.006-.096-.007-.142-.014-.143-.022-.284-.062-.425-.097-.165-.045-.33-.089-.488-.152-.052-.019-.104-.041-.156-.062a4.504 4.504 0 0 1-2.692-4.115zm3.038 5.296c.081.021.16.045.242.062.393.089.8.141 1.22.141.424 0 .835-.053 1.231-.144.059-.013.118-.031.177-.046a5.02 5.02 0 0 0 .318-.092c.263-.083.523-.179.772-.302V20h.009c0 .167.075.33.227.424l.433.27A4.542 4.542 0 0 1 16.001 22a4.469 4.469 0 0 1-3.17-1.308l.43-.268a.494.494 0 0 0 .227-.424h.009v-2.131c.258.127.527.225.799.31.08.025.161.047.242.069z"/>
  <path d="M9.5 32a.5.5 0 0 0 .5-.5v-2.393c0-.934-.347-1.827-.977-2.516l-.673-.737a.5.5 0 1 0-.738.674l.673.738A2.72 2.72 0 0 1 9 29.107V31.5a.5.5 0 0 0 .5.5zM24.355 25.821a.5.5 0 0 0-.706.032l-.674.738A3.729 3.729 0 0 0 22 29.107V31.5a.5.5 0 0 0 1 0v-2.393c0-.683.254-1.337.714-1.842l.674-.737a.5.5 0 0 0-.033-.707z"/>
</svg>
