<?xml version="1.0" encoding="UTF-8"?>
<!DOCTYPE svg PUBLIC "-//W3C//DTD SVG 1.1//EN" "http://www.w3.org/Graphics/SVG/1.1/DTD/svg11.dtd">
<!-- Creator: CorelDRAW 2019 (64-Bit) -->
<svg xmlns="http://www.w3.org/2000/svg" xml:space="preserve" width="162.916mm" height="42.8918mm" version="1.1" style="shape-rendering:geometricPrecision; text-rendering:geometricPrecision; image-rendering:optimizeQuality; fill-rule:evenodd; clip-rule:evenodd"
viewBox="0 0 6158 1621.25"
 xmlns:xlink="http://www.w3.org/1999/xlink">
 <defs>
  <style type="text/css">
   <![CDATA[
    .fil5 {fill:#FECC00}
    .fil0 {fill:#EF7F1A}
    .fil4 {fill:#EF7F1A}
    .fil1 {fill:#E31E24}
    .fil8 {fill:#E31E24}
    .fil6 {fill:#B0CB1F}
    .fil7 {fill:#009846}
    .fil2 {fill:#393185}
    .fil3 {fill:#393185}
    .fil9 {fill:#393185}
   ]]>
  </style>
 </defs>
 <g id="Layer_x0020_1">
  <metadata id="CorelCorpID_0Corel-Layer"/>
  <g id="_1774058447200">
   <g>
    <path class="fil0" d="M818.3 0c451.94,0 818.3,368.47 818.3,823 0,163.54 -47.43,315.94 -129.21,444.04 54.57,-106.67 85.38,-227.64 85.38,-355.86 0,-430.19 -346.74,-778.92 -774.47,-778.92 -427.73,0 -774.47,348.73 -774.47,778.92 0,128.21 30.81,249.17 85.37,355.83 -81.77,-128.1 -129.2,-280.49 -129.2,-444.02 0,-454.53 366.36,-823 818.3,-823z"/>
    <path class="fil1" d="M464.35 1526.04c0,1.49 -0.99,2.49 -3.01,3.07 -2.43,0.67 -9.93,0.95 -22.46,0.95 -11.54,0 -18.92,-0.29 -22.22,-0.95 -2.76,-0.58 -4.45,-2.4 -5.15,-5.51 -2.56,-11.81 -4.57,-18.15 -6.02,-18.94 -1.32,-0.46 -12.12,-0.66 -32.44,-0.66 -13.68,0 -20.97,0.37 -21.87,1.07 -1.4,1.29 -3.01,5.64 -4.74,13.06 -1.6,6.75 -3.46,10.4 -5.65,10.98 -2.72,0.67 -11.9,0.95 -27.53,0.95 -12.32,0 -18.46,-1.16 -18.46,-3.52 0,-2.11 9.06,-27.97 27.2,-77.62 19.62,-53.72 30.29,-83.23 31.98,-88.57 0.99,-3.02 2.1,-4.52 3.38,-4.52 2.22,0 5.6,0.21 10.18,0.58 4.57,0.41 7.99,0.62 10.26,0.62 2.18,0 5.4,-0.12 9.64,-0.42 4.24,-0.29 7.42,-0.46 9.52,-0.46 1.57,0 2.96,1.37 4.29,4.03 3.91,8.49 15.41,37.63 34.41,87.45 19.12,50.15 28.68,76.26 28.68,78.41zm-85.55 -110.66c-1.69,3.56 -4.57,11.31 -8.65,23.2 -4.2,12.6 -6.3,19.98 -6.3,22.13 0,1.49 2.39,2.32 7.13,2.49 2.47,0.17 6.51,0.25 12.15,0.25 5.27,0 8.16,-0.66 8.74,-1.95 0.12,-0.41 0.2,-0.95 0.2,-1.69 0,-2.66 -1.77,-9.99 -5.31,-22.01 -3.63,-11.68 -6.26,-19.15 -7.96,-22.42zm217.17 110.2c0,2.2 -1.12,3.44 -3.38,3.77 -2.27,0.33 -8.16,0.5 -17.64,0.5 -10.18,0 -16.45,-0.25 -18.88,-0.74 -2.39,-0.46 -3.62,-2.11 -3.62,-4.97 0,-3.81 0.12,-9.53 0.36,-17.24 0.25,-7.67 0.38,-13.47 0.38,-17.36 0,-2.99 -0.08,-7.46 -0.25,-13.43 -0.17,-5.93 -0.25,-10.4 -0.25,-13.43 0,-11.06 -4.78,-16.62 -14.38,-16.62 -3.13,0 -6.8,1.36 -11,4.15 -4.49,3.06 -6.77,6.09 -6.77,9.08l0 65.6c0,2.66 -1.23,4.15 -3.75,4.48 -2.8,0.33 -8.53,0.5 -17.22,0.5 -9.39,0 -15.49,-0.25 -18.29,-0.74 -2.51,-0.37 -3.75,-1.74 -3.75,-3.98 0,-6.34 0.04,-15.83 0.12,-28.56 0.08,-12.69 0.12,-22.26 0.12,-28.64 0,-20.14 -1.56,-35.97 -4.7,-47.5 -0.17,-0.7 -0.25,-1.32 -0.25,-1.82 0,-1.29 0.62,-2.15 1.81,-2.65 5.02,-0.58 11.79,-1.45 20.19,-2.69 12.73,-2.53 19.9,-3.77 21.52,-3.77 0.9,0 1.6,2.73 2.1,8.21 0.49,5.47 1.19,8.21 2.09,8.21 -0.86,0 3.47,-2.82 12.99,-8.46 9.56,-5.63 17.92,-8.45 25.09,-8.45 10.22,0 18.75,2.45 25.59,7.3 7.67,5.59 11.49,13.34 11.49,23.33l0 38.71c0,5.26 0.04,13.14 0.12,23.62 0.08,10.48 0.12,18.36 0.12,23.62zm154.25 -75.8c0,17.9 -8.74,31.5 -26.21,40.78 -1.61,0.83 -2.39,1.66 -2.39,2.57 0,1.37 3.71,7.09 11.21,17.2 7.46,10.07 11.21,15.38 11.21,15.87 0,2.12 -10.67,3.15 -31.98,3.15 -8.2,0 -12.93,-1.04 -14.22,-3.07 -3.25,-5.39 -8.32,-13.14 -15.16,-23.25 -0.41,-0.5 -7.58,-1.12 -21.47,-1.78 0,2.53 0.04,6.55 0.12,12.06 0.08,5.51 0.13,9.57 0.13,12.27 0,2.45 -1.2,3.77 -3.5,4.02 -1.48,0.17 -7.87,0.25 -19.16,0.25 -9.76,0 -15.45,-0.16 -17.1,-0.5 -2.18,-0.41 -3.25,-2.07 -3.25,-4.97l0 -74.32c0,-9.99 -0.37,-24.87 -1.12,-44.68 -0.74,-19.85 -1.11,-34.69 -1.11,-44.59 0,-1.95 1.07,-2.94 3.25,-3.02 4.29,0 10.67,-0.08 19.2,-0.25 2.27,-0.17 6.18,-0.62 11.74,-1.41 4.91,-0.7 8.78,-1.07 11.58,-1.07 1.28,0 1.94,1.16 1.94,3.52 0,3.07 -0.24,7.25 -0.7,12.52 -0.57,6.13 -0.86,10.36 -0.94,12.6 -0.7,17.41 -1.07,30.92 -1.07,40.45 0,2.28 0.29,3.44 0.86,3.52 0.71,-0.5 1.69,-1.37 2.89,-2.7 10.42,-10.98 23.16,-16.45 38.12,-16.45 14.06,0 25.22,3.23 33.51,9.7 9.11,7.21 13.64,17.74 13.64,31.58zm-47.97 7.91c0,-9.74 -5.48,-14.63 -16.48,-14.63 -4.91,0 -10.1,1.86 -15.66,5.55 -5.93,3.98 -8.9,8.29 -8.9,12.97 0,6.72 0.91,10.73 2.76,12.1 1.45,0.96 6.06,1.46 13.85,1.46 16.28,0 24.44,-5.8 24.44,-17.46zm186.68 -39c0,6.01 -0.29,15.01 -0.87,26.98 -0.58,11.98 -0.86,20.97 -0.86,26.95 0,5.84 0.2,14.58 0.62,26.23 0.42,11.69 0.62,20.39 0.62,26.15 0,2.15 -0.99,3.56 -3,4.1 -3.1,0.83 -9.56,1.24 -19.49,1.24 -8.78,0 -14.88,-0.25 -18.38,-0.74 -1.53,-0.25 -2.47,-1.2 -2.89,-2.9 -0.2,-2.4 -0.45,-4.85 -0.66,-7.25 -0.37,-3.73 -0.9,-5.6 -1.57,-5.6 1.12,0 -2.92,2.77 -12.2,8.25 -9.27,5.51 -17.72,8.25 -25.3,8.25 -21.34,0 -34.03,-9.7 -37.95,-29.06 -1.77,-8.99 -2.68,-22.01 -2.68,-39.08 0,-18.48 1.48,-33.07 4.45,-43.76 0.9,-3.31 2.56,-4.97 4.94,-4.97 3.7,0 9.35,0.04 16.94,0.12 7.54,0.08 13.19,0.13 16.9,0.13 2.51,0 3.75,1.03 3.75,3.14 0,0.58 -0.08,1.41 -0.25,2.57 -1.65,11.03 -2.47,22.17 -2.47,33.53 0,14.09 0.45,23.75 1.32,28.93 1.45,8.91 6.72,13.39 15.83,13.39 3.55,0 7.38,-1.57 11.5,-4.77 4.17,-3.15 6.3,-6.46 6.47,-9.87 0.17,-2.98 0.25,-23.33 0.25,-60.97 0,-2.69 0.21,-4.27 0.62,-4.77 0.46,-0.79 1.9,-1.2 4.34,-1.2 3.95,0 9.85,0.04 17.8,0.12 7.91,0.08 13.84,0.12 17.8,0.12 2.39,0 3.79,0.62 4.2,1.83 0.16,0.62 0.25,1.61 0.25,2.9zm99.89 34.65c0,3.19 -1.73,4.77 -5.19,4.77 -1.52,0 -3.75,-0.12 -6.68,-0.34 -2.92,-0.2 -5.11,-0.29 -6.55,-0.29 -6.63,0 -11.17,1.04 -13.56,3.15 -2.43,2.11 -3.63,6.38 -3.63,12.77 0,3.48 0.04,8.79 0.17,15.87 0.12,7.09 0.16,12.39 0.16,15.88 0,2.36 0.17,5.84 0.45,10.53 0.29,4.64 0.46,8.12 0.46,10.4 0,1.95 -1.32,3.03 -4,3.28 -3.83,0.33 -9.77,0.5 -17.72,0.5 -7.62,0 -13.72,-0.25 -18.3,-0.74 -2.68,-0.33 -4,-1.66 -4,-4.02 0,-6.46 0.04,-16.17 0.12,-29.06 0.08,-12.93 0.12,-22.63 0.12,-29.09 0,-19.02 -1.74,-34.69 -5.2,-46.96 -0.16,-0.74 -0.24,-1.36 -0.24,-1.82 0,-1.24 0.61,-2.03 1.81,-2.44 4.45,-0.5 10.96,-1.37 19.49,-2.7 12.78,-2.53 19.32,-3.76 19.74,-3.76 1.44,0 2.39,2.52 2.76,7.58 0.41,5.1 1.15,7.63 2.18,7.63 -1.12,0 2.14,-2.11 9.85,-6.38 7.71,-4.23 15.12,-6.34 22.25,-6.34 4.49,0 6.72,0.96 6.72,2.9 0,2.37 -0.25,5.68 -0.74,9.94 -0.5,4.65 -0.78,7.96 -0.87,9.95 0,2.37 0.04,5.47 0.13,9.37 0.16,4.76 0.24,7.92 0.24,9.45zm135.46 15.09c0,6.22 0.37,15.5 1.12,27.77 0.74,12.31 1.1,21.55 1.1,27.68 0,3.23 -1.4,4.97 -4.24,5.22 -9.98,0.74 -21.43,1.08 -34.33,1.08 -1.53,0 -2.55,-2.32 -3.09,-6.92 -0.49,-4.64 -1.12,-7 -1.86,-7.08 -0.66,0.33 -1.48,0.99 -2.51,2.03 -9.02,9.08 -18.67,13.63 -28.97,13.63 -15.69,0 -28.68,-6.21 -38.98,-18.69 -9.73,-11.65 -14.59,-25.57 -14.59,-41.78 0,-18.7 5.02,-33.74 15.08,-45.14 10.43,-11.81 24.77,-17.74 42.94,-17.74 12.57,0 22.54,4.43 29.88,13.31 0.33,0.42 0.62,0.62 0.87,0.62 0.74,0 1.6,-1.95 2.56,-5.84 0.94,-3.9 2.06,-5.84 3.38,-5.84 2.97,0 8.62,0.87 16.98,2.57 7.91,1.61 13.64,2.99 17.06,4.14 1.2,0.5 1.81,1.12 1.81,1.95 0,0.33 -0.13,1.16 -0.37,2.53 -2.56,14.67 -3.83,30.17 -3.83,46.5zm-38.82 0.66c0,-6.88 -2.14,-12.56 -6.47,-17.04 -4.29,-4.52 -9.89,-6.75 -16.82,-6.75 -6.92,0 -12.52,2.24 -16.81,6.67 -4.29,4.48 -6.39,10.16 -6.39,17.12 0,6.59 2.22,12.22 6.76,16.91 4.49,4.68 9.98,7.05 16.44,7.05 6.85,0 12.41,-2.24 16.78,-6.75 4.32,-4.48 6.51,-10.2 6.51,-17.2zm255.87 55.54c0,2.82 -1.19,4.4 -3.63,4.72 -2.43,0.33 -8.36,0.5 -17.88,0.5 -9.85,0 -15.95,-0.25 -18.38,-0.74 -2.43,-0.46 -3.63,-2.45 -3.63,-5.92 0,-3.73 0.12,-9.29 0.37,-16.7 0.24,-7.42 0.37,-12.98 0.37,-16.71 0,-14.17 -0.17,-24.29 -0.49,-30.25 -0.46,-9.66 -5.03,-14.46 -13.65,-14.46 -3.79,0 -7.54,1.61 -11.29,4.8 -3.75,3.19 -5.81,6.72 -6.22,10.61 -0.34,3.4 -0.5,13.39 -0.5,29.88 0,3.81 0.12,9.57 0.37,17.32 0.25,7.71 0.37,13.51 0.37,17.41 0,2.69 -1.15,4.02 -3.5,4.02l-36.64 0c-2.26,0 -3.38,-1.66 -3.38,-4.97 0,-3.81 0.12,-9.53 0.36,-17.12 0.25,-7.62 0.38,-13.38 0.38,-17.28 0,-2.98 -0.08,-7.5 -0.25,-13.59 -0.16,-6.05 -0.24,-10.65 -0.24,-13.72 0,-11.56 -4.37,-17.36 -13.15,-17.36 -3.54,0 -7.37,1.37 -11.49,4.14 -4.49,2.99 -6.75,6.13 -6.75,9.45 0,7.37 0.04,18.4 0.12,33.03 0.08,14.67 0.12,25.66 0.12,32.95 0,1.99 -0.24,3.27 -0.74,3.73 -0.45,0.5 -1.69,0.83 -3.71,0.99 -3.63,0.33 -9.31,0.5 -17.1,0.5 -5.07,0 -10.83,-0.25 -17.26,-0.74 -1.9,-0.16 -3.05,-0.46 -3.42,-0.83 -0.37,-0.42 -0.54,-1.66 -0.54,-3.65 0,-6.51 0.04,-16.16 0.12,-29.1 0.08,-12.89 0.12,-22.58 0.12,-29.05 0,-13.26 -0.99,-28.22 -2.97,-44.8 -0.17,-0.95 -0.24,-1.7 -0.24,-2.19 0,-1.37 0.57,-2.28 1.69,-2.78 1.77,-0.74 5.11,-1.32 10.01,-1.82 6.06,-0.58 9.65,-0.95 10.76,-1.12 0.83,-0.17 4,-1 9.56,-2.57 3.92,-1.12 7.09,-1.7 9.52,-1.7 1.57,0 2.39,2.82 2.47,8.45 0.08,5.64 0.42,8.46 0.99,8.46 0.82,-0.33 1.73,-0.91 2.76,-1.7 7.26,-5.68 12.95,-9.57 17.15,-11.69 6.18,-3.02 12.9,-4.52 20.11,-4.52 7.41,0 13.97,1.66 19.78,4.97 6.51,3.77 10.72,8.99 12.65,15.71 4.29,-5.84 10.14,-10.73 17.64,-14.71 7.49,-3.98 14.79,-5.97 21.88,-5.97 10.63,0 19.33,2.49 26,7.42 7.59,5.6 11.37,13.55 11.37,23.91 0,4.31 -0.12,10.78 -0.37,19.4 -0.25,8.62 -0.37,15.08 -0.37,19.35 0,5.1 0.12,12.76 0.37,23.05 0.25,10.24 0.37,17.9 0.37,23z"/>
    <path class="fil2" d="M114.78 1578.98c-0.99,-0.27 -2.08,-1.27 -3.17,-2.91 -1.72,-2.18 -2.26,-3.19 -2.8,-3.73 -0.45,-0.27 -0.81,-0.45 -1.18,-0.64 -0.36,-0.18 -0.81,-0.27 -1.17,-0.27 -0.9,0 -1.9,0.46 -2.62,1.27 -0.73,0.82 -1.18,1.73 -1.08,2.63 0,0.45 0.18,1.01 0.45,1.64 0.27,0.46 0.82,0.91 1.45,1.36 0.64,0.45 2.17,0.73 4.43,0.64 2.26,0.09 3.89,0.45 4.52,1.18 -0.81,0.63 -2.62,1.09 -5.06,1.27 -2.26,0.09 -3.89,0.54 -4.52,1.27 -0.36,0.45 -0.64,1 -0.99,1.55 -0.27,0.54 -0.37,1 -0.46,1.54 0,0.91 0.36,1.82 1.09,2.46 0.63,0.64 1.44,1 2.34,1 0.46,0 1.09,-0.18 2,-0.64 0.72,-0.36 1.35,-0.91 1.99,-1.73 0.36,-0.36 0.9,-1.18 1.72,-2.73 0.81,-1.28 1.89,-2.27 3.07,-2.82 0,0.82 -0.54,2.28 -1.54,4.28 -0.99,2.27 -1.53,3.55 -1.44,4.27 0,0.09 -0.09,0.19 -0.09,0.27 -0.09,0.19 -0.18,0.27 -0.09,0.27 0,1.1 0.46,2.18 1.27,3 0.72,0.73 1.72,1.18 2.62,1.09 0.9,0 1.81,-0.36 2.52,-0.9 0.73,-0.64 1.08,-1.46 1.18,-2.36 0,-0.19 0,-0.37 0,-0.64 0,-0.27 -0.09,-0.54 -0.09,-0.73 -0.27,-0.64 -0.63,-1.27 -1.53,-3.82 -0.63,-1.63 -0.9,-3.27 -1,-4.73 1,0.55 2.08,1.73 3.26,3.46 1.18,1.91 1.72,2.82 2.16,3.27 0.46,0.36 0.91,0.64 1.27,0.91 0.46,0.19 0.91,0.28 1.27,0.28 0.9,0 1.8,-0.45 2.71,-1.36 0.72,-0.72 1.08,-1.63 1.17,-2.63 0,-0.54 -0.18,-1.18 -0.45,-1.91 -0.46,-0.64 -1.08,-1.09 -1.81,-1.27 -0.64,-0.18 -1.45,-0.18 -4.17,-0.54 -1.8,-0.09 -3.25,-0.54 -4.24,-1.36 0,-0.64 1.54,-0.91 3.53,-1.1 3.07,-0.45 3.98,-0.54 4.88,-0.73 0.54,-0.09 1.08,-0.46 1.53,-1.09 0.27,-0.54 0.37,-1.18 0.45,-1.91 0,-0.91 -0.27,-1.91 -0.9,-2.73 -0.73,-0.82 -1.63,-1.27 -2.35,-1.27 -0.27,0 -0.54,0 -0.81,0.09 -0.27,0.09 -0.54,0.27 -0.81,0.36 -0.9,0.46 -1.99,1.46 -3.07,3.1 -1.36,1.81 -2.62,3.18 -3.62,4.09 -0.09,-0.27 -0.09,-0.46 -0.09,-0.46 -0.09,-0.27 -0.09,-0.45 -0.09,-0.45 0,-1.27 0.45,-2.91 1.35,-4.55 0.91,-1.73 1.36,-3.09 1.36,-4.18l0 -0.46c0,-0.91 -0.45,-1.82 -1.26,-2.46 -0.73,-0.54 -1.63,-0.82 -2.53,-0.82 -0.9,0 -1.72,0.27 -2.53,0.82 -0.72,0.64 -1.08,1.55 -1.18,2.46 0,0.09 0.09,0.18 0.09,0.27 0.09,0.09 0.18,0.09 0.09,0.19 0,1.09 0.45,2.72 1.44,4.82 0.99,1.91 1.54,3.55 1.54,4.82zm394.26 0c-0.99,-0.27 -2.08,-1.27 -3.16,-2.91 -1.72,-2.18 -2.26,-3.19 -2.8,-3.73 -0.46,-0.27 -0.81,-0.45 -1.18,-0.64 -0.37,-0.18 -0.81,-0.27 -1.18,-0.27 -0.9,0 -1.9,0.46 -2.62,1.27 -0.73,0.82 -1.17,1.73 -1.08,2.63 0,0.45 0.18,1.01 0.45,1.64 0.27,0.46 0.81,0.91 1.44,1.36 0.64,0.45 2.17,0.73 4.43,0.64 2.26,0.09 3.89,0.45 4.52,1.18 -0.81,0.63 -2.62,1.09 -5.06,1.27 -2.26,0.09 -3.89,0.54 -4.52,1.27 -0.36,0.45 -0.64,1 -0.99,1.55 -0.27,0.54 -0.36,1 -0.45,1.54 0,0.91 0.36,1.82 1.08,2.46 0.64,0.64 1.45,1 2.35,1 0.45,0 1.09,-0.18 1.99,-0.64 0.72,-0.36 1.35,-0.91 1.98,-1.73 0.37,-0.36 0.9,-1.18 1.72,-2.73 0.82,-1.28 1.9,-2.27 3.07,-2.82 0,0.82 -0.54,2.28 -1.53,4.28 -1,2.27 -1.54,3.55 -1.45,4.27 0,0.09 -0.09,0.19 -0.09,0.27 -0.09,0.19 -0.17,0.27 -0.09,0.27 0,1.1 0.45,2.18 1.27,3 0.72,0.73 1.72,1.18 2.62,1.09 0.9,0 1.81,-0.36 2.53,-0.9 0.73,-0.64 1.08,-1.46 1.18,-2.36 0,-0.19 0,-0.37 0,-0.64 0,-0.27 -0.09,-0.54 -0.09,-0.73 -0.27,-0.64 -0.63,-1.27 -1.53,-3.82 -0.64,-1.63 -0.91,-3.27 -1,-4.73 1,0.55 2.08,1.73 3.25,3.46 1.18,1.91 1.72,2.82 2.17,3.27 0.45,0.36 0.9,0.64 1.27,0.91 0.45,0.19 0.9,0.28 1.26,0.28 0.91,0 1.81,-0.45 2.71,-1.36 0.73,-0.72 1.09,-1.63 1.18,-2.63 0,-0.54 -0.18,-1.18 -0.45,-1.91 -0.45,-0.64 -1.08,-1.09 -1.81,-1.27 -0.63,-0.18 -1.44,-0.18 -4.16,-0.54 -1.8,-0.09 -3.25,-0.54 -4.24,-1.36 0,-0.64 1.54,-0.91 3.53,-1.1 3.07,-0.45 3.97,-0.54 4.88,-0.73 0.54,-0.09 1.08,-0.46 1.54,-1.09 0.27,-0.54 0.36,-1.18 0.45,-1.91 0,-0.91 -0.27,-1.91 -0.9,-2.73 -0.72,-0.82 -1.63,-1.27 -2.35,-1.27 -0.27,0 -0.54,0 -0.81,0.09 -0.27,0.09 -0.54,0.27 -0.81,0.36 -0.9,0.46 -1.99,1.46 -3.07,3.1 -1.36,1.81 -2.62,3.18 -3.62,4.09 -0.09,-0.27 -0.09,-0.46 -0.09,-0.46 -0.09,-0.27 -0.09,-0.45 -0.09,-0.45 0,-1.27 0.45,-2.91 1.36,-4.55 0.9,-1.73 1.35,-3.09 1.35,-4.18l0 -0.46c0,-0.91 -0.45,-1.82 -1.26,-2.46 -0.73,-0.54 -1.64,-0.82 -2.54,-0.82 -0.9,0 -1.72,0.27 -2.53,0.82 -0.72,0.64 -1.08,1.55 -1.17,2.46 0,0.09 0.09,0.18 0.09,0.27 0.09,0.09 0.18,0.09 0.09,0.19 0,1.09 0.45,2.72 1.45,4.82 0.99,1.91 1.53,3.55 1.53,4.82zm503.06 0c-0.99,-0.27 -2.08,-1.27 -3.17,-2.91 -1.72,-2.18 -2.26,-3.19 -2.79,-3.73 -0.46,-0.27 -0.81,-0.45 -1.18,-0.64 -0.36,-0.18 -0.81,-0.27 -1.18,-0.27 -0.9,0 -1.9,0.46 -2.62,1.27 -0.73,0.82 -1.18,1.73 -1.08,2.63 0,0.45 0.18,1.01 0.45,1.64 0.27,0.46 0.81,0.91 1.44,1.36 0.64,0.45 2.18,0.73 4.43,0.64 2.26,0.09 3.89,0.45 4.52,1.18 -0.81,0.63 -2.62,1.09 -5.06,1.27 -2.26,0.09 -3.89,0.54 -4.52,1.27 -0.36,0.45 -0.63,1 -0.99,1.55 -0.27,0.54 -0.37,1 -0.45,1.54 0,0.91 0.36,1.82 1.08,2.46 0.63,0.64 1.45,1 2.35,1 0.45,0 1.09,-0.18 2,-0.64 0.72,-0.36 1.35,-0.91 1.98,-1.73 0.36,-0.36 0.9,-1.18 1.72,-2.73 0.81,-1.28 1.9,-2.27 3.07,-2.82 0,0.82 -0.54,2.28 -1.53,4.28 -1,2.27 -1.54,3.55 -1.45,4.27 0,0.09 -0.09,0.19 -0.09,0.27 -0.09,0.19 -0.17,0.27 -0.09,0.27 0,1.1 0.46,2.18 1.27,3 0.72,0.73 1.72,1.18 2.62,1.09 0.9,0 1.81,-0.36 2.52,-0.9 0.73,-0.64 1.08,-1.46 1.18,-2.36 0,-0.19 0,-0.37 0,-0.64 0,-0.27 -0.09,-0.54 -0.09,-0.73 -0.27,-0.64 -0.63,-1.27 -1.53,-3.82 -0.63,-1.63 -0.9,-3.27 -1,-4.73 1,0.55 2.08,1.73 3.25,3.46 1.18,1.91 1.72,2.82 2.17,3.27 0.45,0.36 0.9,0.64 1.26,0.91 0.46,0.19 0.91,0.28 1.27,0.28 0.9,0 1.8,-0.45 2.71,-1.36 0.72,-0.72 1.09,-1.63 1.18,-2.63 0,-0.54 -0.18,-1.18 -0.45,-1.91 -0.45,-0.64 -1.08,-1.09 -1.81,-1.27 -0.64,-0.18 -1.44,-0.18 -4.16,-0.54 -1.8,-0.09 -3.25,-0.54 -4.24,-1.36 0,-0.64 1.53,-0.91 3.52,-1.1 3.07,-0.45 3.97,-0.54 4.88,-0.73 0.54,-0.09 1.08,-0.46 1.54,-1.09 0.26,-0.54 0.36,-1.18 0.45,-1.91 0,-0.91 -0.27,-1.91 -0.9,-2.73 -0.72,-0.82 -1.63,-1.27 -2.35,-1.27 -0.27,0 -0.54,0 -0.81,0.09 -0.27,0.09 -0.54,0.27 -0.82,0.36 -0.9,0.46 -1.98,1.46 -3.07,3.1 -1.36,1.81 -2.62,3.18 -3.62,4.09 -0.09,-0.27 -0.09,-0.46 -0.09,-0.46 -0.09,-0.27 -0.09,-0.45 -0.09,-0.45 0,-1.27 0.45,-2.91 1.36,-4.55 0.9,-1.73 1.35,-3.09 1.35,-4.18l0 -0.46c0,-0.91 -0.45,-1.82 -1.26,-2.46 -0.73,-0.54 -1.63,-0.82 -2.54,-0.82 -0.9,0 -1.72,0.27 -2.53,0.82 -0.72,0.64 -1.08,1.55 -1.18,2.46 0,0.09 0.09,0.18 0.09,0.27 0.09,0.09 0.18,0.09 0.09,0.19 0,1.09 0.45,2.72 1.45,4.82 0.99,1.91 1.53,3.55 1.53,4.82zm-877.89 20l12.75 -1.27c0.77,4.29 2.3,7.42 4.64,9.44 2.34,2.01 5.48,3.02 9.45,3.02 4.18,0 7.35,-0.9 9.47,-2.68 2.12,-1.79 3.19,-3.88 3.19,-6.27 0,-1.55 -0.45,-2.85 -1.34,-3.94 -0.89,-1.08 -2.45,-2.01 -4.69,-2.8 -1.52,-0.55 -4.98,-1.49 -10.41,-2.85 -6.97,-1.76 -11.87,-3.9 -14.69,-6.47 -3.96,-3.59 -5.93,-7.96 -5.93,-13.14 0,-3.31 0.94,-6.44 2.79,-9.33 1.87,-2.89 4.55,-5.09 8.06,-6.6 3.51,-1.52 7.73,-2.27 12.7,-2.27 8.09,0 14.19,1.8 18.27,5.42 4.1,3.62 6.23,8.44 6.45,14.49l-13.1 0.45c-0.56,-3.36 -1.75,-5.77 -3.57,-7.24 -1.83,-1.47 -4.57,-2.22 -8.21,-2.22 -3.77,0 -6.72,0.79 -8.84,2.37 -1.38,1.02 -2.07,2.36 -2.07,4.06 0,1.55 0.65,2.87 1.94,3.96 1.64,1.41 5.64,2.86 11.98,4.38 6.34,1.5 11.02,3.07 14.06,4.68 3.04,1.62 5.42,3.82 7.14,6.62 1.72,2.8 2.57,6.26 2.57,10.36 0,3.73 -1.02,7.23 -3.09,10.48 -2.06,3.26 -4.97,5.68 -8.74,7.26 -3.77,1.6 -8.46,2.38 -14.09,2.38 -8.18,0 -14.46,-1.9 -18.84,-5.7 -4.38,-3.79 -6.99,-9.32 -7.85,-16.57zm63.28 21.09l0 -65.09 13.1 0 0 65.09 -13.1 0zm25.74 0l0 -65.09 13.11 0 0 28.83 26.4 -28.83 17.57 0 -24.42 25.34 25.69 39.74 -16.9 0 -17.81 -30.56 -10.52 10.87 0 19.68 -13.11 0zm61.65 -21.09l12.75 -1.27c0.77,4.29 2.31,7.42 4.64,9.44 2.33,2.01 5.48,3.02 9.45,3.02 4.19,0 7.35,-0.9 9.48,-2.68 2.13,-1.79 3.19,-3.88 3.19,-6.27 0,-1.55 -0.45,-2.85 -1.33,-3.94 -0.89,-1.08 -2.46,-2.01 -4.69,-2.8 -1.52,-0.55 -4.99,-1.49 -10.41,-2.85 -6.98,-1.76 -11.87,-3.9 -14.69,-6.47 -3.95,-3.59 -5.93,-7.96 -5.93,-13.14 0,-3.31 0.94,-6.44 2.79,-9.33 1.87,-2.89 4.55,-5.09 8.06,-6.6 3.51,-1.52 7.73,-2.27 12.7,-2.27 8.09,0 14.19,1.8 18.27,5.42 4.1,3.62 6.24,8.44 6.45,14.49l-13.11 0.45c-0.55,-3.36 -1.75,-5.77 -3.57,-7.24 -1.82,-1.47 -4.55,-2.22 -8.21,-2.22 -3.76,0 -6.72,0.79 -8.84,2.37 -1.37,1.02 -2.06,2.36 -2.06,4.06 0,1.55 0.65,2.87 1.94,3.96 1.64,1.41 5.63,2.86 11.97,4.38 6.34,1.5 11.03,3.07 14.06,4.68 3.04,1.62 5.42,3.82 7.14,6.62 1.72,2.8 2.57,6.26 2.57,10.36 0,3.73 -1.02,7.23 -3.09,10.48 -2.06,3.26 -4.97,5.68 -8.74,7.26 -3.77,1.6 -8.47,2.38 -14.09,2.38 -8.18,0 -14.46,-1.9 -18.84,-5.7 -4.38,-3.79 -7,-9.32 -7.85,-16.57zm63.72 21.09l0 -65.09 13.11 0 0 25.63 25.48 0 0 -25.63 13.1 0 0 65.09 -13.1 0 0 -28.45 -25.48 0 0 28.45 -13.11 0zm123.58 0l-14.12 0 -5.59 -14.82 -25.95 0 -5.38 14.82 -13.85 0 25.13 -65.09 13.84 0 25.93 65.09zm-23.95 -25.82l-8.99 -24.09 -8.74 24.09 17.73 0zm80.25 4.73l12.75 -1.27c0.77,4.29 2.3,7.42 4.64,9.44 2.34,2.01 5.48,3.02 9.45,3.02 4.19,0 7.36,-0.9 9.48,-2.68 2.12,-1.79 3.19,-3.88 3.19,-6.27 0,-1.55 -0.45,-2.85 -1.34,-3.94 -0.89,-1.08 -2.46,-2.01 -4.69,-2.8 -1.52,-0.55 -4.99,-1.49 -10.41,-2.85 -6.98,-1.76 -11.87,-3.9 -14.69,-6.47 -3.96,-3.59 -5.93,-7.96 -5.93,-13.14 0,-3.31 0.93,-6.44 2.78,-9.33 1.87,-2.89 4.55,-5.09 8.05,-6.6 3.52,-1.52 7.74,-2.27 12.7,-2.27 8.09,0 14.19,1.8 18.28,5.42 4.1,3.62 6.23,8.44 6.45,14.49l-13.11 0.45c-0.56,-3.36 -1.75,-5.77 -3.57,-7.24 -1.83,-1.47 -4.56,-2.22 -8.21,-2.22 -3.76,0 -6.72,0.79 -8.84,2.37 -1.37,1.02 -2.06,2.36 -2.06,4.06 0,1.55 0.65,2.87 1.94,3.96 1.64,1.41 5.64,2.86 11.98,4.38 6.34,1.5 11.03,3.07 14.05,4.68 3.04,1.62 5.42,3.82 7.14,6.62 1.72,2.8 2.58,6.26 2.58,10.36 0,3.73 -1.02,7.23 -3.09,10.48 -2.07,3.26 -4.97,5.68 -8.74,7.26 -3.77,1.6 -8.47,2.38 -14.09,2.38 -8.18,0 -14.46,-1.9 -18.84,-5.7 -4.39,-3.79 -6.99,-9.32 -7.85,-16.57zm122.03 21.09l-14.11 0 -5.59 -14.82 -25.95 0 -5.38 14.82 -13.86 0 25.13 -65.09 13.85 0 25.93 65.09zm-23.95 -25.82l-8.99 -24.09 -8.74 24.09 17.73 0zm30.92 25.82l0 -65.09 12.69 0 26.63 43.62 0 -43.62 12.11 0 0 65.09 -13.1 0 -26.22 -42.79 0 42.79 -12.12 0zm61.84 -21.09l12.75 -1.27c0.77,4.29 2.3,7.42 4.64,9.44 2.34,2.01 5.48,3.02 9.45,3.02 4.18,0 7.36,-0.9 9.48,-2.68 2.12,-1.79 3.19,-3.88 3.19,-6.27 0,-1.55 -0.45,-2.85 -1.34,-3.94 -0.89,-1.08 -2.46,-2.01 -4.68,-2.8 -1.53,-0.55 -4.99,-1.49 -10.41,-2.85 -6.97,-1.76 -11.87,-3.9 -14.69,-6.47 -3.96,-3.59 -5.93,-7.96 -5.93,-13.14 0,-3.31 0.93,-6.44 2.79,-9.33 1.87,-2.89 4.55,-5.09 8.05,-6.6 3.51,-1.52 7.74,-2.27 12.7,-2.27 8.09,0 14.19,1.8 18.28,5.42 4.1,3.62 6.23,8.44 6.44,14.49l-13.1 0.45c-0.56,-3.36 -1.75,-5.77 -3.57,-7.24 -1.83,-1.47 -4.56,-2.22 -8.21,-2.22 -3.76,0 -6.71,0.79 -8.84,2.37 -1.37,1.02 -2.07,2.36 -2.07,4.06 0,1.55 0.65,2.87 1.94,3.96 1.64,1.41 5.64,2.86 11.98,4.38 6.34,1.5 11.03,3.07 14.05,4.68 3.04,1.62 5.42,3.82 7.14,6.62 1.72,2.8 2.57,6.26 2.57,10.36 0,3.73 -1.02,7.23 -3.08,10.48 -2.07,3.26 -4.97,5.68 -8.74,7.26 -3.77,1.6 -8.47,2.38 -14.09,2.38 -8.18,0 -14.46,-1.9 -18.85,-5.7 -4.38,-3.79 -6.99,-9.32 -7.85,-16.57zm63.91 21.09l0 -65.09 13.1 0 0 28.83 26.41 -28.83 17.56 0 -24.42 25.34 25.68 39.74 -16.9 0 -17.81 -30.56 -10.52 10.87 0 19.68 -13.1 0zm123.39 0l-14.12 0 -5.59 -14.82 -25.95 0 -5.38 14.82 -13.86 0 25.13 -65.09 13.84 0 25.93 65.09zm-23.96 -25.82l-8.99 -24.09 -8.74 24.09 17.73 0zm30.92 25.82l0 -65.09 27.53 0c6.92,0 11.94,0.59 15.08,1.76 3.15,1.16 5.65,3.24 7.53,6.22 1.88,3 2.83,6.41 2.83,10.26 0,4.9 -1.42,8.93 -4.26,12.11 -2.85,3.18 -7.09,5.18 -12.76,6.01 2.82,1.66 5.14,3.47 6.96,5.46 1.84,1.98 4.31,5.51 7.41,10.57l7.89 12.7 -15.62 0 -9.37 -14.21c-3.36,-5.05 -5.67,-8.23 -6.91,-9.55 -1.24,-1.3 -2.55,-2.21 -3.94,-2.7 -1.39,-0.49 -3.59,-0.73 -6.61,-0.73l-2.65 0 0 27.18 -13.1 0zm13.1 -37.55l9.68 0c6.27,0 10.16,-0.27 11.73,-0.8 1.55,-0.53 2.79,-1.46 3.66,-2.76 0.89,-1.3 1.33,-2.94 1.33,-4.9 0,-2.19 -0.59,-3.95 -1.75,-5.31 -1.16,-1.35 -2.8,-2.2 -4.91,-2.55 -1.07,-0.15 -4.24,-0.23 -9.53,-0.23l-10.2 0 0 16.54zm104.85 16.45l12.75 -1.27c0.77,4.29 2.3,7.42 4.64,9.44 2.33,2.01 5.48,3.02 9.45,3.02 4.19,0 7.35,-0.9 9.48,-2.68 2.12,-1.79 3.19,-3.88 3.19,-6.27 0,-1.55 -0.45,-2.85 -1.33,-3.94 -0.89,-1.08 -2.46,-2.01 -4.69,-2.8 -1.52,-0.55 -4.99,-1.49 -10.41,-2.85 -6.97,-1.76 -11.87,-3.9 -14.68,-6.47 -3.97,-3.59 -5.93,-7.96 -5.93,-13.14 0,-3.31 0.93,-6.44 2.78,-9.33 1.87,-2.89 4.55,-5.09 8.06,-6.6 3.51,-1.52 7.73,-2.27 12.7,-2.27 8.09,0 14.19,1.8 18.28,5.42 4.09,3.62 6.23,8.44 6.45,14.49l-13.11 0.45c-0.56,-3.36 -1.75,-5.77 -3.57,-7.24 -1.83,-1.47 -4.57,-2.22 -8.21,-2.22 -3.76,0 -6.72,0.79 -8.84,2.37 -1.37,1.02 -2.06,2.36 -2.06,4.06 0,1.55 0.65,2.87 1.94,3.96 1.64,1.41 5.64,2.86 11.98,4.38 6.34,1.5 11.03,3.07 14.06,4.68 3.04,1.62 5.42,3.82 7.14,6.62 1.72,2.8 2.57,6.26 2.57,10.36 0,3.73 -1.02,7.23 -3.08,10.48 -2.06,3.26 -4.97,5.68 -8.74,7.26 -3.76,1.6 -8.47,2.38 -14.09,2.38 -8.18,0 -14.45,-1.9 -18.84,-5.7 -4.38,-3.79 -6.99,-9.32 -7.85,-16.57zm72.62 21.09l-15.21 -65.09 13.47 0 9.63 44.71 11.81 -44.71 15.58 0 11.29 45.46 9.86 -45.46 13.15 0 -15.59 65.09 -14 0 -12.76 -48.67 -12.85 48.67 -14.37 0zm129.74 0l-14.11 0 -5.59 -14.82 -25.95 0 -5.38 14.82 -13.86 0 25.13 -65.09 13.84 0 25.93 65.09zm-23.95 -25.82l-8.99 -24.09 -8.74 24.09 17.73 0zm27.49 4.73l12.75 -1.27c0.77,4.29 2.3,7.42 4.64,9.44 2.33,2.01 5.48,3.02 9.45,3.02 4.19,0 7.36,-0.9 9.48,-2.68 2.12,-1.79 3.19,-3.88 3.19,-6.27 0,-1.55 -0.45,-2.85 -1.34,-3.94 -0.89,-1.08 -2.46,-2.01 -4.69,-2.8 -1.52,-0.55 -4.99,-1.49 -10.41,-2.85 -6.97,-1.76 -11.87,-3.9 -14.69,-6.47 -3.96,-3.59 -5.93,-7.96 -5.93,-13.14 0,-3.31 0.93,-6.44 2.78,-9.33 1.87,-2.89 4.55,-5.09 8.06,-6.6 3.51,-1.52 7.73,-2.27 12.7,-2.27 8.09,0 14.19,1.8 18.28,5.42 4.09,3.62 6.23,8.44 6.45,14.49l-13.11 0.45c-0.56,-3.36 -1.75,-5.77 -3.57,-7.24 -1.83,-1.47 -4.56,-2.22 -8.21,-2.22 -3.76,0 -6.72,0.79 -8.84,2.37 -1.37,1.02 -2.06,2.36 -2.06,4.06 0,1.55 0.65,2.87 1.94,3.96 1.64,1.41 5.64,2.86 11.98,4.38 6.34,1.5 11.03,3.07 14.06,4.68 3.04,1.62 5.42,3.82 7.14,6.62 1.72,2.8 2.57,6.26 2.57,10.36 0,3.73 -1.02,7.23 -3.08,10.48 -2.07,3.26 -4.97,5.68 -8.74,7.26 -3.76,1.6 -8.47,2.38 -14.09,2.38 -8.18,0 -14.45,-1.9 -18.84,-5.7 -4.38,-3.79 -6.99,-9.32 -7.85,-16.57zm78.28 21.09l0 -54.09 -19.16 0 0 -11 51.35 0 0 11 -19.08 0 0 54.09 -13.1 0zm40.66 0l0 -65.09 13.11 0 0 25.63 25.48 0 0 -25.63 13.11 0 0 65.09 -13.11 0 0 -28.45 -25.48 0 0 28.45 -13.11 0zm82.27 0l0 -27.39 -23.73 -37.69 15.32 0 15.3 25.77 14.9 -25.77 15.03 0 -23.72 37.78 0 27.3 -13.11 0zm93.29 0l-14.12 0 -5.59 -14.82 -25.95 0 -5.38 14.82 -13.86 0 25.13 -65.09 13.84 0 25.93 65.09zm-23.95 -25.82l-8.99 -24.09 -8.74 24.09 17.73 0z"/>
    <g>
     <path class="fil3" d="M199.61 1399.61c0.96,0.52 2.4,0.02 3.02,1.28 0.85,1.73 13.76,5.92 29.82,-2.39 163.18,-84.52 255.53,-128.38 459.7,-126.65 -5.48,-4.14 -0.36,-2.11 -11.08,-5.83 -46.36,-16.06 -181.87,-8.8 -223.75,-1.57 -123.72,21.36 -153.33,53.51 -192.89,64.06l-0.68 -507.03c-81.86,24.77 -64.97,31.17 -65.4,92.35 -0.45,63.79 -2.35,453.09 1.27,485.78z"/>
     <path class="fil4" d="M406.76 581.7c-1.31,62.71 -5.05,548.17 2.54,569.18 129.14,4.45 217.03,14.85 327.37,86.76 18.91,12.32 68.79,50.84 76.28,62.05 -4.2,-16.55 -46.44,-62.7 -58.79,-72.65 -71.7,-57.78 -156.99,-107.72 -253.19,-116.36l-28.42 -6.34 -1.64 -544.27 -64.14 21.64z"/>
     <path class="fil5" d="M1275.55 1195.6c-139.76,-11.82 -230.77,-15.53 -358.63,49.81 -23.93,12.23 -30.19,17.59 -37.72,25.82 90.8,-23.88 108.1,-43.23 227.59,-44.43 56.7,-0.56 127.02,7.79 181.42,23.82 18.42,5.43 34.1,13.61 52.53,18.02l0.14 -567.34 -64.63 -27.23 -0.69 521.52z"/>
     <path class="fil5" d="M298.6 702.68l-0.68 566.38c121.45,-42.9 234.15,-56.7 365.79,-27.11 57.5,12.92 74.09,25.71 105.41,34.2 -71.36,-59.36 -186.84,-87.16 -285.2,-88.82 -45.01,-0.76 -79.35,6.47 -121.23,7.99l-0.16 -519.92c-14.31,1.94 -53.39,18.95 -63.94,27.28z"/>
     <path class="fil3" d="M1374.35 1327.82l-91.39 -37.35c-91.6,-34.15 -281.8,-51.08 -348.22,-17.68 119.83,3.7 156.92,-3.55 279.95,37.93 39.76,13.4 76.48,29.59 112.07,46.44 40.83,19.33 81.7,48.73 111.68,46.02l0.99 -553.8 -63.03 -29.09 -2.05 507.52z"/>
     <path class="fil4" d="M831.22 1291.32c14.3,-7.53 23.26,-19.13 36.51,-29.41 11.66,-9.03 27.08,-20.38 40.33,-28.64 109.96,-68.59 191.62,-79.55 321.99,-81.89 4.16,-18.51 1.66,-562.8 1.63,-562.92 -2.2,-10.04 -2.49,-6.85 -29.42,-16.46 -12.24,-4.37 -22.36,-8.37 -35.12,-11.2 -4.26,143.38 8.95,424.77 0.03,533.03 -1.53,18.51 1.48,12.48 -14.02,15.29 -9.03,1.64 -21.17,2.17 -30.86,3.73 -80.11,12.88 -146.05,44.65 -209.43,90.57l-52.43 47.64c-10.09,9.07 -23.05,23.68 -29.21,40.26z"/>
     <g>
      <path class="fil6" d="M597.01 749.31c-0.28,114.13 27.23,218.5 68.39,303.91 23.08,47.89 45.83,79.86 73.27,114.02 15.46,19.25 75.33,83.39 96.86,90.1 -1.14,-29.75 -21.63,-74.78 -21.63,-187.55 -0,-259.85 131.71,-390.54 140.8,-413.87 -23.58,3.32 -76.85,51.82 -90.75,57.11l-4.08 -70.52 16.36 -5.24c-6.44,-9.05 -40.74,-29.65 -53.81,-38.96 -34.26,-24.38 -27.9,-18.63 -82.73,-18.87l-57.08 -0.45c-20.01,0.11 -12.14,0.85 -17.16,2.59 -0.58,0.2 -1.47,0.56 -2.14,0.97l9.14 7.8c10.01,7.16 25.17,15.16 30.84,23.47 -10.31,21.11 -28.85,39.81 -15.4,75.6 8.14,21.66 27.16,38.99 50.03,45.92 28.39,8.6 56.61,-3.83 70.11,-18.93 22.27,-24.92 19.82,-35.53 18.65,-77.04l22.62 -0.17c1.8,23.92 -0.74,52.2 -1.54,76.47 -0.58,17.44 -13.6,25.87 -36.31,40.64 -147.14,95.71 -168.02,-100.36 -169.38,-205.02l12.93 -172.02 -9.65 0c-21.6,47.83 -48.18,318.48 -48.32,370.03z"/>
      <path class="fil7" d="M846.06 272.85c-31.35,18.83 -57.79,43.65 -76.3,78.13 -30.13,51.41 -67.95,67.03 -115.49,37.33 15.68,-43.43 51,-72.03 99.68,-90.57 -38.84,7.84 -74.6,28.09 -102.42,80.2 -9.08,-53.35 13.89,-91.63 73.55,-112.7 31.37,-12.32 74.04,-5.9 120.99,7.6z"/>
      <path class="fil7" d="M546.18 313.65c16.09,11.03 33.89,26.94 33.84,48.4 8.3,31.28 28.56,34.71 51.56,31.8 20.08,-19.86 22.08,-42.4 -2.74,-64.13 -21.11,-21.42 -49.64,-28.78 -82.66,-16.08z"/>
     </g>
    </g>
   </g>
   <g>
    <path class="fil8" d="M2586.94 877.85c0,6.13 -4.03,10.21 -12.25,12.59 -9.9,2.72 -40.44,3.91 -91.46,3.91 -46.99,0 -77.02,-1.19 -90.44,-3.91 -11.25,-2.39 -18.12,-9.87 -20.97,-22.63 -10.41,-48.49 -18.63,-74.52 -24.5,-77.76 -5.37,-1.87 -49.33,-2.72 -132.06,-2.72 -55.71,0 -85.41,1.53 -89.1,4.43 -5.71,5.27 -12.25,23.14 -19.3,53.59 -6.54,27.73 -14.1,42.7 -22.99,45.09 -11.08,2.72 -48.5,3.91 -112.09,3.91 -50.17,0 -75.18,-4.76 -75.18,-14.47 0,-8.67 36.92,-114.85 110.75,-318.69 79.88,-220.51 123.34,-341.65 130.22,-363.6 4.03,-12.42 8.56,-18.54 13.76,-18.54 9.06,0 22.82,0.85 41.45,2.38 18.63,1.7 32.56,2.56 41.78,2.56 8.9,0 21.98,-0.51 39.27,-1.7 17.29,-1.19 30.2,-1.87 38.76,-1.87 6.38,0 12.08,5.61 17.46,16.5 15.94,34.88 62.76,154.49 140.12,359.01 77.86,205.88 116.79,313.08 116.79,321.92zm-348.36 -454.3c-6.88,14.64 -18.63,46.45 -35.24,95.28 -17.12,51.72 -25.68,82.01 -25.68,90.86 0,6.12 9.74,9.53 29.03,10.21 10.07,0.68 26.52,1.02 49.5,1.02 21.48,0 33.23,-2.72 35.58,-7.99 0.5,-1.7 0.84,-3.91 0.84,-6.97 0,-10.89 -7.21,-41.01 -21.65,-90.35 -14.77,-47.98 -25.51,-78.61 -32.39,-92.05zm884.33 452.42c0,9.02 -4.53,14.12 -13.76,15.49 -9.23,1.36 -33.23,2.04 -71.82,2.04 -41.45,0 -66.95,-1.02 -76.86,-3.06 -9.73,-1.87 -14.76,-8.68 -14.76,-20.42 0,-15.66 0.5,-39.14 1.51,-70.78 1,-31.48 1.51,-55.3 1.51,-71.29 0,-12.25 -0.34,-30.63 -1.01,-55.13 -0.67,-24.33 -1.01,-42.7 -1.01,-55.13 0,-45.43 -19.46,-68.23 -58.57,-68.23 -12.75,0 -27.69,5.61 -44.8,17.01 -18.29,12.59 -27.52,25.01 -27.52,37.26l0 269.35c0,10.89 -5.03,17.01 -15.27,18.38 -11.41,1.36 -34.74,2.04 -70.14,2.04 -38.26,0 -63.1,-1.02 -74.51,-3.06 -10.24,-1.53 -15.27,-7.15 -15.27,-16.34 0,-26.03 0.17,-64.99 0.51,-117.23 0.34,-52.07 0.5,-91.37 0.5,-117.58 0,-82.69 -6.38,-147.69 -19.13,-194.99 -0.67,-2.89 -1.01,-5.44 -1.01,-7.48 0,-5.28 2.52,-8.85 7.38,-10.89 20.47,-2.38 47.99,-5.95 82.23,-11.06 51.85,-10.38 81.05,-15.48 87.59,-15.48 3.69,0 6.54,11.23 8.56,33.69 2.02,22.46 4.86,33.69 8.56,33.69 -3.52,0 14.1,-11.57 52.86,-34.71 38.93,-23.14 73,-34.71 102.2,-34.71 41.62,0 76.35,10.04 104.21,29.95 31.21,22.97 46.82,54.79 46.82,95.79l0 158.92c0,21.61 0.17,53.94 0.51,96.98 0.33,43.05 0.5,75.37 0.5,96.98zm628.1 -311.2c0,73.5 -35.58,129.31 -106.72,167.43 -6.55,3.4 -9.73,6.8 -9.73,10.55 0,5.61 15.1,29.09 45.64,70.61 30.37,41.35 45.64,63.12 45.64,65.16 0,8.68 -43.46,12.93 -130.21,12.93 -33.4,0 -52.69,-4.26 -57.9,-12.59 -13.26,-22.12 -33.9,-53.94 -61.75,-95.46 -1.68,-2.04 -30.87,-4.59 -87.42,-7.31 0,10.38 0.17,26.88 0.5,49.51 0.34,22.63 0.51,39.31 0.51,50.36 0,10.04 -4.86,15.49 -14.27,16.51 -6.04,0.68 -32.05,1.02 -78.03,1.02 -39.76,0 -62.92,-0.68 -69.64,-2.04 -8.89,-1.7 -13.26,-8.51 -13.26,-20.42l0 -305.08c0,-41.01 -1.51,-102.09 -4.53,-183.42 -3.02,-81.5 -4.53,-142.41 -4.53,-183.08 0,-8 4.37,-12.08 13.26,-12.42 17.45,0 43.46,-0.34 78.2,-1.02 9.23,-0.68 25.17,-2.56 47.82,-5.79 19.97,-2.89 35.74,-4.42 47.15,-4.42 5.2,0 7.89,4.77 7.89,14.46 0,12.59 -1.01,29.78 -2.85,51.39 -2.35,25.18 -3.52,42.53 -3.86,51.72 -2.85,71.46 -4.36,126.93 -4.36,166.06 0,9.36 1.17,14.12 3.52,14.46 2.85,-2.04 6.88,-5.61 11.75,-11.06 42.45,-45.09 94.3,-67.55 155.22,-67.55 57.22,0 102.7,13.27 136.42,39.81 37.09,29.6 55.55,72.83 55.55,129.65zm-195.33 32.5c0,-39.99 -22.32,-60.06 -67.12,-60.06 -19.97,0 -41.11,7.66 -63.77,22.8 -24.16,16.33 -36.24,34.03 -36.24,53.25 0,27.57 3.69,44.07 11.24,49.69 5.87,3.91 24.67,5.95 56.38,5.95 66.28,0 99.51,-23.82 99.51,-71.63zm760.16 -160.11c0,24.67 -1.18,61.59 -3.53,110.77 -2.35,49.17 -3.53,86.09 -3.53,110.6 0,23.99 0.84,59.89 2.52,107.7 1.67,47.98 2.52,83.71 2.52,107.36 0,8.85 -4.03,14.64 -12.25,16.85 -12.59,3.4 -38.93,5.1 -79.37,5.1 -35.74,0 -60.58,-1.02 -74.84,-3.06 -6.21,-1.02 -10.07,-4.94 -11.75,-11.91 -0.84,-9.87 -1.84,-19.9 -2.69,-29.77 -1.51,-15.32 -3.69,-22.97 -6.38,-22.97 4.53,0 -11.91,11.4 -49.67,33.86 -37.75,22.63 -72.15,33.86 -103.03,33.86 -86.93,0 -138.61,-39.82 -154.55,-119.27 -7.22,-36.92 -10.91,-90.35 -10.91,-160.45 0,-75.88 6.04,-135.78 18.12,-179.68 3.69,-13.61 10.41,-20.42 20.14,-20.42 15.1,0 38.09,0.17 68.97,0.51 30.71,0.34 53.69,0.51 68.8,0.51 10.24,0 15.27,4.25 15.27,12.93 0,2.39 -0.34,5.79 -1.01,10.55 -6.71,45.26 -10.07,91.03 -10.07,137.65 0,57.85 1.84,97.49 5.37,118.76 5.87,36.58 27.35,54.96 64.44,54.96 14.43,0 30.04,-6.47 46.82,-19.57 16.95,-12.93 25.67,-26.54 26.35,-40.49 0.67,-12.25 1.01,-95.79 1.01,-250.29 0,-11.06 0.84,-17.52 2.52,-19.56 1.85,-3.23 7.72,-4.93 17.62,-4.93 16.11,0 40.1,0.17 72.49,0.51 32.22,0.34 56.38,0.51 72.49,0.51 9.74,0 15.44,2.55 17.12,7.48 0.67,2.55 1.01,6.64 1.01,11.91zm406.76 142.24c0,13.1 -7.05,19.57 -21.15,19.57 -6.21,0 -15.27,-0.51 -27.18,-1.36 -11.91,-0.85 -20.81,-1.19 -26.68,-1.19 -27.01,0 -45.48,4.25 -55.21,12.93 -9.9,8.68 -14.77,26.2 -14.77,52.4 0,14.29 0.17,36.08 0.67,65.16 0.5,29.1 0.67,50.88 0.67,65.17 0,9.7 0.67,23.99 1.84,43.22 1.18,19.05 1.85,33.35 1.85,42.7 0,8 -5.37,12.42 -16.28,13.45 -15.61,1.36 -39.77,2.04 -72.16,2.04 -31.04,0 -55.88,-1.02 -74.51,-3.06 -10.9,-1.36 -16.28,-6.81 -16.28,-16.51 0,-26.54 0.17,-66.36 0.51,-119.27 0.34,-53.08 0.51,-92.9 0.51,-119.44 0,-78.1 -7.05,-142.41 -21.15,-192.78 -0.67,-3.06 -1.01,-5.61 -1.01,-7.48 0,-5.1 2.51,-8.34 7.38,-10.04 18.12,-2.04 44.64,-5.61 79.37,-11.06 52.02,-10.38 78.7,-15.48 80.38,-15.48 5.87,0 9.73,10.38 11.24,31.14 1.68,20.93 4.7,31.3 8.9,31.3 -4.54,0 8.72,-8.67 40.1,-26.2 31.38,-17.35 61.59,-26.03 90.61,-26.03 18.29,0 27.35,3.91 27.35,11.91 0,9.7 -1.01,23.31 -3.02,40.83 -2.01,19.06 -3.19,32.67 -3.52,40.83 0,9.7 0.17,22.46 0.5,38.46 0.67,19.57 1.01,32.5 1.01,38.79zm551.57 61.94c0,25.52 1.51,63.63 4.53,114 3.02,50.54 4.53,88.48 4.53,113.66 0,13.27 -5.7,20.42 -17.29,21.44 -40.61,3.06 -87.26,4.42 -139.78,4.42 -6.21,0 -10.41,-9.53 -12.59,-28.42 -2.01,-19.05 -4.53,-28.75 -7.55,-29.09 -2.68,1.36 -6.04,4.09 -10.24,8.34 -36.75,37.26 -76.02,55.98 -117.97,55.98 -63.94,0 -116.79,-25.53 -158.74,-76.74 -39.61,-47.81 -59.4,-104.98 -59.4,-171.51 0,-76.74 20.47,-138.5 61.42,-185.29 42.46,-48.5 100.85,-72.82 174.85,-72.82 51.18,0 91.79,18.2 121.66,54.62 1.35,1.7 2.52,2.55 3.53,2.55 3.02,0 6.54,-7.99 10.4,-23.99 3.86,-15.99 8.39,-23.99 13.76,-23.99 12.08,0 35.07,3.57 69.13,10.55 32.22,6.64 55.55,12.25 69.47,17.02 4.86,2.04 7.38,4.59 7.38,8 0,1.36 -0.5,4.76 -1.51,10.38 -10.4,60.24 -15.6,123.87 -15.6,190.91zm-158.07 2.72c0,-28.25 -8.72,-51.55 -26.35,-69.93 -17.45,-18.54 -40.27,-27.74 -68.46,-27.74 -28.19,0 -51.01,9.19 -68.46,27.4 -17.45,18.37 -26.01,41.68 -26.01,70.27 0,27.05 9.06,50.19 27.52,69.42 18.29,19.23 40.61,28.93 66.95,28.93 27.86,0 50.51,-9.19 68.3,-27.73 17.62,-18.38 26.51,-41.86 26.51,-70.61zm1041.9 228c0,11.57 -4.86,18.03 -14.77,19.4 -9.9,1.36 -34.06,2.04 -72.82,2.04 -40.11,0 -64.94,-1.02 -74.85,-3.06 -9.9,-1.87 -14.76,-10.04 -14.76,-24.33 0,-15.31 0.5,-38.11 1.51,-68.57 1.01,-30.46 1.51,-53.26 1.51,-68.57 0,-58.19 -0.67,-99.71 -2.01,-124.21 -1.85,-39.64 -20.47,-59.38 -55.55,-59.38 -15.44,0 -30.71,6.63 -45.98,19.73 -15.27,13.1 -23.66,27.56 -25.34,43.56 -1.34,13.95 -2.01,54.96 -2.01,122.68 0,15.65 0.5,39.3 1.51,71.12 1.01,31.65 1.51,55.47 1.51,71.46 0,11.06 -4.7,16.51 -14.26,16.51l-149.18 0c-9.23,0 -13.76,-6.81 -13.76,-20.42 0,-15.66 0.51,-39.14 1.51,-70.27 1.01,-31.31 1.51,-54.96 1.51,-70.95 0,-12.25 -0.33,-30.8 -1,-55.81 -0.67,-24.84 -1.01,-43.73 -1.01,-56.32 0,-47.48 -17.78,-71.29 -53.53,-71.29 -14.44,0 -30.03,5.61 -46.82,17.01 -18.29,12.25 -27.52,25.18 -27.52,38.79 0,30.29 0.17,75.54 0.51,135.61 0.33,60.23 0.5,105.32 0.5,135.27 0,8.17 -1.01,13.44 -3.02,15.31 -1.84,2.04 -6.88,3.41 -15.1,4.09 -14.77,1.36 -37.92,2.04 -69.64,2.04 -20.64,0 -44.13,-1.02 -70.31,-3.06 -7.72,-0.68 -12.42,-1.87 -13.93,-3.4 -1.51,-1.7 -2.18,-6.81 -2.18,-14.98 0,-26.71 0.17,-66.36 0.5,-119.44 0.34,-52.91 0.51,-92.73 0.51,-119.27 0,-54.45 -4.03,-115.87 -12.08,-183.93 -0.67,-3.91 -1.01,-6.98 -1.01,-9.02 0,-5.61 2.35,-9.36 6.88,-11.4 7.21,-3.06 20.81,-5.44 40.78,-7.48 24.67,-2.38 39.27,-3.92 43.8,-4.6 3.36,-0.68 16.28,-4.08 38.93,-10.55 15.94,-4.6 28.86,-6.98 38.77,-6.98 6.37,0 9.73,11.57 10.07,34.71 0.34,23.14 1.68,34.71 4.03,34.71 3.36,-1.36 7.05,-3.74 11.24,-6.98 29.54,-23.31 52.69,-39.3 69.81,-47.98 25.17,-12.42 52.53,-18.54 81.89,-18.54 30.2,0 56.88,6.8 80.55,20.42 26.52,15.49 43.63,36.92 51.52,64.49 17.46,-23.99 41.28,-44.07 71.82,-60.4 30.54,-16.34 60.24,-24.5 89.11,-24.5 43.29,0 78.7,10.21 105.88,30.45 30.88,22.97 46.31,55.64 46.31,98.18 0,17.69 -0.5,44.24 -1.51,79.63 -1,35.39 -1.51,61.94 -1.51,79.46 0,20.93 0.51,52.41 1.51,94.6 1.01,42.03 1.51,73.5 1.51,94.43z"/>
    <path class="fil7" d="M2522.26 1483.53l-26.56 -104.85 23.51 0 16.81 72.02 20.62 -72.02 27.19 0 19.73 73.25 17.2 -73.25 22.96 0 -27.22 104.85 -24.43 0 -22.27 -78.39 -22.43 78.39 -25.09 0zm154.56 -104.85l0 38.85c7.02,-7.73 15.43,-11.62 25.2,-11.62 5.02,0 9.54,0.85 13.57,2.56 4.03,1.73 7.05,3.9 9.1,6.59 2.05,2.66 3.45,5.61 4.18,8.86 0.76,3.25 1.13,8.27 1.13,15.09l0 44.52 -21.62 0 0 -40.07c0,-7.96 -0.42,-13.01 -1.23,-15.16 -0.84,-2.15 -2.31,-3.86 -4.42,-5.1 -2.11,-1.27 -4.74,-1.91 -7.92,-1.91 -3.63,0 -6.86,0.8 -9.73,2.44 -2.87,1.61 -4.94,4.05 -6.26,7.33 -1.34,3.24 -2,8.08 -2,14.45l0 38.03 -21.62 0 0 -104.85 21.62 0zm122.42 80.84l21.62 3.37c-2.77,7.34 -7.16,12.93 -13.13,16.79 -5.99,3.83 -13.49,5.76 -22.46,5.76 -14.22,0 -24.77,-4.32 -31.58,-12.96 -5.39,-6.93 -8.1,-15.67 -8.1,-26.24 0,-12.59 3.55,-22.48 10.63,-29.61 7.07,-7.15 16.04,-10.71 26.87,-10.71 12.15,0 21.75,3.73 28.8,11.2 7.02,7.47 10.39,18.91 10.07,34.34l-54.13 0c0.16,5.96 1.89,10.59 5.24,13.91 3.31,3.32 7.47,4.98 12.41,4.98 3.39,0 6.23,-0.85 8.52,-2.56 2.31,-1.71 4.05,-4.46 5.23,-8.27zm1.26 -20.36c-0.16,-5.83 -1.76,-10.27 -4.84,-13.3 -3.08,-3.05 -6.81,-4.56 -11.23,-4.56 -4.71,0 -8.6,1.61 -11.68,4.81 -3.07,3.19 -4.57,7.56 -4.52,13.06l32.27 0zm59.83 44.37l-21.62 0 0 -76 20.04 0 0 10.79c3.44,-5.1 6.55,-8.44 9.31,-10.03 2.76,-1.59 5.89,-2.37 9.39,-2.37 4.94,0 9.71,1.27 14.28,3.78l-6.7 17.52c-3.66,-2.19 -7.05,-3.29 -10.18,-3.29 -3.05,0 -5.63,0.78 -7.73,2.32 -2.1,1.56 -3.76,4.34 -4.97,8.4 -1.21,4.05 -1.82,12.55 -1.82,25.46l0 23.43zm88.08 -24.01l21.62 3.37c-2.76,7.34 -7.16,12.93 -13.12,16.79 -6,3.83 -13.49,5.76 -22.46,5.76 -14.22,0 -24.77,-4.32 -31.58,-12.96 -5.39,-6.93 -8.1,-15.67 -8.1,-26.24 0,-12.59 3.55,-22.48 10.63,-29.61 7.07,-7.15 16.04,-10.71 26.87,-10.71 12.15,0 21.75,3.73 28.8,11.2 7.02,7.47 10.39,18.91 10.07,34.34l-54.12 0c0.15,5.96 1.89,10.59 5.23,13.91 3.31,3.32 7.47,4.98 12.41,4.98 3.39,0 6.24,-0.85 8.52,-2.56 2.31,-1.71 4.05,-4.46 5.24,-8.27zm1.26 -20.36c-0.16,-5.83 -1.76,-10.27 -4.84,-13.3 -3.08,-3.05 -6.81,-4.56 -11.23,-4.56 -4.71,0 -8.6,1.61 -11.68,4.81 -3.08,3.19 -4.57,7.56 -4.52,13.06l32.27 0zm108.56 44.37l0 -87.13 -33.45 0 0 -17.72 89.63 0 0 17.72 -33.3 0 0 87.13 -22.88 0zm92.12 -104.85l0 38.85c7.02,-7.73 15.43,-11.62 25.2,-11.62 5.02,0 9.54,0.85 13.57,2.56 4.03,1.73 7.05,3.9 9.1,6.59 2.06,2.66 3.45,5.61 4.18,8.86 0.76,3.25 1.13,8.27 1.13,15.09l0 44.52 -21.62 0 0 -40.07c0,-7.96 -0.42,-13.01 -1.24,-15.16 -0.84,-2.15 -2.31,-3.86 -4.42,-5.1 -2.11,-1.27 -4.73,-1.91 -7.92,-1.91 -3.62,0 -6.86,0.8 -9.73,2.44 -2.87,1.61 -4.94,4.05 -6.26,7.33 -1.34,3.24 -2,8.08 -2,14.45l0 38.03 -21.62 0 0 -104.85 21.62 0zm122.41 80.84l21.62 3.37c-2.76,7.34 -7.16,12.93 -13.12,16.79 -5.99,3.83 -13.49,5.76 -22.46,5.76 -14.22,0 -24.77,-4.32 -31.58,-12.96 -5.39,-6.93 -8.1,-15.67 -8.1,-26.24 0,-12.59 3.55,-22.48 10.63,-29.61 7.07,-7.15 16.04,-10.71 26.87,-10.71 12.15,0 21.75,3.73 28.8,11.2 7.02,7.47 10.39,18.91 10.07,34.34l-54.12 0c0.16,5.96 1.89,10.59 5.24,13.91 3.31,3.32 7.47,4.98 12.41,4.98 3.39,0 6.23,-0.85 8.52,-2.56 2.31,-1.71 4.05,-4.46 5.23,-8.27zm1.27 -20.36c-0.16,-5.83 -1.77,-10.27 -4.84,-13.3 -3.08,-3.05 -6.82,-4.56 -11.23,-4.56 -4.71,0 -8.6,1.61 -11.68,4.81 -3.08,3.19 -4.57,7.56 -4.52,13.06l32.27 0zm83.47 44.37l0 -104.85 22.88 0 0 46.44 46.1 -46.44 30.66 0 -42.63 40.83 44.84 64.02 -29.51 0 -31.09 -49.23 -18.38 17.52 0 31.71 -22.88 0zm187.96 0l-21.62 0 0 -38.73c0,-8.2 -0.47,-13.5 -1.39,-15.89 -0.94,-2.42 -2.45,-4.27 -4.55,-5.61 -2.11,-1.34 -4.63,-2 -7.57,-2 -3.79,0 -7.18,0.95 -10.18,2.85 -3.02,1.91 -5.08,4.44 -6.18,7.57 -1.13,3.15 -1.68,8.96 -1.68,17.45l0 34.36 -21.62 0 0 -76 20.04 0 0 11.15c7.18,-8.51 16.2,-12.76 27.12,-12.76 4.79,0 9.18,0.81 13.15,2.39 4,1.61 6.99,3.64 9.02,6.1 2.05,2.49 3.47,5.3 4.26,8.44 0.81,3.15 1.21,7.64 1.21,13.5l0 47.18zm16.85 -38.93c0,-6.69 1.76,-13.15 5.31,-19.4 3.55,-6.27 8.57,-11.03 15.07,-14.33 6.5,-3.3 13.73,-4.96 21.75,-4.96 12.39,0 22.51,3.73 30.43,11.2 7.91,7.49 11.86,16.91 11.86,28.33 0,11.52 -4,21.06 -11.96,28.63 -7.99,7.57 -18.04,11.35 -30.16,11.35 -7.5,0 -14.65,-1.59 -21.46,-4.74 -6.78,-3.14 -11.97,-7.76 -15.52,-13.86 -3.55,-6.08 -5.31,-13.49 -5.31,-22.23zm22.24 1.07c0,7.54 1.92,13.33 5.76,17.33 3.87,4.03 8.6,6.03 14.26,6.03 5.62,0 10.36,-2 14.17,-6.03 3.82,-4 5.73,-9.84 5.73,-17.47 0,-7.45 -1.92,-13.18 -5.73,-17.18 -3.81,-4.03 -8.55,-6.03 -14.17,-6.03 -5.66,0 -10.39,2 -14.26,6.03 -3.84,4 -5.76,9.79 -5.76,17.33zm94.33 37.86l-25.88 -76 21.04 0 15.33 49.81 14.13 -49.81 20.88 0 13.6 49.81 15.65 -49.81 21.35 0 -26.3 76 -20.77 0 -14.07 -48.89 -13.89 48.89 -21.07 0zm107.59 0l0 -104.85 21.62 0 0 104.85 -21.62 0zm91.18 -24.01l21.62 3.37c-2.76,7.34 -7.16,12.93 -13.12,16.79 -5.99,3.83 -13.49,5.76 -22.46,5.76 -14.23,0 -24.78,-4.32 -31.58,-12.96 -5.39,-6.93 -8.1,-15.67 -8.1,-26.24 0,-12.59 3.55,-22.48 10.63,-29.61 7.08,-7.15 16.04,-10.71 26.87,-10.71 12.15,0 21.75,3.73 28.8,11.2 7.02,7.47 10.39,18.91 10.07,34.34l-54.12 0c0.15,5.96 1.89,10.59 5.23,13.91 3.31,3.32 7.47,4.98 12.42,4.98 3.39,0 6.23,-0.85 8.52,-2.56 2.31,-1.71 4.05,-4.46 5.24,-8.27zm1.26 -20.36c-0.16,-5.83 -1.76,-10.27 -4.84,-13.3 -3.08,-3.05 -6.81,-4.56 -11.23,-4.56 -4.71,0 -8.6,1.61 -11.68,4.81 -3.08,3.19 -4.58,7.56 -4.52,13.06l32.27 0zm114.27 44.37l-20.04 0 0 -11.15c-3.34,4.35 -7.31,7.59 -11.86,9.79 -4.55,2.17 -9.15,3.27 -13.78,3.27 -9.44,0 -17.51,-3.52 -24.24,-10.57 -6.71,-7.05 -10.07,-16.87 -10.07,-29.48 0,-12.89 3.26,-22.7 9.8,-29.41 6.55,-6.71 14.81,-10.05 24.8,-10.05 9.15,0 17.1,3.54 23.78,10.59l0 -37.83 21.62 0 0 104.85zm-57.75 -39.47c0,8.13 1.21,14.01 3.6,17.64 3.5,5.28 8.36,7.91 14.62,7.91 4.97,0 9.2,-1.97 12.68,-5.93 3.5,-3.96 5.24,-9.84 5.24,-17.7 0,-8.76 -1.69,-15.06 -5.08,-18.91 -3.39,-3.86 -7.7,-5.78 -12.99,-5.78 -5.13,0 -9.42,1.91 -12.89,5.71 -3.44,3.81 -5.18,9.5 -5.18,17.06zm76.97 44.3l24.77 2.78c0.42,2.71 1.37,4.57 2.84,5.59 2.08,1.44 5.31,2.17 9.73,2.17 5.65,0 9.89,-0.78 12.73,-2.37 1.89,-1.05 3.34,-2.73 4.31,-5.08 0.66,-1.66 1,-4.76 1,-9.23l0.11 -11.11c-6.52,8.27 -14.73,12.4 -24.61,12.4 -10.99,0 -19.73,-4.32 -26.14,-12.93 -5.05,-6.81 -7.57,-15.3 -7.57,-25.43 0,-12.74 3.31,-22.46 9.91,-29.17 6.6,-6.71 14.84,-10.08 24.67,-10.08 10.13,0 18.49,4.12 25.06,12.37l0 -10.76 20.2 0 0 68.14c0,8.96 -0.79,15.67 -2.39,20.09 -1.58,4.45 -3.82,7.91 -6.71,10.45 -2.87,2.51 -6.71,4.51 -11.52,5.93 -4.81,1.44 -10.89,2.15 -18.22,2.15 -13.89,0 -23.72,-2.22 -29.54,-6.64 -5.81,-4.44 -8.71,-10.03 -8.71,-16.84 0,-0.66 0.03,-1.49 0.08,-2.44zm19.41 -44.38c0,8.06 1.68,13.94 5.02,17.67 3.36,3.73 7.52,5.61 12.44,5.61 5.26,0 9.73,-1.92 13.36,-5.76 3.66,-3.83 5.47,-9.5 5.47,-17.01 0,-7.86 -1.73,-13.69 -5.23,-17.5 -3.47,-3.81 -7.89,-5.71 -13.23,-5.71 -5.18,0 -9.44,1.88 -12.81,5.61 -3.34,3.73 -5.02,9.42 -5.02,17.08zm126.36 15.53l21.62 3.37c-2.76,7.34 -7.15,12.93 -13.12,16.79 -5.99,3.83 -13.49,5.76 -22.46,5.76 -14.22,0 -24.77,-4.32 -31.58,-12.96 -5.39,-6.93 -8.1,-15.67 -8.1,-26.24 0,-12.59 3.55,-22.48 10.63,-29.61 7.07,-7.15 16.04,-10.71 26.87,-10.71 12.15,0 21.75,3.73 28.8,11.2 7.02,7.47 10.39,18.91 10.07,34.34l-54.12 0c0.15,5.96 1.89,10.59 5.23,13.91 3.31,3.32 7.47,4.98 12.41,4.98 3.39,0 6.24,-0.85 8.52,-2.56 2.31,-1.71 4.05,-4.46 5.24,-8.27zm1.27 -20.36c-0.16,-5.83 -1.77,-10.27 -4.84,-13.3 -3.08,-3.05 -6.82,-4.56 -11.23,-4.56 -4.71,0 -8.6,1.61 -11.68,4.81 -3.08,3.19 -4.58,7.56 -4.52,13.06l32.27 0zm77.15 10.4l22.25 -2.05c1.34,6.91 4.03,11.96 8.1,15.2 4.08,3.25 9.57,4.86 16.49,4.86 7.31,0 12.83,-1.44 16.54,-4.32 3.71,-2.88 5.58,-6.25 5.58,-10.11 0,-2.49 -0.79,-4.59 -2.34,-6.34 -1.55,-1.73 -4.29,-3.25 -8.18,-4.52 -2.66,-0.88 -8.71,-2.39 -18.17,-4.58 -12.17,-2.83 -20.72,-6.3 -25.64,-10.42 -6.92,-5.78 -10.36,-12.84 -10.36,-21.16 0,-5.35 1.63,-10.38 4.86,-15.04 3.26,-4.66 7.94,-8.2 14.07,-10.64 6.13,-2.44 13.49,-3.66 22.17,-3.66 14.12,0 24.77,2.9 31.9,8.74 7.15,5.83 10.89,13.59 11.26,23.33l-22.88 0.73c-0.98,-5.42 -3.05,-9.3 -6.23,-11.66 -3.18,-2.37 -7.96,-3.56 -14.33,-3.56 -6.57,0 -11.73,1.27 -15.44,3.81 -2.39,1.64 -3.6,3.81 -3.6,6.54 0,2.49 1.13,4.61 3.39,6.37 2.87,2.27 9.84,4.62 20.91,7.05 11.08,2.42 19.25,4.96 24.54,7.54 5.31,2.61 9.47,6.15 12.47,10.66 3,4.52 4.49,10.08 4.49,16.7 0,6 -1.79,11.64 -5.39,16.89 -3.6,5.25 -8.67,9.15 -15.25,11.69 -6.57,2.56 -14.78,3.83 -24.59,3.83 -14.28,0 -25.25,-3.05 -32.9,-9.18 -7.65,-6.1 -12.2,-15.01 -13.7,-26.7zm110.45 -42.03l20.2 0 0 11.15c2.63,-3.81 6.15,-6.88 10.63,-9.25 4.47,-2.34 9.44,-3.51 14.89,-3.51 9.49,0 17.57,3.46 24.19,10.4 6.63,6.91 9.94,16.57 9.94,28.92 0,12.72 -3.34,22.58 -10.02,29.63 -6.68,7.05 -14.78,10.57 -24.3,10.57 -4.52,0 -8.63,-0.83 -12.31,-2.51 -3.65,-1.66 -7.54,-4.52 -11.59,-8.57l0 38.03 -21.62 0 0 -104.85zm21.3 36.83c0,8.57 1.81,14.89 5.47,18.99 3.63,4.08 8.07,6.13 13.28,6.13 5.02,0 9.2,-1.88 12.55,-5.64 3.34,-3.76 4.99,-9.91 4.99,-18.48 0,-8.01 -1.7,-13.93 -5.15,-17.82 -3.42,-3.88 -7.68,-5.81 -12.76,-5.81 -5.28,0 -9.68,1.91 -13.15,5.71 -3.5,3.81 -5.24,9.45 -5.24,16.91zm96.38 39.17l-21.62 0 0 -76 20.04 0 0 10.79c3.44,-5.1 6.55,-8.44 9.31,-10.03 2.76,-1.59 5.89,-2.37 9.39,-2.37 4.95,0 9.71,1.27 14.28,3.78l-6.71 17.52c-3.66,-2.19 -7.05,-3.29 -10.18,-3.29 -3.05,0 -5.62,0.78 -7.73,2.32 -2.1,1.56 -3.76,4.34 -4.97,8.4 -1.21,4.05 -1.81,12.55 -1.81,25.46l0 23.43zm35.69 -38.93c0,-6.69 1.76,-13.15 5.31,-19.4 3.55,-6.27 8.57,-11.03 15.06,-14.33 6.5,-3.3 13.73,-4.96 21.75,-4.96 12.38,0 22.51,3.73 30.43,11.2 7.92,7.49 11.86,16.91 11.86,28.33 0,11.52 -4,21.06 -11.97,28.63 -7.99,7.57 -18.04,11.35 -30.16,11.35 -7.5,0 -14.65,-1.59 -21.46,-4.74 -6.78,-3.14 -11.97,-7.76 -15.51,-13.86 -3.55,-6.08 -5.31,-13.49 -5.31,-22.23zm22.25 1.07c0,7.54 1.92,13.33 5.76,17.33 3.87,4.03 8.6,6.03 14.25,6.03 5.63,0 10.36,-2 14.17,-6.03 3.82,-4 5.74,-9.84 5.74,-17.47 0,-7.45 -1.92,-13.18 -5.74,-17.18 -3.81,-4.03 -8.54,-6.03 -14.17,-6.03 -5.66,0 -10.39,2 -14.25,6.03 -3.84,4 -5.76,9.79 -5.76,17.33zm133.31 37.86l0 -11.37c-3,4.05 -6.92,7.27 -11.78,9.69 -4.87,2.39 -9.99,3.59 -15.39,3.59 -5.52,0 -10.46,-1.12 -14.83,-3.37 -4.39,-2.25 -7.55,-5.42 -9.5,-9.47 -1.97,-4.07 -2.94,-9.69 -2.94,-16.86l0 -48.2 21.62 0 0 35c0,10.72 0.4,17.26 1.21,19.67 0.79,2.42 2.24,4.34 4.37,5.73 2.1,1.42 4.79,2.12 8.04,2.12 3.71,0 7.02,-0.95 9.97,-2.83 2.94,-1.88 4.94,-4.22 6.03,-7.03 1.08,-2.8 1.63,-9.64 1.63,-20.55l0 -32.12 21.62 0 0 76 -20.04 0zm79.65 -76l0 15.96 -14.83 0 0 30.78c0,6.25 0.13,9.88 0.42,10.91 0.29,1.02 0.92,1.88 1.95,2.57 1,0.66 2.21,1 3.66,1 2.03,0 4.92,-0.64 8.73,-1.93l1.81 15.62c-5.02,2 -10.7,3 -17.07,3 -3.89,0 -7.39,-0.61 -10.52,-1.83 -3.13,-1.22 -5.42,-2.8 -6.86,-4.73 -1.48,-1.95 -2.48,-4.57 -3.05,-7.88 -0.45,-2.34 -0.68,-7.08 -0.68,-14.23l0 -33.27 -9.94 0 0 -15.96 9.94 0 0 -15.08 21.62 -11.87 0 26.95 14.83 0zm7.42 54.62l21.77 -3.07c0.92,3.88 2.79,6.83 5.63,8.83 2.82,2.03 6.78,3.03 11.86,3.03 5.6,0 9.81,-0.95 12.65,-2.85 1.89,-1.34 2.84,-3.15 2.84,-5.39 0,-1.51 -0.53,-2.78 -1.55,-3.78 -1.08,-0.95 -3.5,-1.85 -7.23,-2.66 -17.49,-3.59 -28.56,-6.86 -33.24,-9.81 -6.5,-4.12 -9.73,-9.84 -9.73,-17.14 0,-6.61 2.82,-12.15 8.42,-16.64 5.6,-4.49 14.28,-6.74 26.03,-6.74 11.2,0 19.54,1.71 24.98,5.1 5.45,3.42 9.21,8.45 11.26,15.11l-20.35 3.52c-0.87,-2.98 -2.55,-5.27 -5,-6.86 -2.45,-1.58 -5.94,-2.36 -10.5,-2.36 -5.73,0 -9.84,0.73 -12.33,2.22 -1.65,1.05 -2.47,2.42 -2.47,4.07 0,1.44 0.71,2.66 2.15,3.66 1.98,1.34 8.74,3.22 20.31,5.66 11.57,2.44 19.65,5.42 24.22,8.95 4.55,3.56 6.81,8.57 6.81,14.96 0,6.95 -3.13,12.96 -9.41,17.96 -6.26,5 -15.54,7.52 -27.85,7.52 -11.15,0 -19.98,-2.1 -26.51,-6.27 -6.49,-4.17 -10.75,-9.84 -12.75,-17.01zm211.75 -17.28l22.09 6.3c-3.39,11.54 -9.05,20.11 -16.94,25.73 -7.89,5.59 -17.88,8.4 -30,8.4 -15.02,0 -27.35,-4.76 -37.03,-14.28 -9.65,-9.51 -14.49,-22.52 -14.49,-39.05 0,-17.45 4.86,-31.02 14.57,-40.69 9.7,-9.67 22.48,-14.5 38.32,-14.5 13.83,0 25.06,3.81 33.69,11.4 5.16,4.49 8.99,10.94 11.57,19.36l-22.57 4.98c-1.34,-5.42 -4.13,-9.71 -8.36,-12.86 -4.26,-3.14 -9.41,-4.71 -15.46,-4.71 -8.39,0 -15.2,2.78 -20.41,8.37 -5.23,5.56 -7.84,14.59 -7.84,27.09 0,13.23 2.58,22.68 7.71,28.29 5.16,5.64 11.83,8.44 20.06,8.44 6.08,0 11.31,-1.78 15.68,-5.37 4.37,-3.59 7.52,-9.2 9.41,-16.89zm36.48 -0.27c0,-6.69 1.76,-13.15 5.31,-19.4 3.55,-6.27 8.57,-11.03 15.07,-14.33 6.49,-3.3 13.73,-4.96 21.75,-4.96 12.39,0 22.51,3.73 30.43,11.2 7.91,7.49 11.86,16.91 11.86,28.33 0,11.52 -4,21.06 -11.96,28.63 -8,7.57 -18.04,11.35 -30.16,11.35 -7.5,0 -14.65,-1.59 -21.46,-4.74 -6.78,-3.14 -11.97,-7.76 -15.52,-13.86 -3.55,-6.08 -5.31,-13.49 -5.31,-22.23zm22.24 1.07c0,7.54 1.92,13.33 5.76,17.33 3.87,4.03 8.6,6.03 14.25,6.03 5.63,0 10.36,-2 14.17,-6.03 3.82,-4 5.74,-9.84 5.74,-17.47 0,-7.45 -1.92,-13.18 -5.74,-17.18 -3.81,-4.03 -8.55,-6.03 -14.17,-6.03 -5.65,0 -10.39,2 -14.25,6.03 -3.84,4 -5.76,9.79 -5.76,17.33zm77.61 -38.15l19.88 0 0 10.37c7.13,-7.98 15.63,-11.98 25.49,-11.98 5.24,0 9.78,1 13.62,3 3.86,2 7.02,5.03 9.46,9.08 3.6,-4.05 7.5,-7.08 11.65,-9.08 4.15,-2 8.6,-3 13.33,-3 5.99,0 11.07,1.12 15.25,3.39 4.16,2.27 7.26,5.59 9.31,9.98 1.5,3.22 2.23,8.47 2.23,15.72l0 48.52 -21.62 0 0 -43.37c0,-7.54 -0.74,-12.4 -2.24,-14.57 -2,-2.86 -5.1,-4.29 -9.25,-4.29 -3.02,0 -5.9,0.85 -8.57,2.56 -2.66,1.73 -4.61,4.24 -5.79,7.54 -1.18,3.32 -1.76,8.54 -1.76,15.69l0 36.44 -21.61 0 0 -41.59c0,-7.37 -0.4,-12.15 -1.16,-14.28 -0.76,-2.15 -1.94,-3.76 -3.57,-4.81 -1.61,-1.05 -3.81,-1.56 -6.57,-1.56 -3.34,0 -6.34,0.83 -9,2.49 -2.68,1.69 -4.58,4.07 -5.73,7.22 -1.16,3.15 -1.74,8.37 -1.74,15.64l0 36.88 -21.62 0 0 -76zm189.22 51.99l21.62 3.37c-2.76,7.34 -7.16,12.93 -13.12,16.79 -6,3.83 -13.49,5.76 -22.46,5.76 -14.23,0 -24.77,-4.32 -31.58,-12.96 -5.39,-6.93 -8.1,-15.67 -8.1,-26.24 0,-12.59 3.55,-22.48 10.63,-29.61 7.07,-7.15 16.04,-10.71 26.87,-10.71 12.15,0 21.75,3.73 28.8,11.2 7.02,7.47 10.39,18.91 10.07,34.34l-54.12 0c0.16,5.96 1.89,10.59 5.24,13.91 3.31,3.32 7.47,4.98 12.41,4.98 3.39,0 6.23,-0.85 8.52,-2.56 2.31,-1.71 4.05,-4.46 5.23,-8.27zm1.27 -20.36c-0.16,-5.83 -1.77,-10.27 -4.84,-13.3 -3.08,-3.05 -6.82,-4.56 -11.23,-4.56 -4.71,0 -8.6,1.61 -11.68,4.81 -3.08,3.19 -4.57,7.56 -4.52,13.06l32.27 0zm78.42 -7.42c0,-10.69 1.74,-19.67 5.18,-26.95 2.55,-5.35 6.08,-10.16 10.52,-14.4 4.45,-4.25 9.31,-7.4 14.59,-9.47 7.05,-2.76 15.18,-4.15 24.38,-4.15 16.67,0 29.98,4.81 40,14.4 9.99,9.62 14.99,22.97 14.99,40.07 0,16.96 -4.97,30.24 -14.89,39.81 -9.91,9.59 -23.19,14.37 -39.78,14.37 -16.81,0 -30.19,-4.76 -40.11,-14.3 -9.91,-9.52 -14.89,-22.65 -14.89,-39.39zm23.51 -0.71c0,11.88 2.97,20.9 8.89,27.04 5.92,6.13 13.44,9.2 22.54,9.2 9.12,0 16.59,-3.05 22.46,-9.12 5.84,-6.1 8.76,-15.23 8.76,-27.41 0,-12.03 -2.84,-21.02 -8.55,-26.92 -5.68,-5.93 -13.23,-8.88 -22.67,-8.88 -9.42,0 -17.01,3 -22.77,8.98 -5.76,6.01 -8.66,15.04 -8.66,27.12zm157.92 52.5l0 -11.37c-3,4.05 -6.92,7.27 -11.78,9.69 -4.87,2.39 -9.99,3.59 -15.38,3.59 -5.52,0 -10.47,-1.12 -14.83,-3.37 -4.39,-2.25 -7.55,-5.42 -9.5,-9.47 -1.97,-4.07 -2.94,-9.69 -2.94,-16.86l0 -48.2 21.62 0 0 35c0,10.72 0.39,17.26 1.21,19.67 0.79,2.42 2.24,4.34 4.37,5.73 2.1,1.42 4.79,2.12 8.05,2.12 3.7,0 7.02,-0.95 9.96,-2.83 2.95,-1.88 4.94,-4.22 6.02,-7.03 1.08,-2.8 1.63,-9.64 1.63,-20.55l0 -32.12 21.62 0 0 76 -20.04 0zm79.66 -76l0 15.96 -14.83 0 0 30.78c0,6.25 0.13,9.88 0.42,10.91 0.29,1.02 0.92,1.88 1.95,2.57 1,0.66 2.21,1 3.66,1 2.03,0 4.92,-0.64 8.73,-1.93l1.81 15.62c-5.02,2 -10.7,3 -17.07,3 -3.89,0 -7.39,-0.61 -10.52,-1.83 -3.13,-1.22 -5.42,-2.8 -6.86,-4.73 -1.47,-1.95 -2.47,-4.57 -3.05,-7.88 -0.44,-2.34 -0.68,-7.08 -0.68,-14.23l0 -33.27 -9.94 0 0 -15.96 9.94 0 0 -15.08 21.62 -11.87 0 26.95 14.83 0z"/>
    <g>
     <path class="fil9" d="M2255.08 1252.3c-3.49,8.55 -6.33,15 -8.53,19.33 -2.56,4.34 -5.11,7.47 -7.74,9.36 -5.12,3.71 -13.79,5.53 -26.02,5.53l-62.27 0c3.48,-5.99 6.05,-10.67 7.68,-13.97 1.71,-3.25 2.85,-6.39 3.56,-9.41 1.63,-6.1 2.49,-12.49 2.49,-19.05l0 -158.8c0,-7.7 -1.43,-13.63 -4.34,-17.74 -2.28,-2.34 -9.88,-4.05 -22.96,-5.19 2.77,-8.67 5.33,-15.06 7.75,-19.17 1.92,-3.82 4.12,-6.73 6.61,-8.9 2.7,-1.77 5.68,-3.25 8.95,-4.51 3.2,-0.86 7.25,-1.31 12.08,-1.31l14.79 0.34 23.6 0.34 15 -0.34 15.57 0c-3.34,5.47 -5.83,10.15 -7.46,14.03 -2.06,4.1 -3.34,7.81 -3.77,11.01 -1.78,6.56 -2.7,13.29 -2.7,20.19l0 154.87c0,5.76 0.14,9.92 0.42,12.43 0.29,2.51 1.21,4.51 2.92,6.1 1.78,1.54 4.34,2.68 7.68,3.31 3.48,1.02 9.03,1.54 16.7,1.54zm154.38 -176.6c27.08,0 46.77,6.96 59.07,20.88 5.97,6.79 10.45,15.23 13.51,25.21 3.06,10.38 4.62,22.87 4.62,37.42l0 74.21c0,8.9 1.07,14.26 3.13,16.03 1.14,1.2 3.41,2.17 6.89,2.85 3.2,0.85 8.03,1.31 14.57,1.31 -3.49,9.12 -6.18,15.51 -8.17,19.22 -2.35,3.53 -4.76,6.27 -7.25,8.15 -5.19,3.71 -13.29,5.53 -24.38,5.53l-55.94 0c4.05,-6.67 6.61,-11.35 7.75,-13.97 1.07,-2.57 2.2,-6.27 3.34,-11.07 0.78,-4.79 1.36,-8.72 1.64,-11.69 0,-2.91 0,-5.3 0,-7.19l0 -93.71c0,-13.29 -2.7,-23.1 -8.17,-29.43 -5.26,-6.1 -13.29,-9.18 -24.17,-9.18 -12.51,0 -21.68,3.31 -27.37,9.87 -6.25,6.68 -9.38,17.97 -9.38,33.88l0 77.69c0,2.68 0.14,5.65 0.42,8.9 0,3.19 1,6.04 2.92,8.5 1.92,1.88 4.55,3.08 7.75,3.48 3.05,0.69 7.39,1.03 13.08,1.03 -2.77,7.47 -5.48,13.23 -8.1,17.39 -2.49,4.11 -4.97,7.3 -7.53,9.7 -5.4,3.88 -13.51,5.82 -24.31,5.82l-54.94 0c3.34,-6.22 5.68,-11.29 7.11,-15.23 1.49,-3.54 2.42,-6.16 2.7,-7.82 1.63,-5.93 2.49,-12.78 2.49,-20.53l0 -113.28c0,-2.68 -0.29,-5.3 -0.85,-7.87 -0.57,-2.22 -1.06,-3.99 -1.63,-5.31 -1.85,-1.71 -8.67,-2.96 -20.62,-3.88 2.35,-7.47 4.76,-13.46 7.25,-18.02 2.35,-4.34 4.55,-7.47 6.47,-9.36 4.84,-3.59 13.22,-5.42 25.16,-5.42l7.32 0 12.87 -1.02 21.61 -3.42c-0.29,1.48 -0.43,2.97 -0.43,4.45 -0.22,1.6 -0.36,2.74 -0.36,3.37 0,2.34 0.07,4.62 0.22,6.9 9.45,-3.71 17.7,-6.61 24.81,-8.84 11.94,-3.71 20.97,-5.53 26.94,-5.53zm258.45 -5.19c-5.4,12.55 -9.53,21.51 -12.3,26.7 -3.2,5.25 -6.04,8.9 -8.53,10.89 -5.97,4.34 -14.43,6.51 -25.23,6.51l-9.38 0 0 121.84c0,7.81 0.85,12.95 2.49,15.51 1.84,2.45 4.55,3.71 8.17,3.71l7.25 -1.03 8.53 -1.31c4.34,0 8.81,1.2 13.37,3.65l12.3 13.75c-6.26,3.88 -11.66,7.02 -16.28,9.36 -4.55,2.34 -9.38,4.39 -14.36,6.21 -9.45,2.68 -18.62,4 -27.51,4 -18.27,0 -31.41,-4.68 -39.67,-14.03 -8.17,-9.12 -12.29,-22.75 -12.29,-40.78l0 -120.87 -4.97 0 -10.02 0.68c-2.49,0.34 -4.55,0.74 -6.26,1.14 -5.26,1.6 -10.45,3.02 -15.64,4.4 3.2,-10.04 6.12,-17.69 8.74,-22.93 2.28,-5.25 4.41,-8.9 6.47,-11.01 5.19,-4.79 12.37,-7.19 21.68,-7.19l1.28 -17.74c0,-13.23 9.81,-22.82 29.35,-28.75l27.37 -9.53 0 56.13 16.28 0 14.14 -1.02c2.77,-0.46 5.62,-1.14 8.53,-2 2.78,-0.68 8.32,-2.79 16.5,-6.27zm210.68 197.87c-9.03,4.34 -17.06,7.76 -24.17,10.21 -7.46,2.79 -15.07,5.02 -22.75,6.73 -7.74,1.71 -14.99,2.91 -21.75,3.59 -7.11,0.91 -14.15,1.37 -21.25,1.37 -35.25,0 -63.97,-10.27 -86.15,-30.75 -22.25,-20.59 -33.34,-47.46 -33.34,-80.54 0,-29.89 10.38,-54.48 31.13,-73.87 20.75,-19.39 46.91,-29.09 78.54,-29.09 13.36,0 26.09,2.28 38.31,6.85 12.79,4.34 23.6,10.72 32.48,19.17l4.34 4.05c3.91,3.88 7.18,6.73 9.74,8.55 2.56,1.89 5.97,3.66 10.3,5.48 -2.56,10.89 -5.4,20.14 -8.53,27.72 -3.48,7.82 -7.6,14.32 -12.29,19.56 -8.32,9.36 -23.03,17.8 -44.14,25.27l-69.51 24.7c2.63,5.7 5.68,10.61 9.24,14.71 3.55,4.17 7.89,8.16 13.01,12.04 11.37,7.02 24.31,10.55 38.74,10.55 6.26,0 14.79,-1.02 25.59,-3.02 5.12,-1.19 9.74,-2.16 13.72,-2.85 3.91,-0.4 7.04,-0.63 9.38,-0.63 5.97,0 10.73,1.37 14.36,4.17 1.56,0.91 3.55,2.57 6.04,5.02 2.63,2.79 5.61,6.44 8.95,11.01zm-68.45 -132.9c0,-6.78 -3.2,-12.78 -9.6,-18.02 -6.26,-5.25 -13.72,-7.87 -22.46,-7.87 -14.07,0 -25.87,5.59 -35.54,16.71 -9.6,11.18 -14.43,25.95 -14.43,44.49l0.42 8.15 0.36 3.54 49.19 -16.71c11.09,-3.94 19.19,-8.39 24.31,-13.41 5.11,-5.02 7.74,-10.61 7.74,-16.88zm153.74 -37.59l7.75 -8.5c9.03,-7.98 19.76,-11.97 32.27,-11.97l12.51 0.68 12.79 0.69 3.13 0 15.21 -2.05c-3.06,10.04 -5.83,17.51 -8.25,22.53 -2.42,5.02 -5.05,8.9 -7.82,11.69 -5.47,5.02 -13.72,8.56 -24.88,10.55l-8.1 0.97c-9.31,0.8 -15.85,2.74 -19.62,5.88 -2.2,1.65 -4.48,5.02 -6.9,10.04 -1.63,5.87 -2.48,11.98 -2.48,18.37l0 75.01c0,7.64 1.28,13.46 3.76,17.34 1.35,1.43 3.7,2.51 6.83,3.19 2.84,0.85 7.6,1.31 14.43,1.31 -2.77,8.27 -5.33,14.26 -7.61,18.14 -2.28,3.83 -4.98,6.79 -8.03,8.96 -6.26,3.88 -15.07,5.82 -26.44,5.82l-55.09 0c3.2,-5.13 5.76,-9.7 7.68,-13.69 1.78,-4.11 2.99,-7.36 3.55,-9.7 1.64,-5.93 2.49,-12.55 2.49,-19.9l0 -113.62c0,-2.63 -0.28,-5.25 -0.85,-7.82 -0.57,-2.22 -1.07,-4.05 -1.64,-5.36 -1.85,-1.65 -8.67,-2.97 -20.62,-3.82 2.35,-7.81 4.62,-13.97 6.83,-18.59 2.42,-4.22 4.69,-7.25 6.89,-9.19 5.12,-3.65 13.22,-5.48 24.31,-5.48l9.38 0 12.09 -0.68c5.26,-0.46 11.8,-2 19.54,-4.68l-3.13 23.9zm215.87 -22.19c27.08,0 46.77,6.96 59.06,20.88 5.97,6.79 10.45,15.23 13.51,25.21 3.06,10.38 4.62,22.87 4.62,37.42l0 74.21c0,8.9 1.07,14.26 3.13,16.03 1.14,1.2 3.42,2.17 6.9,2.85 3.2,0.85 8.03,1.31 14.57,1.31 -3.48,9.12 -6.18,15.51 -8.17,19.22 -2.35,3.53 -4.76,6.27 -7.25,8.15 -5.19,3.71 -13.29,5.53 -24.38,5.53l-55.94 0c4.05,-6.67 6.61,-11.35 7.74,-13.97 1.07,-2.57 2.2,-6.27 3.34,-11.07 0.78,-4.79 1.35,-8.72 1.63,-11.69 0,-2.91 0,-5.3 0,-7.19l0 -93.71c0,-13.29 -2.7,-23.1 -8.17,-29.43 -5.26,-6.1 -13.29,-9.18 -24.17,-9.18 -12.51,0 -21.68,3.31 -27.37,9.87 -6.26,6.68 -9.38,17.97 -9.38,33.88l0 77.69c0,2.68 0.14,5.65 0.43,8.9 0,3.19 1,6.04 2.91,8.5 1.92,1.88 4.55,3.08 7.75,3.48 3.05,0.69 7.39,1.03 13.08,1.03 -2.77,7.47 -5.47,13.23 -8.1,17.39 -2.49,4.11 -4.97,7.3 -7.53,9.7 -5.41,3.88 -13.51,5.82 -24.31,5.82l-54.94 0c3.34,-6.22 5.68,-11.29 7.11,-15.23 1.49,-3.54 2.42,-6.16 2.7,-7.82 1.64,-5.93 2.49,-12.78 2.49,-20.53l0 -113.28c0,-2.68 -0.29,-5.3 -0.85,-7.87 -0.57,-2.22 -1.07,-3.99 -1.64,-5.31 -1.85,-1.71 -8.67,-2.96 -20.62,-3.88 2.35,-7.47 4.76,-13.46 7.25,-18.02 2.35,-4.34 4.55,-7.47 6.47,-9.36 4.83,-3.59 13.22,-5.42 25.16,-5.42l7.32 0 12.87 -1.02 21.61 -3.42c-0.28,1.48 -0.42,2.97 -0.42,4.45 -0.22,1.6 -0.36,2.74 -0.36,3.37 0,2.34 0.07,4.62 0.22,6.9 9.46,-3.71 17.7,-6.61 24.8,-8.84 11.94,-3.71 20.97,-5.53 26.94,-5.53zm334.85 178.82c-5.4,13.63 -9.95,22.01 -13.71,25.21 -3.63,3.19 -9.74,5.48 -18.34,6.79l-2.49 0 -3.34 0.34 -7.75 0c-6.54,0 -11.09,0.23 -13.71,0.68l-20.9 3.6 1.7 -16.15 0.43 -8.5 0 8.16c-0.57,0.23 -1.14,0.34 -1.71,0.34 -8.18,4.34 -13.86,7.13 -17.06,8.44 -12.79,4.56 -25.16,6.85 -37.1,6.85 -24.45,0 -44.36,-7.3 -59.78,-21.9 -15.57,-14.37 -23.39,-32.97 -23.39,-55.78 0,-23.27 8.03,-41.98 24.16,-56.13 15.99,-13.92 37.53,-20.88 64.61,-20.88 6.26,0 12.01,0.45 17.2,1.31 5.25,0.91 10.38,2.51 15.57,4.85 8.6,4.17 13.57,6.51 14.99,7.19 0,-0.23 0.14,-0.57 0.36,-0.97l0 10.84 0.42 -6.67c0,-15.23 -4.34,-26.29 -13.08,-33.37 -9.17,-6.79 -23.53,-10.21 -43.07,-10.21 -4.05,0 -8.25,0.11 -12.52,0.34 -4.19,0.23 -9.09,0.69 -14.78,1.31 -5.97,0.91 -18.55,3.19 -37.6,6.91 4.34,-10.44 8.24,-18.37 11.87,-23.73 3.62,-4.96 7.74,-8.61 12.29,-10.84 8.6,-4.34 25.45,-6.51 50.47,-6.51 36.39,0 62.69,7.19 78.97,21.56 7.89,6.85 14,15.97 18.34,27.44 3.9,11.41 5.82,25.1 5.82,41.19l0 68.39c0,9.42 0.93,14.78 2.7,16.09 1.42,1.66 3.91,2.74 7.61,3.19 3.7,0.46 7.96,0.63 12.79,0.63zm-78.97 -43.53c0,-13.06 -3.41,-23.21 -10.24,-30.46 -7.03,-7.13 -16.56,-10.72 -28.5,-10.72 -5.97,0 -11.37,0.8 -16.21,2.34 -4.83,1.89 -9.17,4.68 -12.93,8.39 -7.03,7.7 -10.59,18.08 -10.59,31.14 0,13.29 3.91,23.9 11.65,31.83 7.61,8.15 17.13,12.21 28.5,12.21 11.66,0 21.04,-3.93 28.07,-11.87 6.83,-7.53 10.24,-18.42 10.24,-32.85zm237.27 -140.49c-5.41,12.55 -9.53,21.51 -12.3,26.7 -3.2,5.25 -6.04,8.9 -8.53,10.89 -5.97,4.34 -14.43,6.51 -25.23,6.51l-9.38 0 0 121.84c0,7.81 0.85,12.95 2.49,15.51 1.85,2.45 4.55,3.71 8.17,3.71l7.25 -1.03 8.53 -1.31c4.34,0 8.81,1.2 13.37,3.65l12.3 13.75c-6.26,3.88 -11.66,7.02 -16.28,9.36 -4.55,2.34 -9.38,4.39 -14.36,6.21 -9.45,2.68 -18.62,4 -27.51,4 -18.27,0 -31.41,-4.68 -39.66,-14.03 -8.18,-9.12 -12.3,-22.75 -12.3,-40.78l0 -120.87 -4.97 0 -10.02 0.68c-2.49,0.34 -4.55,0.74 -6.26,1.14 -5.26,1.6 -10.45,3.02 -15.64,4.4 3.2,-10.04 6.12,-17.69 8.74,-22.93 2.28,-5.25 4.41,-8.9 6.47,-11.01 5.19,-4.79 12.37,-7.19 21.68,-7.19l1.28 -17.74c0,-13.23 9.81,-22.82 29.36,-28.75l27.36 -9.53 0 56.13 16.28 0 14.14 -1.02c2.77,-0.46 5.61,-1.14 8.53,-2 2.77,-0.68 8.32,-2.79 16.5,-6.27zm101.07 -59.83l-12.94 29.72c-1.35,3.19 -2.92,5.7 -4.55,7.47 -2.06,2 -5.33,4.1 -9.81,6.22 -4.83,2.34 -11.73,3.48 -20.54,3.48l-38.74 0 13.15 -29.72c2.35,-5.42 6.61,-9.7 12.87,-12.83 5.97,-2.91 13.15,-4.34 21.61,-4.34l38.96 0zm5.4 242.93c-2.77,7.47 -5.48,13.29 -8.11,17.39 -2.56,4.11 -5.11,7.36 -7.74,9.7 -2.77,1.88 -6.33,3.25 -10.59,4.17 -4.48,1.08 -9.52,1.65 -15.21,1.65l-53.24 0c3.06,-5.13 5.4,-9.36 7.11,-12.66 1.49,-3.48 2.7,-7.47 3.55,-12.04 0.78,-4.56 1.35,-8.39 1.64,-11.35 0,-2.91 0,-5.42 0,-7.53l0 -108.38c0,-8.67 -1.43,-14.49 -4.34,-17.34 -1.14,-1.48 -2.98,-2.51 -5.54,-3.19 -2.56,-0.68 -7.39,-1.2 -14.5,-1.66 3.2,-7.59 6.18,-13.63 8.89,-18.14 2.7,-4.51 5.11,-7.59 7.39,-9.24 5.69,-3.48 13.65,-5.19 23.89,-5.19l56.15 0c-4.26,5.59 -6.97,9.7 -8.1,12.38 -1.35,2.96 -2.49,6.79 -3.34,11.35 -1.07,4.56 -1.63,8.38 -1.63,11.52 -0.29,3.19 -0.43,5.87 -0.43,7.99l0 108.72c0,5.42 0.29,9.19 0.85,11.18 0.29,2.11 0.93,3.82 2.06,5.19 1.14,1.54 2.92,2.79 5.41,3.82 2.63,1.14 7.96,1.66 15.85,1.66zm225.75 -70.45c0,33.31 -9.1,59.55 -27.29,78.72 -18.55,19.16 -44,28.75 -76.34,28.75 -32.77,0 -58.22,-9.7 -76.34,-29.09 -18.2,-19.17 -27.29,-45.29 -27.29,-78.38 0,-33.31 9.24,-59.55 27.65,-78.72 18.2,-19.16 43.5,-28.75 75.98,-28.75 32.34,0 57.79,9.47 76.34,28.41 18.2,18.94 27.29,45.29 27.29,79.06zm-62.27 0c0,-24.64 -4.05,-43.23 -12.08,-55.84 -6.47,-11.12 -16.28,-16.71 -29.29,-16.71 -12.44,0 -22.39,5.99 -29.71,18.03 -7.75,12.15 -11.65,30.34 -11.65,54.53 0,24.87 3.77,43.12 11.23,54.82 7.04,11.58 17.13,17.39 30.14,17.39 12.72,0 22.82,-6.04 30.14,-18.08 7.47,-11.92 11.23,-29.94 11.23,-54.13zm213.8 -107.46c27.08,0 46.77,6.96 59.06,20.88 5.97,6.79 10.45,15.23 13.51,25.21 3.06,10.38 4.62,22.87 4.62,37.42l0 74.21c0,8.9 1.07,14.26 3.13,16.03 1.14,1.2 3.41,2.17 6.89,2.85 3.2,0.85 8.04,1.31 14.58,1.31 -3.49,9.12 -6.18,15.51 -8.18,19.22 -2.35,3.53 -4.76,6.27 -7.25,8.15 -5.19,3.71 -13.29,5.53 -24.38,5.53l-55.94 0c4.05,-6.67 6.61,-11.35 7.75,-13.97 1.07,-2.57 2.2,-6.27 3.34,-11.07 0.78,-4.79 1.35,-8.72 1.64,-11.69 0,-2.91 0,-5.3 0,-7.19l0 -93.71c0,-13.29 -2.71,-23.1 -8.18,-29.43 -5.26,-6.1 -13.29,-9.18 -24.17,-9.18 -12.51,0 -21.68,3.31 -27.36,9.87 -6.26,6.68 -9.39,17.97 -9.39,33.88l0 77.69c0,2.68 0.14,5.65 0.43,8.9 0,3.19 1,6.04 2.91,8.5 1.92,1.88 4.55,3.08 7.75,3.48 3.06,0.69 7.39,1.03 13.08,1.03 -2.77,7.47 -5.48,13.23 -8.11,17.39 -2.49,4.11 -4.97,7.3 -7.53,9.7 -5.41,3.88 -13.51,5.82 -24.3,5.82l-54.94 0c3.34,-6.22 5.68,-11.29 7.11,-15.23 1.49,-3.54 2.42,-6.16 2.7,-7.82 1.64,-5.93 2.49,-12.78 2.49,-20.53l0 -113.28c0,-2.68 -0.29,-5.3 -0.85,-7.87 -0.57,-2.22 -1.07,-3.99 -1.64,-5.31 -1.85,-1.71 -8.67,-2.96 -20.62,-3.88 2.35,-7.47 4.76,-13.46 7.25,-18.02 2.35,-4.34 4.55,-7.47 6.47,-9.36 4.83,-3.59 13.22,-5.42 25.16,-5.42l7.33 0 12.87 -1.02 21.61 -3.42c-0.29,1.48 -0.42,2.97 -0.42,4.45 -0.22,1.6 -0.36,2.74 -0.36,3.37 0,2.34 0.08,4.62 0.22,6.9 9.46,-3.71 17.7,-6.61 24.81,-8.84 11.94,-3.71 20.97,-5.53 26.94,-5.53zm334.86 178.82c-5.4,13.63 -9.95,22.01 -13.72,25.21 -3.62,3.19 -9.74,5.48 -18.34,6.79l-2.49 0 -3.34 0.34 -7.74 0c-6.54,0 -11.09,0.23 -13.72,0.68l-20.9 3.6 1.7 -16.15 0.43 -8.5 0 8.16c-0.57,0.23 -1.14,0.34 -1.7,0.34 -8.18,4.34 -13.86,7.13 -17.06,8.44 -12.79,4.56 -25.16,6.85 -37.1,6.85 -24.45,0 -44.35,-7.3 -59.78,-21.9 -15.57,-14.37 -23.39,-32.97 -23.39,-55.78 0,-23.27 8.03,-41.98 24.16,-56.13 15.99,-13.92 37.53,-20.88 64.62,-20.88 6.25,0 12.01,0.45 17.2,1.31 5.26,0.91 10.38,2.51 15.57,4.85 8.6,4.17 13.58,6.51 15,7.19 0,-0.23 0.14,-0.57 0.36,-0.97l0 10.84 0.43 -6.67c0,-15.23 -4.34,-26.29 -13.08,-33.37 -9.17,-6.79 -23.52,-10.21 -43.07,-10.21 -4.05,0 -8.25,0.11 -12.51,0.34 -4.19,0.23 -9.1,0.69 -14.78,1.31 -5.97,0.91 -18.55,3.19 -37.6,6.91 4.34,-10.44 8.25,-18.37 11.87,-23.73 3.62,-4.96 7.74,-8.61 12.3,-10.84 8.6,-4.34 25.45,-6.51 50.47,-6.51 36.39,0 62.69,7.19 78.97,21.56 7.89,6.85 14,15.97 18.34,27.44 3.9,11.41 5.83,25.1 5.83,41.19l0 68.39c0,9.42 0.92,14.78 2.7,16.09 1.42,1.66 3.9,2.74 7.61,3.19 3.69,0.46 7.96,0.63 12.79,0.63zm-78.97 -43.53c0,-13.06 -3.41,-23.21 -10.24,-30.46 -7.03,-7.13 -16.56,-10.72 -28.5,-10.72 -5.97,0 -11.37,0.8 -16.21,2.34 -4.83,1.89 -9.17,4.68 -12.94,8.39 -7.03,7.7 -10.59,18.08 -10.59,31.14 0,13.29 3.91,23.9 11.66,31.83 7.61,8.15 17.13,12.21 28.5,12.21 11.66,0 21.04,-3.93 28.08,-11.87 6.82,-7.53 10.24,-18.42 10.24,-32.85zm200.45 42.61c-3.06,8.27 -5.9,14.26 -8.53,18.02 -2.49,4.17 -5.19,7.13 -8.1,9.07 -6.26,3.88 -15.07,5.82 -26.44,5.82l-51.82 0c3.06,-5.13 5.41,-9.36 7.11,-12.72 1.49,-3.42 2.7,-7.42 3.55,-11.98 0.78,-4.56 1.35,-8.39 1.64,-11.41 0,-2.85 0,-5.36 0,-7.47l0 -182.24c0,-8.27 -1.28,-14.09 -3.77,-17.57 -2.35,-2 -9.09,-3.42 -20.19,-4.33 2.91,-7.82 5.62,-13.75 8.1,-17.86 2.35,-3.93 4.91,-6.85 7.75,-8.9 5.4,-3.88 14.22,-5.82 26.37,-5.82l52.45 0c-3.48,5.25 -5.9,9.47 -7.32,12.72 -1.35,3.19 -2.49,7.02 -3.34,11.35 -0.78,4.22 -1.21,7.93 -1.21,11.18 -0.28,3.42 -0.42,6.16 -0.42,8.16l0 182.07c0,5.48 0.29,9.24 0.85,11.24 0.29,2.11 0.93,3.82 2.06,5.13 1.14,1.6 2.91,2.85 5.4,3.88 2.63,1.08 7.96,1.66 15.85,1.66z"/>
     <path class="fil9" d="M4960.43 1222.41c0,19.73 -9.67,35.93 -28.93,48.65 -19.76,12.83 -44.78,19.22 -75.2,19.22 -20.68,0 -39.87,-2.97 -57.5,-8.9 -17.91,-5.36 -35.68,-14.6 -53.31,-27.72 6.54,-14.37 13.93,-23.84 22.32,-28.41 3.84,-2.57 9.81,-4.91 17.77,-7.07 7.96,-2.17 19.55,-4.51 34.68,-6.96 -4.83,6.56 -7.75,10.61 -8.67,12.15 -0.85,1.48 -1.78,2.91 -2.56,4.22l-0.85 4.51c0,5.02 4.26,10.04 12.72,15.06 3.7,2.23 8.6,4.05 14.57,5.42 5.97,1.43 11.8,2.11 17.49,2.11 12.8,0 23.1,-2.51 30.92,-7.53 7.82,-5.02 11.8,-11.29 11.8,-18.88 0,-5.93 -4.26,-13.01 -12.72,-21.22 -8.6,-7.93 -21.47,-17.51 -38.52,-28.75l-18.77 -12.21c-21.82,-15.17 -37.24,-28.29 -46.41,-39.47 -9.17,-11.12 -13.79,-23.33 -13.79,-36.57 0,-19.39 8.96,-35.02 26.87,-46.89 17.91,-11.86 41.51,-17.8 70.87,-17.8 15.92,0 31.13,2.17 45.56,6.5 13.36,3.37 29.71,10.32 49.18,20.88 -4.05,7.7 -7.74,13.58 -11.01,17.74 -3.76,4.11 -8.38,7.65 -13.79,10.67 -5.68,3.13 -12.51,5.64 -20.4,7.53 -8.17,1.77 -19.97,2.68 -35.39,2.68 6.82,-5.47 11.02,-8.89 12.72,-10.21 1.49,-1.43 2.7,-2.8 3.49,-4.11l0.85 -3.08c0,-3.65 -2.92,-6.79 -8.75,-9.35 -6.82,-3.37 -15.28,-5.02 -25.37,-5.02 -10.31,0 -18.7,2.05 -25.23,6.16 -6.54,4.05 -9.81,9.07 -9.81,15.06 0,5.02 2.84,10.61 8.53,16.71 5.48,6.38 16.85,15.63 34.2,27.78l17.48 11.18c23.31,16.03 39.38,27.66 48.12,34.91 8.6,7.59 15.35,15.63 20.18,24.07 4.48,8.39 6.68,17.34 6.68,26.93zm214.58 33.6c-5.68,5.99 -11.8,11.18 -18.27,15.57 -6.82,4.62 -13.79,8.5 -20.82,11.52 -14.36,5.02 -29.43,7.53 -45.21,7.53 -33.34,0 -60.06,-9.87 -80.18,-29.55 -20.26,-19.39 -30.42,-44.72 -30.42,-75.98 0,-31.66 10.66,-57.84 32.05,-78.66 20.97,-20.48 48.55,-30.74 82.67,-30.74 12.22,0 24.74,1.83 37.53,5.48 11.38,2.68 25.59,8.61 42.65,17.68 -4.83,7.13 -9.31,13.18 -13.51,18.2 -4.33,5.25 -7.53,8.61 -9.81,10.21 -6.25,3.65 -14.21,5.53 -23.95,5.53l-11.45 0 0 -6.56 0.86 -3.02c0,-3.88 -2.42,-7.3 -7.32,-10.27 -4.83,-2.91 -10.95,-4.39 -18.34,-4.39 -13.58,0 -25.23,6.44 -34.97,19.34 -9.74,13.23 -14.57,30.8 -14.57,52.7 0,22.7 5.4,40.9 16.27,54.59 9.95,12.55 23.39,18.82 40.16,18.82 7.68,0 17.56,-2.06 29.79,-6.16 11.94,-4.17 19.69,-6.22 23.1,-6.22 3.06,0 6.47,1.2 10.24,3.54 1.92,0.91 6.47,4.51 13.51,10.84zm233.78 -2.4c-2.77,8.21 -5.33,14.26 -7.61,18.14 -2.27,3.83 -4.83,6.68 -7.6,8.61 -2.91,2.11 -6.68,3.59 -11.23,4.51 -4.76,1.08 -10.24,1.65 -16.49,1.65l-52.6 0c3.34,-5.59 5.9,-10.44 7.75,-14.54 1.64,-3.76 2.91,-7.93 3.77,-12.49 0.78,-4.39 1.35,-7.24 1.63,-8.72 0,-3.76 0,-6.51 0,-8.16l0 -93.71c0,-7.02 -0.57,-12.95 -1.63,-17.74 -1.43,-4.79 -3.7,-8.9 -6.89,-12.38 -5.12,-5.65 -13.08,-8.5 -23.74,-8.5 -12.58,0 -21.89,3.48 -27.87,10.49 -6.25,7.36 -9.38,18.48 -9.38,33.26l0 77.69c0,7.7 1.35,13.29 3.98,16.71 2.2,3.48 9.17,5.19 20.83,5.19 -3.06,8.21 -5.9,14.26 -8.6,18.02 -2.49,4.17 -5.19,7.13 -8.1,9.07 -6.26,3.88 -15.07,5.82 -26.44,5.82l-52.6 0c3.2,-4.91 5.68,-9.24 7.32,-13.01 1.35,-3.7 2.42,-7.02 3.13,-10.04 1.63,-5.93 2.49,-12.78 2.49,-20.53l0 -182.24c0,-7.59 -1.35,-13.35 -3.98,-17.23 -1.35,-1.31 -3.34,-2.34 -5.9,-3.02 -2.56,-0.63 -7.39,-1.2 -14.5,-1.65 3.2,-8.44 5.9,-14.44 8.17,-17.86 1.92,-3.36 4.48,-6.22 7.68,-8.56 5.68,-4.1 13.86,-6.16 24.38,-6.16l54.66 0c-5.69,10.27 -9.1,17.85 -10.24,22.87 -1.21,5.25 -1.84,9.47 -1.84,12.72 -0.29,3.19 -0.43,5.7 -0.43,7.47l0 40.78c1.78,-1.36 4.12,-2.85 6.89,-4.51 2.91,-1.36 5.9,-2.68 8.96,-4.05 11.09,-4.1 22.32,-6.16 33.76,-6.16 27.37,0 47.27,6.73 59.71,20.19 12.44,13.52 18.62,34.74 18.62,63.66l0 74.21c0,8.44 1.07,13.92 3.13,16.37 1.35,1.2 3.48,2.17 6.33,2.79 2.84,0.69 7.67,1.03 14.5,1.03zm221.77 -70.45c0,33.31 -9.1,59.55 -27.29,78.72 -18.55,19.16 -44,28.75 -76.34,28.75 -32.77,0 -58.21,-9.7 -76.34,-29.09 -18.2,-19.17 -27.29,-45.29 -27.29,-78.38 0,-33.31 9.24,-59.55 27.65,-78.72 18.2,-19.16 43.5,-28.75 75.98,-28.75 32.34,0 57.79,9.47 76.34,28.41 18.19,18.94 27.29,45.29 27.29,79.06zm-62.27 0c0,-24.64 -4.05,-43.23 -12.08,-55.84 -6.47,-11.12 -16.28,-16.71 -29.29,-16.71 -12.44,0 -22.39,5.99 -29.71,18.03 -7.75,12.15 -11.66,30.34 -11.66,54.53 0,24.87 3.77,43.12 11.23,54.82 7.04,11.58 17.13,17.39 30.14,17.39 12.73,0 22.82,-6.04 30.14,-18.08 7.47,-11.92 11.23,-29.94 11.23,-54.13zm288.44 0c0,33.31 -9.09,59.55 -27.29,78.72 -18.55,19.16 -44,28.75 -76.34,28.75 -32.77,0 -58.22,-9.7 -76.34,-29.09 -18.2,-19.17 -27.29,-45.29 -27.29,-78.38 0,-33.31 9.24,-59.55 27.65,-78.72 18.2,-19.16 43.5,-28.75 75.98,-28.75 32.34,0 57.79,9.47 76.34,28.41 18.2,18.94 27.29,45.29 27.29,79.06zm-62.26 0c0,-24.64 -4.05,-43.23 -12.08,-55.84 -6.47,-11.12 -16.28,-16.71 -29.29,-16.71 -12.44,0 -22.39,5.99 -29.71,18.03 -7.75,12.15 -11.65,30.34 -11.65,54.53 0,24.87 3.76,43.12 11.23,54.82 7.04,11.58 17.13,17.39 30.14,17.39 12.72,0 22.82,-6.04 30.13,-18.08 7.47,-11.92 11.23,-29.94 11.23,-54.13zm187.22 70.45c-3.06,8.27 -5.9,14.26 -8.53,18.02 -2.49,4.17 -5.19,7.13 -8.1,9.07 -6.26,3.88 -15.07,5.82 -26.44,5.82l-51.82 0c3.06,-5.13 5.4,-9.36 7.11,-12.72 1.49,-3.42 2.7,-7.42 3.55,-11.98 0.78,-4.56 1.35,-8.39 1.63,-11.41 0,-2.85 0,-5.36 0,-7.47l0 -182.24c0,-8.27 -1.28,-14.09 -3.76,-17.57 -2.35,-2 -9.1,-3.42 -20.19,-4.33 2.91,-7.82 5.61,-13.75 8.1,-17.86 2.35,-3.93 4.91,-6.85 7.75,-8.9 5.4,-3.88 14.22,-5.82 26.37,-5.82l52.46 0c-3.48,5.25 -5.9,9.47 -7.32,12.72 -1.35,3.19 -2.49,7.02 -3.34,11.35 -0.78,4.22 -1.21,7.93 -1.21,11.18 -0.28,3.42 -0.43,6.16 -0.43,8.16l0 182.07c0,5.48 0.29,9.24 0.85,11.24 0.28,2.11 0.93,3.82 2.06,5.13 1.14,1.6 2.92,2.85 5.4,3.88 2.63,1.08 7.96,1.66 15.86,1.66z"/>
    </g>
   </g>
  </g>
 </g>
</svg>
