<?xml version="1.0" encoding="UTF-8"?>
<!DOCTYPE svg PUBLIC "-//W3C//DTD SVG 1.1//EN" "http://www.w3.org/Graphics/SVG/1.1/DTD/svg11.dtd">
<!-- Creator: CorelDRAW 2019 (64-Bit) -->
<svg xmlns="http://www.w3.org/2000/svg" xml:space="preserve" width="134.408mm" height="134.408mm" version="1.1" style="shape-rendering:geometricPrecision; text-rendering:geometricPrecision; image-rendering:optimizeQuality; fill-rule:evenodd; clip-rule:evenodd"
viewBox="0 0 3620.03 3620.03"
 xmlns:xlink="http://www.w3.org/1999/xlink">
 <defs>
  <style type="text/css">
   <![CDATA[
    .fil0 {fill:none}
    .fil33 {fill:#1B1B30}
    .fil35 {fill:#1F2246}
    .fil7 {fill:#262729}
    .fil29 {fill:#272727}
    .fil19 {fill:#429197}
    .fil24 {fill:#566AB8}
    .fil15 {fill:#6A7A3B}
    .fil18 {fill:#73E286}
    .fil9 {fill:#763B1C}
    .fil8 {fill:#78291C}
    .fil36 {fill:#792A1B}
    .fil23 {fill:#935116}
    .fil22 {fill:#935119}
    .fil16 {fill:#A8F0B3}
    .fil30 {fill:#AD7564}
    .fil21 {fill:#B02E90}
    .fil25 {fill:#B84833}
    .fil4 {fill:#BC2A41}
    .fil5 {fill:#C48268}
    .fil27 {fill:#CB512D}
    .fil34 {fill:#CD9349}
    .fil14 {fill:#CE9A32}
    .fil31 {fill:#D39884}
    .fil12 {fill:#D7DCE0}
    .fil20 {fill:#DA5627}
    .fil37 {fill:#DBE8B7}
    .fil11 {fill:#E15161}
    .fil3 {fill:#E35060}
    .fil32 {fill:#E4E9EB}
    .fil10 {fill:#EDAF34}
    .fil6 {fill:#F0AE8E}
    .fil13 {fill:#F4FCFF}
    .fil17 {fill:#F5FAFD}
    .fil28 {fill:#F6F898}
    .fil26 {fill:#FAFBFB}
    .fil2 {fill:#FEFEFC}
    .fil1 {fill:#E31E24;fill-opacity:0.200000}
   ]]>
  </style>
 </defs>
 <g id="Layer_x0020_1">
  <metadata id="CorelCorpID_0Corel-Layer"/>
  <g id="_1984301184464">
   <rect class="fil0" width="3620.03" height="3620.03"/>
   <g>
    <path class="fil1" d="M2373.88 1587.94c-14.65,-3.87 -38.39,-16.98 -53.16,-23.81 -10.52,-4.86 -42.38,-20.93 -50.03,-23.12 -21.57,-6.2 -140.19,65.77 -275.18,-11.78 -30.53,-17.54 -32.97,-15.44 -63.89,-45.61 -5.66,-5.52 -6.73,-4.86 -11.23,-9.32 -44.55,-44.2 -79.45,-128.03 -80.85,-193.15 -0.95,-44.23 7.57,-89.04 22.05,-125.52 1.42,-3.57 10.06,-19.65 13.23,-25.06 3.85,-6.54 8.69,-16.9 13.16,-23.14 90.98,-126.88 254.01,-171.3 387.33,-97.12l21.59 14.74c4.89,4.18 5.13,2.86 11.25,6.39 34.3,19.79 73.94,72 92.63,109.98 52.5,106.71 32.73,248.99 -51,331.73 0.78,27.68 21.69,89.17 24.09,114.78zm-1079.33 -344.37c-13.56,-8.16 -29.79,-23.38 -40.87,-34.06l-33.78 -41.24c-17.98,-29.17 -37.16,-70.65 -43.3,-103.72 -15.48,-83.41 3.81,-173.13 52.94,-236.85 75.23,-97.57 195.65,-139.85 317.81,-106.98 103.63,27.89 172.36,106.17 204.14,206.51 50.71,160.14 -70.73,351.5 -245.13,369.69 -100.12,10.44 -80.69,-17.32 -126.92,15.38 -13.73,9.71 -75.64,57.67 -88.28,59.87 0.35,-39.96 7.36,-89.54 3.39,-128.6zm-652.08 1112.09l22.81 -117.08c4.93,-21.81 14.43,-54.05 5.25,-68.42 -8.46,-5.25 -25.93,-16.3 -21.46,-30.92 0.01,-0.04 8.96,-19.25 9.3,-19.88 5.13,-9.31 7.33,-8 8.93,-20.53 -10.22,-8 -19.11,-21.88 -26.32,-32.44 -11.33,-16.6 -15.48,-17.13 -10.82,-39.83 -11.36,4.99 -2.21,13.42 -10.21,3.95 -2.85,-3.37 -2.75,-8.82 -2.51,-14.67 0.63,-15.26 6.48,-14.34 5.13,-33.96 -6.76,-12.67 -21.03,-28.94 -30.92,-42.67 -25.34,-35.16 -62.64,-95.38 -84.55,-133.25 -12.3,-21.26 -29.62,-58.23 -44.14,-65.28 -44.3,-21.49 -27.13,-40.41 -47.61,-61.06 -9.42,-9.5 -29.41,-24.12 -30.56,-43.93 20.93,-0.72 18.78,5.98 38.9,8 -2.76,-14.17 -9.84,-14.42 -17.99,-29.27 -4.49,-8.18 -19.67,-35.06 0.43,-29.32 10.12,2.89 23.24,16.68 30.21,24.11l12.58 9.98c-1.31,-24.19 -12.24,-39.48 -2.77,-62.13 21.29,1.27 30,40.92 38.08,57.68 7.99,-11.91 1.45,-46.06 9.74,-53.79 0.02,-0.01 6.61,-11.44 14.38,7.34 2.81,6.8 4.03,12.04 5.42,18.72 2.66,12.7 2.87,28.38 7.56,38.24 8.52,-9.8 18.19,-36.03 35.63,-27.95 6.91,6.46 5.7,10.8 5.53,23.72 -0.47,34.39 -13.29,56.83 -3.54,70.61 15.35,21.69 87.42,100.64 104.41,118.72 16.86,17.93 38.7,38.55 53.77,56.15 12.66,-3.96 3.3,0.15 7.51,-5.21 -6.84,-2.4 -3.31,0.27 -6.15,-9.83 -1.08,-3.85 -2.09,-9.14 -2.99,-13.17 -1.97,-8.87 -3.84,-17.04 -5.05,-25.22 -5.82,-8 -2.55,-10.49 -7.08,-19.15 -4.6,-8.81 -15.94,-14.96 -27.94,-45.16 -23.06,-58.05 8.84,-67.46 10.92,-73.19 -0.36,-12.95 -3.9,-22.8 -1.17,-35 5.77,-44.22 -4.69,-74.13 14.31,-136.29 19.7,-64.48 55.76,-70.1 64.31,-80.44 -17.96,-10.24 -42.2,-14.7 -66.65,-14.5l15.34 -34.21c14.2,-0.55 30.46,18.57 44.99,24.05 -7.91,-31.27 -18.41,-50.47 -20.81,-88.53l44.47 5.7c-4.75,31.29 -18.21,72.62 3.34,99.4 6.41,-54.79 33.41,-66.61 90.04,-70.87 79.35,-5.96 199.16,12.89 264.68,54.28 36.17,22.85 60.6,39.94 63.09,97.57 10.79,16.14 4.82,87.96 3.56,111.55 -1.48,27.81 -1.02,19.4 10.22,41.17 5.87,11.37 12.59,28.08 16.03,40.25 8.61,30.48 10.74,71.61 0.01,100.57 -23.81,64.25 -40.96,49.72 -42,69.34 9.05,-1.69 5.54,-1.65 9.03,-3.61 9.12,-5.13 -5.87,0.48 7.18,-4.57 5.22,4.97 9.97,7.25 15.2,12.41 1.98,-6.16 6.68,-10.53 11.1,-15.65 5.22,-6.06 8.17,-10 12.67,-15.98l71.71 -94.26c8.14,-10.18 15.36,-21.57 23.42,-33.89 5.2,-7.96 18.26,-23 22.16,-32.59 8.13,-20.03 -22.2,-63.16 -7.95,-93.12 13.06,-2.61 18.6,2.12 25.03,8.64 5.03,5.1 10.79,15.3 13.61,17.4 2.84,-18.4 -2.98,-59.61 17.06,-69.88 16.69,12.13 8.57,39.68 18.16,54.68 10.35,-12.91 9.46,-57.53 33.12,-60.58 12.66,18.03 1.54,42.55 1.39,65.71 15.55,-9.1 25.8,-45.62 52.35,-41.68 2.64,23.67 -22.32,46.11 -29.32,65.73 15.46,-5.14 22.62,-16.35 44.38,-16.67 -0.43,21.71 -17.3,35.93 -27.18,47.54 -20.29,23.82 0.93,24.89 -22.08,50.56 -19.62,21.89 -16.25,-1.31 -35.37,37.21 -42.33,85.27 -55.26,125.76 -108.11,213.44 -5.08,8.42 -6.76,15.19 -14.95,18.89 6.81,6.51 24.52,59.86 2.36,49.09 7.88,21.46 -22.88,61.83 -35.85,78.48 -16.02,20.56 -37.4,42.91 -61.69,54.85 3.15,44.14 6.87,75.07 5.16,122.03 8.22,11.92 30.18,183.52 29.95,209.48 -7.69,4.35 -14.36,8.55 -22.91,13.01 -12.83,6.69 -18.94,3.85 -19.25,17.57l40.51 214.51c2.69,14.33 9.78,63.8 15.05,71.56l1.98 -9.74c18.55,2.92 20.78,8.05 33.99,10.92l96.93 30.38c41.92,14.11 95.42,20.98 141.57,30.77 113.13,24.01 309.79,34.53 438.04,21.02 12.54,-1.32 18.23,-4.51 33.94,-5.37 53.13,-2.9 100.84,-16.51 148.32,-22.94 22.9,-3.1 47.1,-11.78 69.71,-16.24 35.16,-6.93 41.53,-11.24 67.85,-17.97l127.1 -41.82c7.23,53.41 -5.95,120.18 0.35,172.32l3.42 0 1.33 -376.49c-5.07,-8.67 -27.04,-13.91 -37.52,-18.42 -11.37,-4.89 -26.85,-12.36 -34.64,-19.12 -1.96,-17.77 12.43,-116.19 19.04,-122.86l6.52 -44.71c-97.09,-60.13 -161.92,-168.5 -49.78,-268.99l-10.95 -12.42 106.02 -125.63c5.11,-6.23 15.88,-19.13 20.94,-23.06 22.77,-17.68 46.78,-8.98 78.87,-13.02l5.93 -0.6c8.35,-7.25 46.84,-6.19 60.87,-8.93l1.51 -34.07c-57.7,-16.68 -83.6,-22.77 -126.68,-53.25 -60.08,-42.51 -60.97,-127.95 -30.63,-195.88 15.7,-35.15 22.69,-34.51 34.74,-53.72 11.4,-18.19 31.96,-121.19 30.01,-147.92 -36.9,9.44 -72.22,-30.73 -10.83,-108.02 11.58,-14.58 31.8,-30.59 53.3,-40.09 36.88,-16.3 40.11,-7.74 75.52,-4.78 16.56,-35.84 69.81,-44.06 113.53,-24.29 33.5,15.15 33.59,28.87 49.87,21.86 45.88,-19.75 78.1,-5.26 99.6,41.65 17.23,37.6 2.8,19.51 39.92,37.7 16.63,8.14 34.9,18.56 46.91,31.11 22.99,24.02 5.83,34.18 -7.76,49.52 5.7,12.25 41.65,40.83 44.05,65.26 1.16,11.72 -2.08,12.94 -9.12,19.17 -3.05,2.7 -1.85,1.01 -3.92,3.81 12.41,16.01 36.44,54.64 27.99,84.98 -2.36,8.46 -6.32,12.56 -11.4,17.4 -17.57,16.77 -4.41,14.9 -24.19,58.03 -6.19,18.6 -4.7,30.12 -14.82,50.79 -12.58,25.7 -37.61,54.28 -65.63,63.9 -27.31,9.38 -35.57,-1.9 -55.87,-5.98 -8.94,21.19 -36.25,46.2 -58.29,60.79 -28.98,19.17 -48.4,21.75 -84.93,31.87l-1.31 21.57c11.95,2.32 62.06,-0.11 83.41,0.38 3.72,0.09 9.5,0.12 13.04,0.56 3.6,0.45 3.77,0.65 6.85,1.41l3.98 1.53c60.68,-8.66 81.65,40.27 111.24,92.62 13.31,23.54 66.2,117.92 69.13,134.27l2 4.3c8.6,24.91 18.82,49.21 17.48,77.22 -1.54,32.21 -24.29,61.14 -21.78,79.73 5.37,33.73 18.5,87.91 17.71,121.91 11.58,-8.55 19.25,-20.5 29.04,-30.9l25.03 -32.07c19.05,-22.63 32.45,-42.89 47.39,-66.6 35.08,-55.68 72.77,-124.92 97.9,-190.23 39.48,-102.57 72.1,-202.01 87.08,-311.87 19.1,-140.01 19.64,-296.7 -22.26,-416.74l-23.58 -63.14c-4.82,-14.91 -21.11,-39.73 -30.71,-54.65 -20.35,-31.62 -46.96,-59.53 -76.06,-82 -5.04,-3.89 -3.26,-2.95 -7.11,-5.89 -109.21,-83.53 -299.96,-114.97 -439.06,-134.66 -77.58,-10.98 -246.69,-45.62 -324.92,-77.48 -9.5,-3.87 -30.25,-12.19 -40.25,-16.68l-78.25 -38.4c-59.57,-33.08 -113.52,-78.88 -173.3,-111.61 -36.18,-19.81 -75.94,-41.68 -114.11,-57.03 -27.78,-11.17 -52.17,-24.25 -80.38,-34.06 -71.25,-24.77 -142.48,-53.39 -215.49,-72.51 -16.79,-4.4 -31.53,-7.75 -45.61,-11.64 -94.47,-26.09 -187.71,-45.62 -287.99,-54.33 -75.53,-6.56 -141.52,-10.36 -220.37,-10.73 -31.2,-0.15 -76.7,2.83 -107.88,6.38l-99.16 14.75c-16.93,4.82 -33.34,4.51 -49.62,10.12 -37.84,13.04 -69.83,18.01 -109.45,33.35 -6.59,2.55 -13.35,5.58 -19.81,8.62 -8.13,3.83 -12.12,4.27 -20.71,7.85 -11.8,4.91 -6.76,5.94 -19.09,9.35 -24.79,6.84 -35.84,18.68 -56.25,29.56l-69.02 45.1c-5.99,5.75 -8.81,7.03 -15.79,12.9l-44.78 40.85c-5.39,6.22 -9.04,8.73 -14.36,14.12l-63.74 78.85c-2.87,3.96 -8.01,14.1 -10.55,18.19 -0.49,0.79 -2.8,4.74 -2.89,4.9l-8.27 12.38c-10.17,12.4 -13.32,23 -20.01,37.14 -2.87,6.08 -6.95,11.56 -10.34,18.1 -6.6,12.77 -11.45,29.58 -16.98,43.05l-13.61 35.5c-6.97,14.86 -10.36,31.06 -15.97,49.26 -23.28,75.42 -37.66,165.19 -38.39,245.77 -0.73,80.58 -2.08,195.2 11.76,273.5 3,16.98 4.04,35.18 6.87,50.92l10.51 44.91c3.14,14.92 5.83,32.88 11.15,46.18 10.43,26.1 13.33,65.08 25.08,91.6 4.22,9.53 2.23,13.05 5.62,23.26l15.83 40.77c5.99,23.07 29.43,85.48 40,103.21l12.49 29.45c0.25,0.53 0.59,1.2 0.84,1.72 2.02,4.11 2.04,4.51 4.43,8.05 11.12,16.48 19.56,39.31 28.49,57.53 6.27,12.79 19.32,26.83 24.97,39.05l19.11 30.43c4.06,6.48 6.51,11.61 10.33,18.23l22.35 34.88c7.97,10.96 13.92,21.96 22.91,34.19l48.5 66.06c6.62,9.39 21.67,17.4 20.29,36.5z"/>
    <path class="fil2" d="M1294.55 1243.57c3.96,39.06 -3.04,88.64 -3.39,128.6 12.64,-2.2 74.55,-50.16 88.28,-59.87 46.23,-32.69 26.79,-4.94 126.92,-15.38 174.39,-18.19 295.84,-209.55 245.13,-369.69 -31.77,-100.34 -100.5,-178.62 -204.14,-206.51 -122.16,-32.87 -242.58,9.41 -317.81,106.98 -49.13,63.72 -68.43,153.44 -52.94,236.85 6.14,33.07 25.32,74.55 43.3,103.72l33.78 41.24c11.08,10.68 27.32,25.9 40.87,34.06z"/>
    <path class="fil2" d="M2373.88 1587.94c-2.4,-25.62 -23.31,-87.1 -24.09,-114.78 83.73,-82.74 103.49,-225.02 51,-331.73 -18.69,-37.99 -58.32,-90.2 -92.63,-109.98 -6.12,-3.53 -6.36,-2.21 -11.25,-6.39l-21.59 -14.74c-133.32,-74.18 -296.35,-29.76 -387.33,97.12 -4.47,6.24 -9.32,16.59 -13.16,23.14 -3.18,5.41 -11.82,21.49 -13.23,25.06 -14.48,36.48 -23,81.29 -22.05,125.52 1.4,65.12 36.3,148.95 80.85,193.15 4.5,4.46 5.57,3.79 11.23,9.32 30.92,30.17 33.36,28.08 63.89,45.61 134.99,77.55 253.61,5.58 275.18,11.78 7.64,2.2 39.51,18.27 50.03,23.12 14.78,6.82 38.51,19.94 53.16,23.81z"/>
    <path class="fil3" d="M735.76 2355.59c-0.45,3.85 -26.43,101.59 -32.55,109.26l-4.01 26.02c9.66,2.4 20.15,2.49 21.5,12.6 0.75,-0.66 2.1,-2.63 2.38,-1.82 0.21,0.62 1.61,-1.17 1.84,-1.31 0.27,-0.16 1.05,-0.09 1.6,-0.76 17.9,3.15 36.84,10.36 55.07,15.06 20.4,5.26 37.74,9.07 57.73,13.02 39.91,7.89 82.25,14.22 124.81,16.54 95.68,5.23 172.09,-5.14 249.1,-35.74 0.53,0.3 1.49,-0.26 1.73,0.54l5.59 4.84c0.31,-13.72 6.42,-10.88 19.25,-17.57 8.55,-4.46 15.22,-8.66 22.91,-13.01 0.23,-25.96 -21.73,-197.57 -29.95,-209.48 -9.93,-18 -4.97,-29.92 -10.52,-49.11 -15.86,-54.77 -94.98,-282.33 -148.56,-269.47 -0.21,29.93 3.09,52.66 -12.73,74.06 -10.86,14.7 -30.48,27.4 -57.86,27.25 -25.16,-0.14 -47.35,-14.81 -56.46,-28.48 -13.15,-19.74 -13.23,-46.47 -11.64,-74.15l-2.95 -0.6c-1.69,97.59 -25.84,286.05 -88.74,361.95 -39.65,47.85 -69.93,36.93 -107.53,40.36z"/>
    <path class="fil4" d="M720.69 2503.47c-15.45,45.83 -27.91,95.95 -41.34,143.49 -8.27,29.27 -38.96,121.38 -39.58,145.03 13.86,8.24 30.88,18.51 45.48,27.94 27.07,11.3 47.77,22.25 76.35,31.37 14.41,4.6 29.12,8.39 42.48,11.8 11.39,2.91 36.09,3.75 45.29,9.97 21.05,-0.92 55.74,5.46 81.01,5.97 29.27,0.58 59.09,-3.14 86.18,-2.42 7.93,-3.36 77.7,-11.24 95.65,-15.07 31.47,-6.72 61.45,-16.9 90.28,-22.75l73.26 -26.03 0.36 -12.85c-5.26,-7.75 -12.36,-57.22 -15.05,-71.56l-40.51 -214.51 -5.59 -4.84c-0.24,-0.8 -1.21,-0.25 -1.73,-0.54 -77.02,30.6 -153.42,40.97 -249.1,35.74 -42.56,-2.33 -84.9,-8.66 -124.81,-16.54 -20,-3.95 -37.34,-7.76 -57.73,-13.02 -18.23,-4.7 -37.16,-11.91 -55.07,-15.06 -0.55,0.67 -1.33,0.6 -1.6,0.76 -0.23,0.14 -1.63,1.94 -1.84,1.31 -0.27,-0.82 -1.63,1.16 -2.38,1.82z"/>
    <path class="fil5" d="M2676.39 1746.46c0.8,0.54 1.79,0.98 2.59,1.31l16.05 3.08 -32.98 29.94c-13.53,8.79 -32.58,14.68 -53.19,14.27 -37.43,-0.74 -74.77,-26.94 -81.6,-56.15 14.08,0.91 30.17,4.63 43.47,2.44 -4.01,-2.65 2.95,-0.05 -6.31,-2.65l-41.08 -3.64 -6.33 -26.93 196.7 7.96c-0.37,6.57 -6.02,15.65 -9.51,21.2 -7.79,12.41 -10.64,9.54 -27.81,9.18zm241.25 22.93c-9.9,-14.98 4.68,-19.59 -16.16,-33.71 -6.47,-4.39 -33.39,-14.83 -14.56,-23.01 0.9,-0.39 17.07,-3.78 20.83,-4.88 27.04,-7.94 26.52,-24.95 45.43,-23.71 3.32,15.99 -10.57,23.08 -27.65,33.17 -1.42,0.84 -5.3,3.14 -6.49,4 -3.72,2.73 -1.37,0.33 -3.96,3.66 4.32,7.76 12.14,11.77 14.06,21.54 2.36,11.99 1.03,22.48 -11.5,22.94zm-329.73 -140.97c-4.64,29.39 26.92,40.85 29.77,53.77 3.53,16.07 -13.6,6.94 -20.66,0.08 -5.4,-5.25 -13.97,-15.88 -18.64,-22.76 -13.56,-19.97 -9.11,-46.03 17.6,-48.6 24.74,-2.39 43.26,18.33 41.05,38.3 -24.64,2.08 -9.82,-30.01 -49.11,-20.78zm139.89 -60.12c28.03,-15.05 42.77,27.98 19.52,38.21 -26.58,11.71 -44.25,-24.93 -19.52,-38.21zm-194.76 -15.94c28.32,-10.49 40.59,29.36 17.61,39.36 -29.06,12.64 -43.95,-29.6 -17.61,-39.36zm253.72 -2.22c-15.48,4.97 -10.1,-2.65 -22.33,-9.21 -10.56,-5.66 -15.84,-2.11 -24.85,-6.18 -1.06,-10.13 -1.32,-12.13 9.2,-13.14 11.72,-1.12 41.38,7.45 37.98,28.52zm-271.95 -8.55c-4.7,-8.05 -1.6,-10.37 -1.6,-10.38 3.92,-12.35 52.04,-28.99 48.2,-1.47 -11.24,3.08 -17.86,-0.6 -27.21,3.77 -11.56,5.39 -6.85,11.59 -19.39,8.08zm0.09 -109.4c1.96,26.73 -18.61,129.73 -30.01,147.92 -12.04,19.21 -19.04,18.57 -34.74,53.72 -30.34,67.93 -29.45,153.37 30.63,195.88 43.08,30.48 68.98,36.57 126.68,53.25 2.67,-0.55 40.6,5.32 50.72,5.97 21.78,1.39 42.41,-2.76 60.65,-2.05 36.52,-10.12 55.95,-12.7 84.93,-31.87 22.05,-14.59 49.35,-39.6 58.29,-60.79 20.3,4.08 28.56,15.36 55.87,5.98 28.02,-9.63 53.04,-38.2 65.63,-63.9 10.12,-20.67 8.63,-32.19 14.82,-50.79 -9.39,-11.47 -6.06,-20.41 -19.99,-29.09 -48.85,-30.45 -94.75,20.43 -104.84,23.56 -17.86,-28.76 -4.9,-50.7 -0.99,-77.02 -52.68,-44.57 -29.44,-68.25 -26.78,-96.02 -32.61,-25.03 -72.06,-36.27 -64.67,-98.98 -41.29,9.23 -108.91,43.48 -180.46,51.19 -31.38,3.38 -49.49,2.91 -37.43,-30.89 -16.6,2.08 -31.13,6.84 -48.31,3.95z"/>
    <path class="fil6" d="M973.08 1748.26c2.85,-2.11 1.87,-1.55 6.64,-3.31l186.92 -22.86c-1.62,20.67 -19.15,47.87 -29.14,59.5 -63.96,74.49 -158.12,16.22 -164.42,-33.32zm-238.61 24.1c2.44,-14.67 11.9,-15.53 14.58,-26.7 -14.45,-7.98 -42.1,-19.65 -40.3,-37.69 12.29,-3.59 12.2,-0.68 19.75,6.23 26.12,23.88 35.22,15 54.11,23.07 0.23,12.89 2.77,8.31 -7.46,14.14 -39,22.21 -16.62,19.35 -25.94,37.06 -6.88,13.07 -17.4,-0.15 -14.74,-16.1zm345.23 -118.73c-30.08,-25.75 -36.91,35.02 -49.02,15.25 -7.72,-12.6 17.37,-39.07 39.62,-37.02 28.56,2.64 32.14,27.39 19.52,47.72 -4.78,7.7 -11.78,15.32 -18.54,22.78 -12.2,13.44 -6.83,11.73 -22.66,8.48 3.64,-22.18 39.61,-34.5 31.08,-57.21zm-170.21 -60.95c-4.37,5.95 -5.4,8.62 -6.93,18.45 -4.67,30 -25.4,-0.92 -5.94,-23.77 21.15,-24.84 57.23,5.92 46.81,26.1 -22.37,0.98 -1.87,-24.76 -33.94,-20.78zm187 18.44c-13.69,-17.96 7.73,-40.48 23.54,-41.13 18.81,-0.76 33.95,21.26 27.15,39.41 -22.72,1.92 0.19,-28.27 -33.35,-24.83 -4.84,7.35 -4.8,6.64 -7.34,15.83 -2.71,9.8 0.59,8.95 -10,10.71zm-217.9 -39.49c-3.45,-25.05 38.01,-36.58 47.03,-26.01 11.32,13.27 -13.31,11.59 -20.35,13.81 -12.32,3.88 -10.56,14.59 -26.67,12.2zm275.99 -9.29c-12.9,2.23 -12.4,-5.1 -21.52,-8.7 -11.76,-4.65 -14.69,1.53 -27.06,-4.39 -3.79,-25.96 59.02,-12.84 48.58,13.09zm-469.35 78.25c-2.73,12.21 0.81,22.06 1.17,35 -2.08,5.73 -33.98,15.14 -10.92,73.19 12,30.2 23.33,36.35 27.94,45.16 4.53,8.66 1.26,11.15 7.08,19.15l-1.64 -11.27c14.32,7.68 21.77,18.03 41.22,23.2 26.26,6.98 32.67,-3.05 52.07,-7.81 15.93,34.99 73.21,81.66 126.48,89.4l14.81 3.96c32.26,-0.88 67.77,9.47 117.68,-4.27 36.29,-2.56 103.99,-33.79 125.27,-50.83l-0.03 11.28 3.81 -7.15c1.04,-19.62 18.19,-5.09 42,-69.34 10.73,-28.96 8.6,-70.09 -0.01,-100.57 -3.44,-12.17 -10.16,-28.88 -16.03,-40.25 -11.24,-21.77 -11.71,-13.36 -10.22,-41.17 1.26,-23.59 7.23,-95.41 -3.56,-111.55 2.46,43.5 0.66,80.37 0.68,123.16 -30.12,-12.63 -38.84,-88.72 -43.06,-114.46 -14.64,-0.73 -48.98,14.02 -71.67,15.3 -1.92,-18.3 -4.91,-47.52 -13.03,-61.29l-6.14 65.5 -40.11 3.44c-5.79,-9.24 -6.52,-21.17 -11.61,-30.4l-6.19 32.27c-34.45,0.95 -27.52,6.01 -32.21,-33.24 -0.68,-5.71 -1.09,-12.03 -1.98,-17.86 -0.29,-1.89 -1.52,-7.15 -2.16,-8.76 -2.18,-5.5 -0.87,-2.96 -3.41,-6.4l-15.07 65.73c-15.97,0.51 -63,-3.2 -76.09,-8.84 -0.99,-9.42 -4.87,-56.29 -10.39,-63.81l-16.11 60.19 -42.47 -9.93c-2.57,59.9 22.6,108.98 -44.32,175.6 -11.63,-1.91 -20.29,-9.76 -34.02,-12.54 -20.99,-4.26 -26.16,0.97 -43.78,3.28 -0.58,-9.67 0.39,-27.23 -4,-33.08z"/>
    <path class="fil7" d="M2440.65 2574.76l-1.33 376.49c2.31,13.19 -1.83,5.73 6.16,9.26l138.95 0.48c1.84,-2.15 1.3,-1.8 2.85,-4.27l3.6 -5.85c-2.4,-14.4 41.64,-241.42 48.27,-274.7l80.33 1.38 55.55 264.63c1.79,3.32 1.56,4.76 2.14,5.82 3.04,5.51 -0.56,7.15 23.59,7.6 13.44,0.25 27,0.19 40.35,1.05 27.07,1.73 52.05,1.93 79.44,3.44l-0.9 -27.88 -12.47 -376.36c-8.98,-0.05 -36.62,13.87 -52.27,19.83 -16.92,6.44 -33.99,12.14 -52.88,17.15 -38.46,10.2 -78.04,17.12 -120.37,18.84 -44.72,1.82 -88.16,-1.15 -130.87,-8.71 -28.23,-5 -106.78,-28.31 -110.15,-28.2z"/>
    <path class="fil8" d="M2514.89 1432.16c17.18,2.89 31.71,-1.86 48.31,-3.95 -12.06,33.81 6.05,34.28 37.43,30.89 71.56,-7.71 139.17,-41.96 180.46,-51.19 -7.39,62.71 32.07,73.94 64.67,98.98 -2.66,27.77 -25.9,51.46 26.78,96.02 -3.91,26.31 -16.87,48.26 0.99,77.02 10.09,-3.13 55.99,-54.01 104.84,-23.56 13.93,8.68 10.6,17.62 19.99,29.09 19.78,-43.13 6.62,-41.26 24.19,-58.03 5.08,-4.84 9.04,-8.94 11.4,-17.4 8.45,-30.34 -15.58,-68.97 -27.99,-84.98 2.07,-2.8 0.87,-1.11 3.92,-3.81 7.05,-6.23 10.28,-7.45 9.12,-19.17 -2.4,-24.43 -38.35,-53.02 -44.05,-65.26 13.59,-15.35 30.75,-25.51 7.76,-49.52 -12,-12.55 -30.28,-22.96 -46.91,-31.11 -37.12,-18.19 -22.69,-0.1 -39.92,-37.7 -21.5,-46.91 -53.72,-61.4 -99.6,-41.65 -16.28,7.01 -16.38,-6.71 -49.87,-21.86 -43.72,-19.77 -96.96,-11.56 -113.53,24.29 -35.41,-2.96 -38.64,-11.52 -75.52,4.78 -21.5,9.5 -41.72,25.51 -53.3,40.09 -61.39,77.3 -26.07,117.46 10.83,108.02z"/>
    <path class="fil5" d="M2394.04 2369.65l8.96 5.11c7.92,5.38 27.31,15.44 35.44,16.43 5.04,16.21 16.85,30.88 31.4,36.24 9.39,3.46 6.42,1.41 9.37,6.87 12.42,1.01 12.77,0.96 20.99,6.62l12.74 10.64c23.14,4.26 10.69,11.89 32.4,14.29 -1.87,-24.6 -10.83,-16.7 -12.07,-38.1 33.17,-0.03 34.48,24.2 61.11,25.03 1.37,-20.27 -1.5,-7.2 -7.79,-21.17l-2.75 -2.29c-8.28,-6.36 -19.17,-14.5 -21.45,-24.46 12.36,-7.2 36.33,12.74 59.8,0 0.05,-29.49 -46.25,-27.18 -52.58,-36.33 8.77,-11.96 23.3,-1.45 39.79,-7.75 14.96,-5.71 11.78,-5.46 41.14,-4.23 12.76,0.54 28.76,2.1 44.48,3.03l30.99 5.55c7.96,2.8 5.11,-1.04 8.78,5.99 -6.64,9.22 1.57,0.5 -25.95,12.01 -15.25,6.38 -19.96,2.22 -17.94,21.73l11.33 3.6c4.12,0.55 11.55,0.42 15.75,-0.12 13.01,-1.66 13.81,-6.61 22.2,-7.21 9.95,20.78 -4.84,10.5 -22.86,37.26 -11.49,17.07 -0.67,22.5 13.45,13.46l16.77 -9.41c6.04,-3.96 18.77,-21.74 31.38,-11.62 -3.79,9.4 0.45,-4.67 -8.29,8.35 -6.61,9.85 -7.68,19.2 -7.13,31.34 9.37,-2.53 23.97,-11.35 30.8,-17.73 2.62,-2.45 1.5,-1.71 3.85,-3.86 2.18,-2 3.27,-2.72 5.69,-4.83 8.66,-7.58 18.05,-13.7 30.82,-15.57 39.26,-5.76 8.19,-20.29 66.53,-50.43 7.38,-3.81 16.25,-9.69 25.05,-8.44 1.83,-11.4 20.93,-22.69 36.79,-36.13 13.75,-11.66 13.63,-15.13 26.05,-28.51 3.19,-3.44 5.86,-7.5 8.96,-11.27l4.82 6.68c-2.51,-18.59 20.24,-47.53 21.78,-79.73 1.34,-28.01 -8.88,-52.31 -17.48,-77.22l-2 -4.3 -0.62 7.21c-8.59,-17.68 -26.97,-34.82 -39.98,-45.69 -17.17,3.5 -33.78,19.94 -50.45,28.05 -9.84,4.79 -15.89,9.2 -24.3,14.66 -6.18,4 -17.46,11.52 -24.09,13.95 5.44,9.16 5.81,16.15 6.3,26.81 0.46,10.04 1.47,18.47 -1.49,27.99 -2.47,7.97 -19.59,29.42 -23.47,32.67l-7.52 15.21 -8.84 0.5 0.58 5.79 -8.18 1.37 0.25 14.88c-3.54,2.1 -1.04,1.21 -6.1,1.13 -1.61,15.89 2.35,7.12 -6.64,9.56l1.74 6.31c-9.15,1.08 -26.21,-2.78 -34.83,-6.29l0.77 -33.66c-4.48,7.69 -2.04,22.93 -3.84,33.68 -6.76,-1.32 -12.15,-2.38 -20.26,-2.7 -32.87,-1.3 -22.83,19.86 -17.84,25.74 5.31,6.25 18.71,12.36 19.01,12.46 -5.23,4.96 -1.2,5.48 -21.83,6.83 -8.23,0.54 -12.83,1.34 -20.29,2.9 -5.48,1.15 -13.18,2.24 -17.86,5.22l-7.27 7.92c-0.36,0.48 -0.98,1.34 -1.28,1.74 -0.31,0.42 -1.11,2.28 -1.33,1.83 -0.23,-0.46 -0.86,1.3 -1.35,2.08l-61.24 -5.52c-0.42,-0.39 -0.97,-0.95 -1.41,-1.32 -16.51,-13.97 -47.33,-16.22 -68.01,-17.54 2.7,-3.53 1.17,-1.65 4.27,-4.95 1.99,-2.12 1.85,-1.92 4.16,-4.08 7.65,-7.18 23.32,-15.9 13.9,-28.62 -12.15,-12.67 -61.16,3.92 -79.4,3.99 -10.73,-18.86 -32.14,-44.83 -38.03,-60.65l-17.17 -24.58c-24.69,-35.69 6.66,-29.26 32.8,-29.29 71.63,-0.1 240.38,-2.99 290.35,1.14 -12.11,-8.42 -57.15,-3.86 -75.03,-3.86 -25.08,0 -50.15,0 -75.23,0 -44.04,0 -113.67,4.09 -154.66,-1.36 -10.4,2.31 -20.41,4.56 -20.91,-6.03 -0.06,-1.21 1.38,-16.66 1.13,-24.9 -14.39,6.64 -73.26,-46.96 -95.42,-49.07 -112.15,100.49 -47.31,208.86 49.78,268.99z"/>
    <path class="fil9" d="M685.23 1640.59c4.38,5.86 3.41,23.41 4,33.08 17.62,-2.31 22.79,-7.54 43.78,-3.28 13.73,2.78 22.39,10.63 34.02,12.54 66.92,-66.61 41.75,-115.7 44.32,-175.6l42.47 9.93 16.11 -60.19c5.52,7.52 9.41,54.39 10.39,63.81 13.08,5.64 60.11,9.35 76.09,8.84l15.07 -65.73c2.54,3.44 1.23,0.9 3.41,6.4 0.64,1.62 1.87,6.87 2.16,8.76 0.89,5.83 1.3,12.16 1.98,17.86 4.69,39.24 -2.24,34.18 32.21,33.24l6.19 -32.27c5.08,9.23 5.81,21.15 11.61,30.4l40.11 -3.44 6.14 -65.5c8.11,13.78 11.11,43 13.03,61.29 22.69,-1.28 57.02,-16.03 71.67,-15.3 4.22,25.73 12.93,101.83 43.06,114.46 -0.02,-42.79 1.78,-79.66 -0.68,-123.16 -2.5,-57.63 -26.93,-74.72 -63.09,-97.57 -65.52,-41.39 -185.33,-60.25 -264.68,-54.28 -56.63,4.26 -83.63,16.08 -90.04,70.87 -21.55,-26.78 -8.09,-68.1 -3.34,-99.4l-44.47 -5.7c2.4,38.06 12.91,57.27 20.81,88.53 -14.54,-5.48 -30.79,-24.6 -44.99,-24.05l-15.34 34.21c24.46,-0.2 48.7,4.26 66.65,14.5 -8.55,10.35 -44.61,15.96 -64.31,80.44 -19,62.16 -8.55,92.07 -14.31,136.29z"/>
    <path class="fil10" d="M2387.53 2414.36c-6.61,6.67 -21,105.09 -19.04,122.86 7.79,6.75 23.27,14.23 34.64,19.12 10.48,4.51 32.44,9.74 37.52,18.42 3.36,-0.11 81.91,23.2 110.15,28.2 42.71,7.56 86.15,10.53 130.87,8.71 42.33,-1.72 81.91,-8.64 120.37,-18.84 18.89,-5.01 35.96,-10.71 52.88,-17.15 15.66,-5.96 43.29,-19.88 52.27,-19.83 4.5,-7.93 18.81,-12.56 27.29,-17.18 10.55,-5.75 19.45,-10.27 29.58,-15.71l-5.32 -30.59c-5.93,-7.06 -9.45,-28.22 -8.47,-31.97 -2.12,-7.63 -18.73,-66.8 -18.97,-67.18l-52.27 40.63c-35.43,26.69 -85.4,58.15 -134.41,50.79 -29.37,-4.41 -40.65,-17.33 -51.03,-43.11l-70.66 -1c-10.3,18.31 -14.64,37.9 -40.26,46.74 -21.49,7.41 -52.49,6.29 -73.86,-0.77l-124.42 -50.49c-1.15,-12.09 1.35,-10.73 3.13,-21.65z"/>
    <path class="fil11" d="M630.17 2026.56c-4.66,22.7 -0.51,23.23 10.82,39.83 7.21,10.56 16.1,24.44 26.32,32.44 4.37,13.42 37.18,36.04 50.35,44.46 20.84,13.33 39.81,21.13 69.58,26.65l-1.47 15.53 -36.57 128.44c1.87,5.48 -2,-0.78 2.26,2.96 57.28,-15.94 97.62,-85.6 114.65,-142.49 15.32,-51.17 38.11,-162.52 30.44,-223.68 -19.91,-9.11 -35.21,-10.44 -65.73,-25.11 -4.53,-2.18 -12.21,-5.12 -12.84,-11 -0.07,-0.66 -0.25,-0.99 -0.18,-1.48 19.38,-7.94 99.28,-2.6 126.7,-2.4l-1.06 -0.12 -14.81 -3.96c-8.43,6.78 -87.48,4.22 -109.03,5.29 -25.79,1.27 -43.91,-26.97 -66.14,-41.1 -2.16,4.07 -31.76,26.17 -37.57,31.34 -14.44,12.88 -22.43,20.36 -35,35.06 -24.36,28.5 -33.95,49.98 -50.72,89.36z"/>
    <path class="fil12" d="M829.25 2981.03c6.79,13.84 37.32,39.83 22.71,53.77 -11.16,10.66 -143.49,-29.4 -174.61,-36.37 -15.57,-3.49 -17.98,-1.65 -16.96,-14.81l-12.93 7.36c-3.55,0.53 -11.29,0.53 -15.38,0.78 -10.39,0.63 -19.89,1.56 -30.23,2.58 -28.04,2.76 -151.9,7.43 -162.09,33.38 44.63,57.41 992.03,57.7 1037.99,0 -5.2,-15.35 -35.93,-18.27 -52.72,-21.21 -68.93,-12.06 -143.66,-11.89 -208.82,-19.13 9.56,12.32 50.71,25.81 39.75,44.4 -17.74,13.87 -64.94,10.11 -92.03,10.6 -20.99,0.38 -90.38,5.34 -104.94,-0.45 -4.32,-7.59 -2.28,-22.86 -2.5,-32.38 -0.33,-14.57 0.87,-26.43 -6.69,-33.9l-0.01 6.7c-36.78,0.85 -74.59,-0.03 -111.55,-0.04 -23.28,-0.01 -92.41,5.31 -108.99,-1.3z"/>
    <path class="fil6" d="M1221.58 1863.85c9.75,7.07 20.22,16.15 27.49,22.55 9.7,8.54 18.79,15.09 27.72,24.04 18.57,18.61 33.38,37.4 45.97,58.89 8.19,-3.7 9.87,-10.47 14.95,-18.89 52.86,-87.68 65.78,-128.16 108.11,-213.44 19.12,-38.51 15.74,-15.31 35.37,-37.21 23,-25.66 1.78,-26.74 22.08,-50.56 9.89,-11.61 26.75,-25.83 27.18,-47.54 -21.76,0.33 -28.92,11.54 -44.38,16.67 7.01,-19.62 31.97,-42.06 29.32,-65.73 -26.56,-3.94 -36.8,32.59 -52.35,41.68 0.15,-23.16 11.27,-47.68 -1.39,-65.71 -23.65,3.04 -22.77,47.66 -33.12,60.58 -9.59,-15 -1.48,-42.55 -18.16,-54.68 -20.05,10.26 -14.23,51.47 -17.06,69.88 -2.81,-2.1 -8.58,-12.29 -13.61,-17.4 -6.43,-6.52 -11.97,-11.24 -25.03,-8.64 -14.25,29.96 16.09,73.09 7.95,93.12 -3.9,9.6 -16.96,24.64 -22.16,32.59 -8.06,12.32 -15.28,23.71 -23.42,33.89l-71.71 94.26c-4.49,5.98 -7.44,9.92 -12.67,15.98 -4.42,5.13 -9.12,9.49 -11.1,15.65z"/>
    <path class="fil6" d="M622.57 1981.89c8.49,-2.13 10.57,-13.35 20.92,-30.15 6.68,-10.83 14.67,-20.99 22.32,-29.66l51.35 -55.55c-15.08,-17.6 -36.92,-38.22 -53.77,-56.15 -16.99,-18.08 -89.06,-97.03 -104.41,-118.72 -9.75,-13.78 3.07,-36.22 3.54,-70.61 0.18,-12.93 1.38,-17.26 -5.53,-23.72 -17.44,-8.07 -27.11,18.16 -35.63,27.95 -4.69,-9.85 -4.9,-25.54 -7.56,-38.24 -1.4,-6.67 -2.61,-11.92 -5.42,-18.72 -7.77,-18.79 -14.37,-7.36 -14.38,-7.34 -8.3,7.72 -1.75,41.88 -9.74,53.79 -8.07,-16.76 -16.79,-56.41 -38.08,-57.68 -9.47,22.65 1.45,37.94 2.77,62.13l-12.58 -9.98c-6.97,-7.43 -20.09,-21.23 -30.21,-24.11 -20.11,-5.74 -4.92,21.13 -0.43,29.32 8.15,14.85 15.23,15.1 17.99,29.27 -20.13,-2.01 -17.98,-8.72 -38.9,-8 1.15,19.81 21.14,34.43 30.56,43.93 20.47,20.65 3.31,39.56 47.61,61.06 14.51,7.04 31.83,44.02 44.14,65.28 21.91,37.87 59.21,98.09 84.55,133.25 9.9,13.73 24.16,30 30.92,42.67z"/>
    <path class="fil12" d="M2920.56 2960.1l-2.42 60.19c-32.32,0.71 -179.55,1.77 -195.07,-10.27 -8.8,-17.4 5.73,-23.88 15.86,-31.24 9.57,-6.95 22.72,-14.49 27.98,-22.52 -24.88,5.77 -143.59,3.86 -174.09,3.3l-1.94 -8.68 -3.6 5.85c-1.55,2.48 -1.02,2.13 -2.85,4.27l-2.29 58.34c-23.39,3.54 -78.88,1.02 -104.16,-0.42 -25.58,-1.46 -78.65,3.39 -93.46,-10.45 -9.69,-18.44 28.41,-33.45 38.2,-46.69 -47.39,9.86 -240.09,11.3 -259.97,40.01 8.25,28.81 211.23,38.12 243.87,39.3 90.44,3.28 182.69,7.01 274.93,6.94 76.21,-0.05 492.23,-4.23 519.18,-43.65 -6.61,-16.07 -37.33,-18.38 -59.41,-21.96 -52.92,-8.57 -206.48,-16.55 -215.04,-19.18 -1.12,-5.05 -0.56,-9.68 -1.61,-15.89l-5.02 -15.13 0.9 27.88z"/>
    <path class="fil10" d="M2459.46 2180.66c40.99,5.45 110.61,1.36 154.66,1.36 25.08,0 50.15,0 75.23,0 17.87,0 62.92,-4.56 75.03,3.86 9.03,2.85 3.85,2.18 11.05,10.81 4.68,5.6 7.51,8.11 12.44,12.22l-6.43 -28.92c-15.29,-33.1 -29.19,-139.77 -33.5,-184.69 -1.55,-16.19 -1.93,-53.15 -6.08,-65.5 -7.61,11.12 -2.31,25.82 -6.5,34.97 -6.19,84.58 -121.11,84.43 -141.6,19.67 -9.36,-13.74 -5.24,-36.81 -4.81,-55.35l-8.16 1.42c11.11,18.85 -4.43,-10.51 -42.13,46.04 -13.49,20.24 -21.82,38.77 -31.46,61.7 -17.37,41.32 -37.63,95.45 -47.73,142.4z"/>
    <path class="fil13" d="M2590.88 2950.88l1.94 8.68c30.5,0.56 149.21,2.47 174.09,-3.3 3.3,-0.92 4.5,-1.13 8.98,-3.07l-0.85 -11 -55.55 -264.63 -80.33 -1.38c-6.64,33.28 -50.68,260.29 -48.27,274.7z"/>
    <path class="fil10" d="M2783.07 2030.6l26.61 161.04 5.91 -1.84 25.08 -14.84c8.58,-5.2 18.5,-9.19 25.07,-17.6 6.63,-2.43 17.91,-9.95 24.09,-13.95 8.41,-5.45 14.46,-9.87 24.3,-14.66 16.67,-8.11 33.28,-24.55 50.45,-28.05 3.88,-6.14 7.07,-5.93 12.61,-12.46 -27.9,-35.12 -56.94,-70.96 -82.74,-101.35 -37.18,-43.8 -47.59,-64.97 -126.39,-50.76l15.02 94.47z"/>
    <path class="fil11" d="M1116.91 1927.31c-4.06,7.75 -3.31,3.91 -9.66,10.41 6.1,7.46 14.78,12.23 22.52,18.66 53.58,44.56 87.92,127.04 97.82,195.38 24.29,-11.94 45.67,-34.29 61.69,-54.85 12.97,-16.64 43.73,-57.02 35.85,-78.48 -18.57,-50.44 -58.61,-91.95 -98.27,-120.26 -6.99,-4.99 -13.27,-9.64 -21.62,-14.74 -22.65,-13.82 -16.05,-5.54 -18.87,-16.67 -9.36,15.92 -52.84,57.63 -69.45,60.55z"/>
    <path class="fil14" d="M2586.59 2431.61c12.62,3.78 15.78,7.99 13.61,24.06 -26.51,13.52 -35.79,-15.49 -57.55,-18.38 1.63,15.5 13.97,11.12 8.43,34.93 -19.34,2.27 -16.22,0.3 -31.88,-11.96 -1.68,-1.31 -3.47,4.43 -6.25,-8.69l-12.74 -10.64c-8.22,-5.66 -8.58,-5.61 -20.99,-6.62 -2.95,-5.47 0.02,-3.42 -9.37,-6.87 -14.55,-5.36 -26.36,-20.03 -31.4,-36.24 -8.13,-0.99 -27.52,-11.06 -35.44,-16.43l-8.96 -5.11 -6.52 44.71c-1.79,10.92 -4.28,9.55 -3.13,21.65l124.42 50.49c21.37,7.06 52.37,8.19 73.86,0.77 25.63,-8.84 29.97,-28.43 40.26,-46.74l70.66 1c10.38,25.78 21.66,38.71 51.03,43.11 49.01,7.35 98.98,-24.11 134.41,-50.79l52.27 -40.63 -5.04 -23.56c-8.8,-1.26 -17.67,4.62 -25.05,8.44 -58.34,30.14 -27.27,44.67 -66.53,50.43 -12.77,1.87 -22.16,7.99 -30.82,15.57 -2.42,2.11 -3.51,2.83 -5.69,4.83 -2.35,2.15 -1.24,1.42 -3.85,3.86 -6.83,6.38 -21.43,15.2 -30.8,17.73 -0.55,-12.15 0.52,-21.5 7.13,-31.34 8.74,-13.02 4.5,1.05 8.29,-8.35 -12.62,-10.12 -25.34,7.66 -31.38,11.62l-16.77 9.41c-14.12,9.05 -24.94,3.61 -13.45,-13.46 18.01,-26.76 32.81,-16.48 22.86,-37.26 -8.38,0.6 -9.18,5.55 -22.2,7.21 -4.2,0.54 -11.63,0.67 -15.75,0.12l-11.33 -3.6c-2.02,-19.5 2.69,-15.35 17.94,-21.73 27.51,-11.51 19.31,-2.79 25.95,-12.01 -3.67,-7.03 -0.83,-3.19 -8.78,-5.99l-30.99 -5.55c-15.73,-0.93 -31.73,-2.49 -44.48,-3.03 -29.36,-1.24 -26.18,-1.48 -41.14,4.23 -16.49,6.29 -31.03,-4.21 -39.79,7.75 6.33,9.15 52.64,6.84 52.58,36.33 -23.46,12.74 -47.43,-7.2 -59.8,0 2.28,9.95 13.17,18.1 21.45,24.46l2.75 2.29z"/>
    <path class="fil15" d="M2778.29 2259.61c5.62,2.91 27.78,28.48 32.32,33.64 8.98,-2.44 5.02,6.33 6.64,-9.56 -7.84,-7.72 -15.07,-16.77 -22.73,-25.53 -13.22,-15.1 -5.49,-16.57 -32.31,-17.14 -39.9,0.3 -287.96,3.57 -303.81,-2.41 5.88,15.82 27.29,41.8 38.03,60.65 18.24,-0.06 67.25,-16.66 79.4,-3.99 9.42,12.73 -6.26,21.44 -13.9,28.62 -2.31,2.17 -2.17,1.97 -4.16,4.08 -3.09,3.3 -1.56,1.42 -4.27,4.95 20.68,1.32 51.5,3.56 68.01,17.54 0.45,0.38 1,0.93 1.41,1.32l61.24 5.52c0.5,-0.79 1.12,-2.54 1.35,-2.08 0.23,0.44 1.02,-1.41 1.33,-1.83 0.3,-0.4 0.92,-1.27 1.28,-1.74l7.27 -7.92c4.67,-2.98 12.38,-4.07 17.86,-5.22 7.46,-1.56 12.07,-2.36 20.29,-2.9 20.63,-1.35 16.6,-1.87 21.83,-6.83 -0.3,-0.09 -13.7,-6.21 -19.01,-12.46 -5,-5.88 -15.04,-27.04 17.84,-25.74 8.12,0.32 13.5,1.38 20.26,2.7 1.8,-10.76 -0.64,-25.99 3.84,-33.68z"/>
    <path class="fil16" d="M642.47 2355.66c-1.38,21.81 -14.31,63.37 -1.25,79.21 12.19,14.79 40.31,22.35 61.3,25.1l0.68 4.88c6.13,-7.67 32.11,-105.41 32.55,-109.26 -7.65,-13.87 -4.29,5.72 -8.58,-10.96 -1.61,-6.24 0.69,-11.16 2.99,-15.07 8.37,-14.22 9.13,-3.36 19.03,-15.66l36.57 -128.44c-19.48,8.09 -25.47,17.03 -63.7,7.63 -29.52,-7.26 -39.85,-18.3 -51.53,-22.94 9.17,14.37 -0.32,46.61 -5.25,68.42l-22.81 117.08z"/>
    <path class="fil17" d="M809.48 2957.78c4.72,6.4 12.27,20.29 19.77,23.25 16.58,6.62 85.71,1.3 108.99,1.3 36.96,0.01 74.77,0.89 111.55,0.04l0.01 -6.7c1.69,-9.4 -12.75,-85.33 -15.6,-99.21l-17.64 0.15c-27.1,-0.72 -56.92,3 -86.18,2.42 -25.27,-0.51 -59.96,-6.89 -81.01,-5.97 -10,6.02 -16.49,28.86 -21.93,41.47 -4.87,11.3 -15.79,33.78 -17.96,43.24z"/>
    <path class="fil18" d="M749.2 2313.91c-9.9,12.3 -10.66,1.44 -19.03,15.66 -2.3,3.91 -4.59,8.83 -2.99,15.07 4.29,16.68 0.93,-2.91 8.58,10.96 37.6,-3.43 67.88,7.49 107.53,-40.36 62.9,-75.89 87.05,-264.36 88.74,-361.95l2.95 0.6c3.07,-7.24 -0.79,-5.37 11.16,-5.96 1.86,-13.8 2.48,-23.89 -1.64,-37.24 -27.42,-0.2 -107.32,-5.54 -126.7,2.4 -0.08,0.49 0.11,0.82 0.18,1.48 0.63,5.88 8.3,8.82 12.84,11 30.52,14.67 45.82,16.01 65.73,25.11 7.67,61.16 -15.12,172.51 -30.44,223.68 -17.03,56.89 -57.36,126.55 -114.65,142.49 -4.26,-3.74 -0.39,2.53 -2.26,-2.96z"/>
    <path class="fil6" d="M1016.56 2876.61l17.64 -0.15c2.85,13.88 17.29,89.81 15.6,99.21 7.56,7.46 6.36,19.33 6.69,33.9 0.22,9.52 -1.82,24.79 2.5,32.38l-2.41 -58.01 149.63 -0.6c-11.1,-12.84 -5.22,-50.57 -5.22,-69.8 -0,-19.93 -3.16,-57.24 1.5,-74.75 -28.83,5.86 -58.81,16.03 -90.28,22.75 -17.95,3.83 -87.72,11.72 -95.65,15.07z"/>
    <path class="fil19" d="M2458.39 2238.62c15.85,5.98 263.91,2.71 303.81,2.41l-0.73 -38.72c8.55,3.99 53.5,56.26 61.64,65.38l8.18 -1.37 -0.58 -5.79c-8.09,-8.75 -38.49,-42.27 -42.85,-51.61 -4.92,-4.12 -7.76,-6.62 -12.44,-12.22 -7.2,-8.63 -2.02,-7.96 -11.05,-10.81 -49.97,-4.13 -218.72,-1.24 -290.35,-1.14 -26.14,0.04 -57.49,-6.4 -32.8,29.29l17.17 24.58z"/>
    <path class="fil10" d="M2344.26 2100.67c22.16,2.11 81.03,55.71 95.42,49.07 7.71,-42.63 22.75,-88.2 39.34,-124.03 8.91,-19.24 16.42,-33.75 28.05,-52.36 9.01,-14.41 27.47,-35.59 32.07,-46.81 -32.1,4.04 -56.1,-4.66 -78.87,13.02 -5.06,3.93 -15.83,16.83 -20.94,23.06l-106.02 125.63 10.95 12.42z"/>
    <path class="fil6" d="M671.05 2937.88c21.04,-3.93 109.04,17.1 138.43,19.9 2.17,-9.47 13.09,-31.95 17.96,-43.24 5.44,-12.62 11.93,-35.45 21.93,-41.47 -9.2,-6.21 -33.9,-7.05 -45.29,-9.97 -13.36,-3.41 -28.06,-7.2 -42.48,-11.8 -28.58,-9.12 -49.28,-20.07 -76.35,-31.37 3.96,31.32 -18.03,81.81 -14.2,117.94z"/>
    <path class="fil20" d="M2718.6 1927.35l17.81 1.05 -1.07 36.39c4.2,-9.15 -1.11,-23.85 6.5,-34.97 4.15,12.35 4.53,49.31 6.08,65.5 4.31,44.92 18.21,151.58 33.5,184.69 4.59,-25.91 -2.42,-47.6 -2.14,-73.59l-0.26 -67.42c2.5,-9.78 -0.28,-3.29 4.04,-8.4l-15.02 -94.47c78.8,-14.22 89.21,6.96 126.39,50.76 25.8,30.4 54.84,66.24 82.74,101.35 -5.53,6.52 -8.73,6.32 -12.61,12.46 13.01,10.88 31.39,28.02 39.98,45.69l0.62 -7.21c-2.94,-16.35 -55.83,-110.72 -69.13,-134.27 -29.6,-52.35 -50.56,-101.28 -111.24,-92.62 -15.37,1.79 -38.24,-0.52 -55.04,-0.4 -18.03,0.12 -34.39,0.97 -52.19,2.22l1.03 13.24z"/>
    <path class="fil21" d="M660.39 2983.63c-1.02,13.16 1.39,11.32 16.96,14.81 31.12,6.97 163.45,47.03 174.61,36.37 14.61,-13.95 -15.93,-39.94 -22.71,-53.77 -7.5,-2.96 -15.05,-16.85 -19.77,-23.25 -29.39,-2.8 -117.4,-23.83 -138.43,-19.9l-10.66 45.75z"/>
    <path class="fil2" d="M973.08 1748.26c6.3,49.55 100.46,107.82 164.42,33.32 9.98,-11.62 27.52,-38.82 29.14,-59.5l-186.92 22.86c-4.77,1.76 -3.79,1.2 -6.64,3.31z"/>
    <path class="fil22" d="M2766.91 2956.26c-5.25,8.03 -18.41,15.57 -27.98,22.52 -10.13,7.36 -24.66,13.84 -15.86,31.24 15.53,12.04 162.75,10.97 195.07,10.27l2.42 -60.19c-27.39,-1.51 -52.37,-1.71 -79.44,-3.44 -13.36,-0.85 -26.92,-0.79 -40.35,-1.05 -24.15,-0.45 -20.55,-2.09 -23.59,-7.6 -0.58,-1.06 -0.35,-2.5 -2.14,-5.82l0.85 11c-4.49,1.94 -5.68,2.14 -8.98,3.07z"/>
    <path class="fil18" d="M1058.72 1942.23l1.92 10.75 13.02 2.23c53.58,-12.86 132.7,214.71 148.56,269.47 5.56,19.19 0.6,31.11 10.52,49.11 1.7,-46.96 -2.01,-77.89 -5.16,-122.03 -9.91,-68.34 -44.24,-150.81 -97.82,-195.38 -7.74,-6.44 -16.42,-11.2 -22.52,-18.66 6.35,-6.5 5.6,-2.66 9.66,-10.41 -10.44,-5.99 -42.9,-8.47 -56.38,-7.23l-1.81 22.15z"/>
    <path class="fil23" d="M2422.73 2961.78c-9.8,13.24 -47.89,28.24 -38.2,46.69 14.81,13.85 67.88,8.99 93.46,10.45 25.28,1.44 80.77,3.97 104.16,0.42l2.29 -58.34 -138.95 -0.48c-7.99,-3.54 -3.85,3.93 -6.16,-9.26l-3.42 0c-1.64,4.05 1.89,1.57 -5.23,7.27 -9.67,7.75 -1.07,2.13 -7.94,3.25z"/>
    <path class="fil21" d="M1058.99 3041.95c14.57,5.78 83.96,0.82 104.94,0.45 27.09,-0.48 74.29,3.28 92.03,-10.6 10.97,-18.59 -30.19,-32.09 -39.75,-44.4l-10.01 -4.05 -149.63 0.6 2.41 58.01z"/>
    <path class="fil24" d="M2926.27 2369.66l5.04 23.56c0.24,0.37 16.85,59.55 18.97,67.18l41.92 -10.31c14.99,-7.5 23.69,-11.77 28.4,-27.75 0.8,-34 -12.34,-88.18 -17.71,-121.91l-4.82 -6.68c-3.09,3.76 -5.76,7.83 -8.96,11.27 -12.42,13.38 -12.29,16.85 -26.05,28.51 -15.86,13.44 -34.96,24.73 -36.79,36.13z"/>
    <path class="fil9" d="M710.49 1813.09c1.2,8.18 3.07,16.35 5.05,25.22 0.9,4.03 1.91,9.32 2.99,13.17 2.83,10.1 -0.69,7.44 6.15,9.83l10.91 -9.38 17.87 18.86c22.23,14.12 40.35,42.37 66.14,41.1 21.55,-1.06 100.6,1.49 109.03,-5.29 -53.27,-7.74 -110.55,-54.41 -126.48,-89.4 -19.4,4.76 -25.81,14.79 -52.07,7.81 -19.45,-5.17 -26.91,-15.52 -41.22,-23.2l1.64 11.27z"/>
    <path class="fil5" d="M2609.87 1971.52c-2.27,27.19 37.21,52.41 70.98,40.64 12.91,-4.5 25.51,-15.53 31.4,-28.12 7.71,-16.5 5.11,-37.13 6.35,-56.68l-1.03 -13.24c17.81,-1.25 34.16,-2.1 52.19,-2.22 16.8,-0.12 39.66,2.19 55.04,0.4l-3.98 -1.53c-3.09,-0.76 -3.25,-0.96 -6.85,-1.41 -3.54,-0.44 -9.32,-0.47 -13.04,-0.56 -21.35,-0.48 -71.46,1.94 -83.41,-0.38l-0.08 7.38c-31.04,13.42 -76.36,9.28 -111.11,1.49 1.89,13.46 7.81,36.1 3.53,54.22z"/>
    <path class="fil6" d="M948.7 1947.88c-0.05,29.86 -3.86,90.12 54.38,90.89 64.25,0.84 56.06,-69.55 57.56,-85.78l-1.92 -10.75c-17.17,0.11 -36.46,3.99 -55.62,4.49 -13.59,0.35 -45.53,-4.41 -54.4,1.16z"/>
    <path class="fil20" d="M2545.08 1925.93l-5.93 0.6c-4.6,11.22 -23.06,32.41 -32.07,46.81 -11.64,18.61 -19.14,33.11 -28.05,52.36 -16.59,35.83 -31.64,81.4 -39.34,124.03 0.25,8.24 -1.19,23.68 -1.13,24.9 0.5,10.59 10.51,8.34 20.91,6.03 10.1,-46.95 30.36,-101.08 47.73,-142.4 9.64,-22.93 17.97,-41.46 31.46,-61.7 37.69,-56.56 53.24,-27.19 42.13,-46.04l8.16 -1.42c0.09,-8.04 1.54,-2.96 -3.37,-7.48l-40.49 4.3z"/>
    <path class="fil25" d="M2676.39 1746.46c-24.88,-0.64 -86.41,-9.96 -105.66,-5.12 -13.3,2.19 -29.39,-1.53 -43.47,-2.44 6.84,29.21 44.18,55.41 81.6,56.15 20.62,0.41 39.66,-5.48 53.19,-14.27l32.98 -29.94 -16.05 -3.08c-0.81,-0.33 -1.79,-0.76 -2.59,-1.31z"/>
    <path class="fil18" d="M670.54 2170.16c11.68,4.63 22.01,15.68 51.53,22.94 38.23,9.4 44.23,0.46 63.7,-7.63l1.47 -15.53c-29.77,-5.52 -48.75,-13.32 -69.58,-26.65 -13.16,-8.42 -45.98,-31.04 -50.35,-44.46 -1.6,12.53 -3.8,11.22 -8.93,20.53 -0.34,0.62 -9.29,19.84 -9.3,19.88 -4.47,14.62 13,25.67 21.46,30.92z"/>
    <path class="fil26" d="M2570.73 1741.34c19.25,-4.84 80.77,4.48 105.66,5.12 17.18,0.36 20.02,3.23 27.81,-9.18 3.49,-5.55 9.13,-14.62 9.51,-21.2l-196.7 -7.96 6.33 26.93 41.08 3.64c9.26,2.6 2.3,0.01 6.31,2.65z"/>
    <path class="fil27" d="M2781.43 2180l6.43 28.92c4.36,9.34 34.76,42.86 42.85,51.61l8.84 -0.5 7.52 -15.21c0.36,-9.23 -9.84,-18.66 -14.61,-27.13 -5.3,-9.42 -6.11,-23.54 -16.87,-27.9l-5.91 1.84 -26.61 -161.04c-4.32,5.11 -1.54,-1.38 -4.04,8.4l0.26 67.42c-0.29,25.99 6.72,47.68 2.14,73.59z"/>
    <path class="fil28" d="M1190.17 1859.61l-3.81 7.15c2.83,11.13 -3.77,2.85 18.87,16.67 8.35,5.1 14.63,9.75 21.62,14.74 39.66,28.31 79.71,69.82 98.27,120.26 22.16,10.77 4.45,-42.58 -2.36,-49.09 -12.59,-21.49 -27.4,-40.29 -45.97,-58.89 -8.93,-8.95 -18.02,-15.5 -27.72,-24.04 -7.27,-6.4 -17.74,-15.49 -27.49,-22.55 -5.23,-5.16 -9.99,-7.44 -15.2,-12.41 -13.05,5.05 1.93,-0.56 -7.18,4.57 -3.48,1.96 0.03,1.91 -9.03,3.61z"/>
    <path class="fil28" d="M724.67 1861.31c-4.21,5.36 5.15,1.24 -7.51,5.21l-51.35 55.55c-7.64,8.68 -15.64,18.83 -22.32,29.66 -10.35,16.79 -12.42,28.02 -20.92,30.15 1.35,19.62 -4.5,18.71 -5.13,33.96 -0.24,5.85 -0.34,11.3 2.51,14.67 8,9.47 -1.15,1.04 10.21,-3.95 16.77,-39.38 26.36,-60.86 50.72,-89.36 12.57,-14.71 20.57,-22.18 35,-35.06 5.8,-5.17 35.41,-27.27 37.57,-31.34l-17.87 -18.86 -10.91 9.38z"/>
    <path class="fil29" d="M2593.74 1984.46c20.49,64.76 135.41,64.91 141.6,-19.67l1.07 -36.39 -17.81 -1.05c-1.24,19.55 1.36,40.17 -6.35,56.68 -5.89,12.6 -18.49,23.62 -31.4,28.12 -33.76,11.78 -73.24,-13.45 -70.98,-40.64l-4.51 -44.11 -12.74 2.52c-3.93,15.11 -2.38,38.83 1.12,54.53z"/>
    <path class="fil30" d="M2545.08 1925.93l40.49 -4.3c4.91,4.52 3.46,-0.56 3.37,7.48 -0.44,18.54 -4.55,41.61 4.81,55.35 -3.49,-15.69 -5.04,-39.41 -1.12,-54.53l12.74 -2.52 4.51 44.11c4.27,-18.11 -1.65,-40.75 -3.53,-54.22 34.75,7.78 80.07,11.92 111.11,-1.49l0.08 -7.38 1.31 -21.57c-18.23,-0.71 -38.87,3.44 -60.65,2.05 -10.12,-0.65 -48.05,-6.52 -50.72,-5.97l-1.51 34.07c-14.03,2.74 -52.52,1.67 -60.87,8.93z"/>
    <path class="fil28" d="M934.98 1953.89c-1.6,27.68 -1.51,54.41 11.64,74.15 9.11,13.68 31.3,28.34 56.46,28.48 27.38,0.15 47,-12.55 57.86,-27.25 15.82,-21.41 12.52,-44.14 12.73,-74.06l-13.02 -2.23c-1.51,16.23 6.68,86.62 -57.56,85.78 -58.24,-0.76 -54.43,-61.03 -54.38,-90.89l-2.56 0.05c-11.95,0.59 -8.09,-1.28 -11.16,5.96z"/>
    <path class="fil31" d="M943.44 1910.57l1.06 0.12c4.12,13.35 3.49,23.44 1.64,37.24l2.56 -0.05c8.87,-5.57 40.81,-0.81 54.4,-1.16 19.17,-0.49 38.45,-4.38 55.62,-4.49l1.81 -22.15 0.59 -13.77c-49.91,13.73 -85.42,3.39 -117.68,4.27z"/>
    <path class="fil9" d="M1061.12 1906.31l-0.59 13.77c13.49,-1.24 45.95,1.23 56.38,7.23 16.61,-2.92 60.09,-44.62 69.45,-60.55l0.03 -11.28c-21.27,17.04 -88.98,48.27 -125.27,50.83z"/>
    <path class="fil14" d="M2815.59 2189.8c10.76,4.35 11.57,18.48 16.87,27.9 4.77,8.48 14.97,17.9 14.61,27.13 3.89,-3.25 21.01,-24.7 23.47,-32.67 2.95,-9.52 1.94,-17.95 1.49,-27.99 -0.49,-10.65 -0.85,-17.64 -6.3,-26.81 -6.56,8.41 -16.49,12.4 -25.07,17.6l-25.08 14.84z"/>
    <path class="fil30" d="M2587.91 1628.41c39.3,-9.23 24.47,22.86 49.11,20.78 2.21,-19.97 -16.32,-40.68 -41.05,-38.3 -26.7,2.58 -31.15,28.63 -17.6,48.6 4.67,6.88 13.24,17.51 18.64,22.76 7.07,6.87 24.2,16 20.66,-0.08 -2.84,-12.92 -34.41,-24.38 -29.77,-53.77z"/>
    <path class="fil31" d="M1079.69 1653.63c8.53,22.71 -27.44,35.03 -31.08,57.21 15.83,3.25 10.46,4.96 22.66,-8.48 6.76,-7.46 13.76,-15.08 18.54,-22.78 12.62,-20.33 9.04,-45.08 -19.52,-47.72 -22.25,-2.05 -47.33,24.42 -39.62,37.02 12.11,19.77 18.93,-41 49.02,-15.25z"/>
    <path class="fil31" d="M749.04 1745.67c-2.68,11.17 -12.14,12.03 -14.58,26.7 -2.66,15.96 7.86,29.17 14.74,16.1 9.32,-17.71 -13.05,-14.85 25.94,-37.06 10.23,-5.82 7.68,-1.25 7.46,-14.14 -18.89,-8.07 -27.99,0.82 -54.11,-23.07 -7.55,-6.9 -7.46,-9.81 -19.75,-6.23 -1.8,18.04 25.85,29.71 40.3,37.69z"/>
    <path class="fil30" d="M2917.63 1769.38c12.53,-0.46 13.86,-10.95 11.5,-22.94 -1.93,-9.77 -9.74,-13.78 -14.06,-21.54 2.59,-3.33 0.23,-0.93 3.96,-3.66 1.19,-0.87 5.07,-3.17 6.49,-4 17.08,-10.09 30.98,-17.18 27.65,-33.17 -18.91,-1.24 -18.39,15.77 -45.43,23.71 -3.75,1.1 -19.93,4.48 -20.83,4.88 -18.83,8.18 8.09,18.62 14.56,23.01 20.84,14.13 6.26,18.74 16.16,33.71z"/>
    <path class="fil32" d="M2762.2 2241.03c26.83,0.56 19.1,2.03 32.31,17.14 7.67,8.76 14.89,17.81 22.73,25.53 5.06,0.08 2.56,0.98 6.1,-1.13l-0.25 -14.88c-8.13,-9.12 -53.09,-61.39 -61.64,-65.38l0.73 38.72z"/>
    <path class="fil33" d="M2533.03 1552.34c-26.34,9.76 -11.44,52 17.61,39.36 22.98,-10 10.71,-49.85 -17.61,-39.36z"/>
    <path class="fil33" d="M2727.79 1568.29c-24.73,13.28 -7.06,49.92 19.52,38.21 23.25,-10.24 8.51,-53.26 -19.52,-38.21z"/>
    <path class="fil34" d="M2512.95 2451.57c2.79,13.12 4.58,7.38 6.25,8.69 15.66,12.26 12.54,14.23 31.88,11.96 5.54,-23.81 -6.8,-19.43 -8.43,-34.93 21.76,2.88 31.04,31.9 57.55,18.38 2.17,-16.07 -1,-20.28 -13.61,-24.06 6.29,13.97 9.16,0.9 7.79,21.17 -26.63,-0.83 -27.94,-25.06 -61.11,-25.03 1.24,21.41 10.2,13.51 12.07,38.1 -21.71,-2.4 -9.25,-10.03 -32.4,-14.29z"/>
    <path class="fil33" d="M909.49 1592.67c32.07,-3.99 11.57,21.75 33.94,20.78 10.42,-20.18 -25.66,-50.94 -46.81,-26.1 -19.46,22.85 1.27,53.77 5.94,23.77 1.53,-9.83 2.56,-12.5 6.93,-18.45z"/>
    <path class="fil33" d="M1096.49 1611.11c10.59,-1.76 7.29,-0.91 10,-10.71 2.54,-9.19 2.5,-8.48 7.34,-15.83 33.55,-3.44 10.63,26.75 33.35,24.83 6.81,-18.15 -8.34,-40.18 -27.15,-39.41 -15.81,0.64 -37.23,23.17 -23.54,41.13z"/>
    <path class="fil35" d="M1106 1549.24c12.37,5.91 15.3,-0.26 27.06,4.39 9.11,3.6 8.62,10.93 21.52,8.7 10.44,-25.93 -52.37,-39.04 -48.58,-13.09z"/>
    <path class="fil35" d="M878.58 1571.62c16.12,2.39 14.35,-8.32 26.67,-12.2 7.04,-2.22 31.67,-0.54 20.35,-13.81 -9.01,-10.57 -50.47,0.97 -47.03,26.01z"/>
    <path class="fil36" d="M2739.57 1534.73c9.01,4.07 14.29,0.53 24.85,6.18 12.24,6.55 6.86,14.18 22.33,9.21 3.4,-21.07 -26.26,-29.64 -37.98,-28.52 -10.52,1 -10.26,3 -9.2,13.14z"/>
    <path class="fil36" d="M2514.81 1541.57c12.53,3.51 7.83,-2.69 19.39,-8.08 9.35,-4.37 15.98,-0.68 27.21,-3.77 3.84,-27.53 -44.28,-10.88 -48.2,1.47 -0,0.01 -3.1,2.33 1.6,10.38z"/>
    <path class="fil32" d="M2810.61 2293.25c-4.54,-5.16 -26.7,-30.73 -32.32,-33.64l-0.77 33.66c8.62,3.51 25.68,7.37 34.83,6.29l-1.74 -6.31z"/>
    <path class="fil37" d="M2950.27 2460.4c-0.97,3.75 2.55,24.91 8.47,31.97 1.76,-21.78 4.77,-9.12 16.09,-22.6 10.28,-12.24 11.3,-5.42 17.36,-19.68l-41.92 10.31z"/>
   </g>
  </g>
 </g>
</svg>
