<?xml version="1.0"?>
<svg xmlns="http://www.w3.org/2000/svg" viewBox="0 0 512 512" fill="#ffffff">
  <g data-name="Teacher II">
    <path d="M441.5923 229.689V178.271c0-6.6111-10-6.62-10 0V181.78a31.4739 31.4739 0 1 0 0 45.96v1.9488C431.5923 236.3 441.5923 236.3086 441.5923 229.689zm-31.4741-3.4551A21.4739 21.4739 0 1 1 431.5923 204.76 21.4981 21.4981 0 0 1 410.1182 226.2339zM117.6838 217.3647a8.3693 8.3693 0 1 0 8.3694 8.3692A8.3692 8.3692 0 0 0 117.6838 217.3647zM172.3694 234.1033A8.3693 8.3693 0 1 0 164 225.7339 8.3693 8.3693 0 0 0 172.3694 234.1033zM321.6987 122.6479c-33.6244 0-44.692 105.0853-44.8506 106.49-.739 6.5713 9.1951 7.698 9.9375 1.12.0249-.2236 2.3033-20.1189 7.1885-41.9717h55.45c4.8853 21.8528 7.1636 41.7481 7.1885 41.9717.7494 6.6431 10.6758 5.4458 9.9375-1.12C366.392 227.7356 355.3232 122.6479 321.6987 122.6479zm-25.32 55.6382c10.5991-41.1289 21.2134-45.6382 25.32-45.6382s14.7217 4.5093 25.3208 45.6382z"/>
    <path d="M480,27H32a5,5,0,0,0-5,5V392a4.9843,4.9843,0,0,0,3.381,4.7087c-4.75,33.6443-4.0678,70.8841-3.3737,83.5657A5,5,0,0,0,32,485H224a5,5,0,0,0,5-5V431.3809c4.9683,4.0507,11.8008,9.6176,19.3472,15.7529a27.7214,27.7214,0,0,0,34.7.3574l48.15-37.5517A14.9517,14.9517,0,0,0,336.91,397h54.7578c6.4156,0,6.416-10,0-10H333.7107c3.8378-2.9843,4.77-3.1754,6.5876-3.7046,5.0564-1.4737,30.7319-13.9094,31.28-32.2891.2705-9.0556-4.6694-18.9477-14.6963-29.4516,26.681-27.5233,7.3707-40.258-1.1094-34.69-4.0522,2.6621-26.2988,19.211-37.1083,28.5718-10.1714,8.8091-16.1385,27.2407-18.8405,37.7046a14.9264,14.9264,0,0,0-16.6469,1.9175l-23.23,19.8686c-6.2222-11.9575-21.563-38.8379-38.7222-49.5107-9.0371-5.6211-24.049-8.7749-35.833-10.4807a20.8223,20.8223,0,0,0-8.16-8.75c18.1226-9.1374,29.7073-27.2909,33.5292-50.396,21.0374-3.8469,23.5614-31.2542,9.1153-42.1953,13.6059-41.988-6.8038-69.9763-31.03-82.3257-32.6379-16.6355-76.4574-9.4506-99.8941,22.8589-29.583.9927-34.6944,36.2757-20.3422,60.7476-13.1869,11.93-8.8262,37.1626,10.9941,40.9009,3.737,22.616,15.03,41.004,33.3569,50.3237a20.8277,20.8277,0,0,0-8.3047,8.8367c-16.3105,2.332-30,6.0134-40.7041,10.9587C52.2761,331.291,43.2676,344.4783,37,365.2515V37H475V387H441.2917c-6.4155,0-6.416,10,0,10H480a5,5,0,0,0,5-5V32A5,5,0,0,0,480,27ZM325.2114,322.9966c9.8828-8.5591,29.4859-23.2237,35.1206-27.14,1.84,4.5014-6.3791,14.8734-13.9819,22.0372a5.0024,5.0024,0,0,0-.0161,7.2631c10.186,9.6836,15.459,18.5191,15.25,25.5513-.3374,11.2819-20.1949,21.8536-24.0835,22.9868-3.222.9385-5.57,1.8055-11.4749,6.647l-17.7844-19.3806C310.1838,351.6958,316.0925,330.8938,325.2114,322.9966ZM123.7026,310.292c18.6825,5.3446,36.3242,1.8644,42.6446.0908v5.9546c0,28.4119-42.6446,28.3731-42.6446,0Zm14.0118,46.7427a9.0917,9.0917,0,0,0,2.31,2.22v8.4927a23.36,23.36,0,0,1-8.9941-4.0156Zm12.31,2.22a9.0932,9.0932,0,0,0,2.3108-2.2207l6.6843,6.6973a23.3579,23.3579,0,0,1-8.9951,4.0159Zm5.3286-13.3532a31.3867,31.3867,0,0,0,20.8781-26.9693c3.2816,6.0521.3125,22.252-10.4323,37.4351Zm-64.0083-181.77a4.98,4.98,0,0,0,4.357-2.206c20.9721-31.1934,61.52-35.5537,88.6035-21.7471,26.0906,13.2988,35.7453,38.9814,26.38,69.2808-2.6663-10.9629-13.4337-31.1739-39.1789-31.1739H118.8618c-25.8706,0-36.6211,20.4126-39.2212,31.3374-.7608.1275-1.4983.29-2.2141.4815C66.2988,191.4529,68.2544,163.1915,91.3447,164.1323Zm-2.3808,86.4888a5,5,0,0,0-4.9629-4.3931h-.0161c-17.46-.6669-17.1338-26.9565.0014-26.9565a5,5,0,0,0,5-5c0-3.2388,5.9336-25.9854,29.8755-25.9854h52.6445c23.5665,0,29.875,22.8994,29.875,25.9854a5,5,0,0,0,5,5c16.0127,0,17.6965,26.2879.001,26.9565h-.0151a5,5,0,0,0-4.9629,4.3931c-2.3975,19.6089-12.8892,52.5044-56.22,52.5044S91.3613,270.23,88.9639,250.6211Zm24.8547,68.3108a31.3867,31.3867,0,0,0,20.8782,26.97l-10.4453,10.4658C113.5043,341.1837,110.5365,324.9819,113.8186,318.9319ZM68.147,334.9741c8.9314-4.1264,20.7542-7.4182,34.4389-9.6111.0285,1.293,6.2247,52.9021,42.439,52.9021,36.28,0,42.4135-51.7672,42.4385-52.8943,12.9365,2.1031,22.9311,5.0862,28.48,8.5374,19.3852,12.0576,37.6816,50.7119,37.8642,51.1011a5.0026,5.0026,0,0,0,7.7769,1.6767l28.0927-24.0273a4.9809,4.9809,0,0,1,6.9336.4189l29.0459,31.6529a5.0062,5.0062,0,0,1-.6088,7.3232l-48.15,37.5518a17.769,17.769,0,0,1-22.2421-.2305c-15.1934-12.3525-27.4908-22.3979-27.4927-22.3994A5.0036,5.0036,0,0,0,219,420.8477V475H88.8672V427.1548c0-6.6113-10-6.62-10,0V475H36.7715C35.2588,436.584,38.1807,348.8188,68.147,334.9741Z"/>
    <circle cx="416.48" cy="392" r="5"/>
  </g>
</svg>
