<?xml version="1.0"?>
<svg xmlns="http://www.w3.org/2000/svg" enable-background="new 0 0 66 66" viewBox="0 0 66 66" fill="#ffffff">
  <path d="M21.4321 7.4079c2.4547-1.8781 4.2121-2.7533 8.7021-3.6084.542-.1035.8985-.627.7949-1.1694-.1035-.5415-.6172-.8936-1.1699-.7954-4.892.933-6.7209 1.8262-9.542 3.9854-.4385.3354-.5225.9629-.1865 1.4019C20.3666 7.6621 20.9979 7.7423 21.4321 7.4079zM34.0444 3.2736c1.9111.0967 3.8047.4995 5.6279 1.1987.5201.1999 1.0959-.0636 1.292-.5757.1982-.5156-.0596-1.0938-.5752-1.2915-2.0283-.7773-4.1357-1.2251-6.2656-1.3301-.8037-.0211-1.1779.4594-1.1279 1.085C33.0366 2.8737 33.5307 3.2604 34.0444 3.2736zM14.4262 16.5573c4.752-4.2783 10.3623-7.1631 16.2266-8.3433.541-.1089.8916-.6362.7832-1.1777-.1094-.542-.6367-.8926-1.1777-.7832-6.2148 1.251-12.1523 4.3003-17.1699 8.8179-.4102.3696-.4434 1.002-.0742 1.4121C13.3829 16.8939 14.0149 16.9266 14.4262 16.5573zM34.3442 5.696c-.5508.04-.9648.5186-.9248 1.0693.04.5513.5273.9561 1.0693.9258 5.4187-.3891 9.1899.5932 12.5068 1.7803.3783.1851.8264.1083 1.126-.1777.5372-.5117.3428-1.419-.3555-1.6704-1.1441-.4117-4.7723-1.5328-4.9893-1.5542C40.6533 5.9079 38.1732 5.4184 34.3442 5.696zM31.4174 10.5461c-.542.1025-.8984.626-.7959 1.1685.1025.543.6211.9058 1.1689.7964 4.9464-.9361 8.287-.1529 9.8184-.0718 1.4546.5374 5.8608 1.2933 10.6104 4.8364.439.3298 1.0687.2403 1.3994-.2031.3301-.4429.2393-1.0693-.2041-1.3994C47.571 11.3111 39.6977 8.9791 31.4174 10.5461zM9.7504 27.674c.4638.2885 1.0828.1516 1.377-.3223 4.1055-6.6167 10.1191-11.5371 16.9336-13.856.5225-.1782.8027-.7461.624-1.269-.1777-.5225-.7451-.8022-1.2686-.6245C20.1655 14.07 13.7768 19.2887 9.4282 26.297 9.1371 26.7663 9.2817 27.383 9.7504 27.674zM10.1176 39.3991c.4727 0 .8691-.332.9736-.7744 2.0556-7.8242 6.6313-14.0578 12.3574-17.917.458-.3086.5791-.9302.2705-1.3882s-.9316-.5791-1.3877-.27c-6.1711 4.1587-11.0079 10.8203-13.1816 19.0913C9.0302 38.6001 9.2933 39.3991 10.1176 39.3991z"/>
  <path d="M48.8832 17.9821c-6.7434-4.1015-15.0362-4.7761-22.9551-.9932-.499.2383-.71.835-.4717 1.3335.2383.4976.834.708 1.333.4712 7.2256-3.4514 14.8014-2.9052 21.0547.8975.4669.2841 1.084.1414 1.374-.335C49.5053 18.8844 49.3549 18.2692 48.8832 17.9821zM52.2416 20.4518c-.4121-.3638-1.0449-.3247-1.4111.0903-.3643.415-.3242 1.0469.0908 1.4116 1.5527 1.3662 2.9199 2.9609 4.0635 4.7402.1641.3242.502.5454.8926.5454.7867 0 1.2646-.8767.8438-1.5425C55.4662 23.7272 53.9594 21.9626 52.2416 20.4518z"/>
  <path d="M40.9809 19.4362c-.5313-.1592-1.0869.1396-1.2471.667-.1602.5288.1387 1.0869.667 1.2471.3463.2094 10.329 1.8821 13.4492 13.7598.866 3.2724.7713 6.3078.7773 6.4116-.0068.5522.4355 1.0059.9873 1.0127.0049 0 .0088 0 .0127 0 .5469 0 .9932-.4395 1-.9873-.0101-.1725.125-3.288-.8438-6.9468C52.3238 21.4262 41.4336 19.7102 40.9809 19.4362zM13.4262 39.38c-.9383 3.6776-1.2156 7.6044-.6484 11.4023.0742.4961.501.8521.9883.8521.0488 0 .0986-.0034.1484-.0112.5469-.0815.9229-.5903.8418-1.1367-.4937-3.288-.3274-6.9433.6074-10.6123.1367-.5352-.1865-1.0796-.7217-1.2163C14.1059 38.5221 13.5619 38.8444 13.4262 39.38zM14.7123 35.4543c-.207.5122.04 1.0947.5518 1.3018.5218.2091 1.0977-.0477 1.3018-.5527 6.3498-15.7139 20.0543-15.2186 20.1543-15.2559.1-.0439 1.0008-.0546 1.0107-.9897.0059-.5522-.4375-1.0044-.9893-1.0103l-.1514-.0005C27.4926 18.9469 18.7006 25.5807 14.7123 35.4543z"/>
  <path d="M36.2446 23.3922c-7.4518.1623-15.4789 6.3738-18.3291 16.3999-.1514.5313.1572 1.0845.6885 1.2354.5398.1522 1.0861-.1632 1.2354-.6885 2.6481-9.3188 9.955-14.8058 16.4482-14.9468.5527-.0122.9902-.4697.9785-1.022C37.2543 23.819 36.8041 23.3971 36.2446 23.3922zM17.1 43.8664c-1.0683 9.0311 2.8771 17.4613 10.9102 20.1333l1.4639.4678c.1016.0322.2041.0479.3047.0479.4238 0 .8164-.271.9521-.6963.1689-.5259-.1221-1.0889-.6475-1.2568l-1.4531-.4639c-7.0667-2.3509-10.5079-9.8823-9.5439-17.9966.0645-.5483-.3272-1.0459-.875-1.1108C17.6606 42.9274 17.1655 43.3185 17.1 43.8664zM51.8842 45.2003c.2022-1.2925.3047-2.5957.3047-3.874 0-14.5922-11.5874-17.317-11.6875-17.3906-.5313-.1582-1.0869.1396-1.2461.6685-.1602.5288.1396 1.0869.668 1.2466.1.0804 10.2656 2.3891 10.2656 15.4756 0 1.1748-.0947 2.3745-.2813 3.5645-.085.5459.2881 1.0571.834 1.1426.0518.0083.1045.0122.1553.0122C51.3813 46.0456 51.8071 45.6935 51.8842 45.2003zM50.9203 49.2438c.1719-.5249-.1143-1.0898-.6396-1.2617-.5244-.1733-1.0898.1157-1.2607.6396l-.0742.2275c-2.5652 7.6842-9.2713 14.2269-16.9756 13.8628-.5518-.0107-1.0186.4014-1.0449.9526-.0254.5518.4014 1.0195.9531 1.0454 8.6381.3926 16.127-6.7272 18.9658-15.2334L50.9203 49.2438z"/>
  <path d="M33.0424 28.4084c-4.6436 1.5363-9.3121 6.3461-11.04 13.3066-.1328.5361.1943 1.0781.7305 1.2109.5329.1316 1.078-.191 1.2109-.7305 1.5559-6.2717 5.6941-10.5539 9.7275-11.8887.5244-.1733.8086-.7388.6348-1.2632C34.1332 28.5192 33.5707 28.2316 33.0424 28.4084zM21.3901 45.8595c-.0146.3081-.0215.6157-.0215.9214 0 11.7064 8.8532 13.1782 9.0137 13.3115.1414.0447 1.4236.1914 2.2051.1914.1318-.0005.2627-.0034.3936-.0078.5527-.0205.9834-.4844.9629-1.0361-.0205-.5522-.5332-.9854-1.0352-.9629-4.8779.2002-9.54-3.976-9.54-11.4961 0-.2744.0068-.5513.0195-.8286.0254-.5513-.4004-1.0195-.9521-1.0454C21.8422 44.8883 21.4164 45.3073 21.3901 45.8595zM37.3774 27.8649c-.5625-.0474-1.0332.3662-1.0771.9165-.104 1.3026 1.576 1.0859 1.8213 1.167.1401.0953 7.4938 1.328 7.626 11.147.0078.5474.4541.9863 1 .9863.0039 0 .0088 0 .0137 0 .5518-.0073.9941-.4614.9863-1.0137C47.6586 34.3826 43.9996 28.557 37.3774 27.8649zM37.2143 59.2653c5.3289-2.3588 9.0184-8.122 10.1533-14.0181.1035-.5425-.251-1.0669-.7939-1.1709-.5381-.1035-1.0654.251-1.1709.793-1.0218 5.3132-4.3162 10.4952-8.9971 12.5669-.5059.2236-.7334.8145-.5098 1.3193C36.1182 59.2587 36.7086 59.4898 37.2143 59.2653z"/>
  <path d="M34.0297 32.7609c-.5156.1992-.7715.7783-.5723 1.2935s.7803.772 1.293.5718c3.9553-1.5304 6.5576 2.0926 6.5576 6.7095 0 2.5061-.7435 5.3671-2.2285 7.8091-.2871.4717-.1367 1.0869.335 1.374.4669.2841 1.084.1414 1.374-.335 1.566-2.5766 2.5195-5.7599 2.5195-8.8481C43.308 34.8072 39.0699 30.8127 34.0297 32.7609zM30.4028 35.2409c-2.9336 2.9912-4.5938 7.4737-4.5938 11.5342 0 8.3138 6.5752 11.7477 12.2549 6.7153.4131-.3662.4521-.998.085-1.4116-.3662-.4141-.9971-.4512-1.4111-.0854-4.5957 4.0717-8.9287 1.0318-8.9287-5.2183 0-3.5156 1.4432-7.5053 4.0215-10.1338.3867-.394.3809-1.0273-.0137-1.4141C31.4233 34.8405 30.7885 34.8454 30.4028 35.2409z"/>
  <path d="M30.5209,48.9914c1.3549,5.1441,6.0375,1.1741,7.6719-3.7222c0.7178-2.1523,0.8643-4.3936,0.4033-6.1509   c-0.333-1.2646-0.9658-2.123-1.7344-2.3555c-0.0615-0.0186-0.125-0.0313-0.1895-0.0376c-0.0332-0.0034-0.1455-0.0088-0.1787-0.0088   c-1.6953,0-4.3076,2.3423-5.5713,6.126C30.2045,44.9948,30.058,47.236,30.5209,48.9914z M32.8188,43.4757   c1.0313-3.0869,2.834-4.4526,3.4834-4.7134c0.0996,0.146,0.2432,0.4214,0.3604,0.8647c0.3643,1.3901,0.2305,3.2163-0.3662,5.0088   c-1.0293,3.0815-2.8252,4.4492-3.4932,4.7134c-0.0996-0.1587-0.2363-0.4399-0.3486-0.8667   C32.0893,47.0929,32.2221,45.2677,32.8188,43.4757z"/>
</svg>
