<?xml version="1.0"?>
<svg xmlns="http://www.w3.org/2000/svg" enable-background="new 0 0 1024 1024" viewBox="0 0 1024 1024" fill="#ffffff">
  <path fill="none" stroke="#ffffff" stroke-linejoin="round" stroke-miterlimit="10" stroke-width="15" d="M255,909.28V127h514v782.28c0,11.99-9.72,21.72-21.72,21.72H276.72C264.72,931,255,921.28,255,909.28z"/>
  <path fill="none" stroke="#ffffff" stroke-linejoin="round" stroke-miterlimit="10" stroke-width="15" d="M769 389.37v450.96c0 27.81-22.55 50.36-50.37 50.36H557.21c1.15-22.49 3.73-44.92 8.3-67.06 7.74-37.5 21.21-75.2 15.53-112.9-.13-.89-.91-1.54-1.8-1.54H444.76c-.9 0-1.67.65-1.8 1.54-3.34 22.13-.07 44.24 4.75 66.33 3.4 15.55 7.58 31.08 10.78 46.57 4.57 22.14 7.15 44.57 8.3 67.06H305.37c-27.82 0-50.37-22.55-50.37-50.36V389.37c0-27.82 22.55-50.37 50.37-50.37h413.26C746.45 339 769 361.55 769 389.37zM269.05 107.09L255 127h514l-14.05-19.91C748.71 98.26 738.57 93 727.75 93h-431.5C285.43 93 275.29 98.26 269.05 107.09z"/>
  <polygon fill="none" stroke="#ffffff" stroke-linejoin="round" stroke-miterlimit="10" stroke-width="15" points="332.94 339 314.5 127 709.5 127 691.06 339"/>
  <path fill="none" stroke="#ffffff" stroke-linejoin="round" stroke-miterlimit="10" stroke-width="15" d="M359.75 395.24L333 339h358l-26.77 55.51c-4.86 10.09-15.06 16.51-26.26 16.55l-251.71.87C374.94 411.97 364.61 405.47 359.75 395.24zM476.2 476.8V412h71.59v64.8c0 4.14-3.35 7.49-7.49 7.49H483.7C479.56 484.3 476.2 480.94 476.2 476.8zM499.09 515.51V484.3h25.82v31.21c0 .82-.67 1.49-1.49 1.49h-22.84C499.76 517 499.09 516.33 499.09 515.51zM320.22 228.47c45.89-19.63 97.14-26.57 146.6-19.84 40.61 5.52 79.57 19.97 120.11 26.03 40.54 6.06 85.43 2.39 116.84-23.93"/>
  <path fill="none" stroke="#ffffff" stroke-miterlimit="10" stroke-width="15" d="M445.87,778.95c9.21-10.04,23.41-16.82,38.51-18.38c17.24-1.79,34.41,2.94,51.73,4.06s37.57-3,44.94-16.05"/>
  <path fill="none" stroke="#ffffff" stroke-miterlimit="10" stroke-width="15" d="M565.51 823.63c-4.57 22.14-7.15 44.57-8.3 67.06-.52 10.04-.75 20.09-.74 30.13 0 5.62-4.53 10.18-10.15 10.18h-68.64c-5.62 0-10.15-4.56-10.15-10.18 0-10.04-.23-20.09-.74-30.13-1.15-22.49-3.73-44.92-8.3-67.06-3.2-15.49-7.38-31.02-10.78-46.57-4.83-22.09-8.09-44.2-4.75-66.33.13-.89.91-1.54 1.8-1.54h134.48c.9 0 1.67.66 1.8 1.54C586.72 748.42 573.25 786.13 565.51 823.63zM482.1 634.7c0-16.52 18.78-34.22 29.9-57.13 11.04 24.21 29.9 40.61 29.9 57.13 0 16.52-13.39 29.9-29.9 29.9C495.48 664.61 482.1 651.22 482.1 634.7z"/>
</svg>
